%TF.GenerationSoftware,KiCad,Pcbnew,7.0.8*%
%TF.CreationDate,2023-10-23T16:10:47-04:00*%
%TF.ProjectId,BoostCircuit,426f6f73-7443-4697-9263-7569742e6b69,rev?*%
%TF.SameCoordinates,Original*%
%TF.FileFunction,Copper,L2,Bot*%
%TF.FilePolarity,Positive*%
%FSLAX46Y46*%
G04 Gerber Fmt 4.6, Leading zero omitted, Abs format (unit mm)*
G04 Created by KiCad (PCBNEW 7.0.8) date 2023-10-23 16:10:47*
%MOMM*%
%LPD*%
G01*
G04 APERTURE LIST*
%TA.AperFunction,ComponentPad*%
%ADD10R,1.700000X1.700000*%
%TD*%
%TA.AperFunction,ComponentPad*%
%ADD11O,1.700000X1.700000*%
%TD*%
%TA.AperFunction,ComponentPad*%
%ADD12C,0.499999*%
%TD*%
%TA.AperFunction,SMDPad,CuDef*%
%ADD13R,5.080000X1.270000*%
%TD*%
%TA.AperFunction,SMDPad,CuDef*%
%ADD14R,3.962400X3.962400*%
%TD*%
%TA.AperFunction,ViaPad*%
%ADD15C,0.600000*%
%TD*%
%TA.AperFunction,Conductor*%
%ADD16C,0.200000*%
%TD*%
G04 APERTURE END LIST*
D10*
%TO.P,J2,1,Pin_1*%
%TO.N,N/C*%
X144000000Y-100130000D03*
D11*
%TO.P,J2,2,Pin_2*%
X144000000Y-102670000D03*
%TO.P,J2,3,Pin_3*%
X144000000Y-105210000D03*
%TO.P,J2,4,Pin_4*%
X144000000Y-107750000D03*
%TD*%
D10*
%TO.P,J1,1,Pin_1*%
%TO.N,GND*%
X122500000Y-107730000D03*
D11*
%TO.P,J1,2,Pin_2*%
%TO.N,/Vout+*%
X122500000Y-105190000D03*
%TO.P,J1,3,Pin_3*%
X122500000Y-102650000D03*
%TO.P,J1,4,Pin_4*%
%TO.N,GND*%
X122500000Y-100110000D03*
%TD*%
D12*
%TO.P,U1,V*%
%TO.N,GND*%
X131969999Y-103940001D03*
X131969999Y-105039999D03*
%TD*%
D13*
%TO.P,B1,1,1*%
%TO.N,Net-(U1-EN)*%
X131500000Y-113415500D03*
%TO.P,B1,2,2*%
X131500000Y-91444500D03*
D14*
%TO.P,B1,3,3*%
%TO.N,GND*%
X131500000Y-102430000D03*
%TD*%
D15*
%TO.N,GND*%
X130500000Y-106430000D03*
X131500000Y-102430000D03*
%TO.N,Net-(U1-EN)*%
X133500000Y-110750000D03*
X132500000Y-94750000D03*
%TD*%
D16*
%TO.N,GND*%
X130000000Y-103930000D02*
X131500000Y-102430000D01*
X130000000Y-105930000D02*
X130000000Y-103930000D01*
X130500000Y-106430000D02*
X130000000Y-105930000D01*
%TO.N,Net-(U1-EN)*%
X133500000Y-110750000D02*
X133500000Y-107430000D01*
X132500000Y-112415500D02*
X131500000Y-113415500D01*
X132500000Y-92444500D02*
X131500000Y-91444500D01*
X132500000Y-94750000D02*
X132500000Y-92444500D01*
X133500000Y-107430000D02*
X135750000Y-105180000D01*
X132500000Y-111750000D02*
X132500000Y-112415500D01*
X133500000Y-110750000D02*
X132500000Y-111750000D01*
X135750000Y-105180000D02*
X135750000Y-98000000D01*
X135750000Y-98000000D02*
X132500000Y-94750000D01*
%TD*%
M02*
