%TF.GenerationSoftware,KiCad,Pcbnew,7.0.8*%
%TF.CreationDate,2023-10-23T16:10:47-04:00*%
%TF.ProjectId,BoostCircuit,426f6f73-7443-4697-9263-7569742e6b69,rev?*%
%TF.SameCoordinates,Original*%
%TF.FileFunction,Legend,Top*%
%TF.FilePolarity,Positive*%
%FSLAX46Y46*%
G04 Gerber Fmt 4.6, Leading zero omitted, Abs format (unit mm)*
G04 Created by KiCad (PCBNEW 7.0.8) date 2023-10-23 16:10:47*
%MOMM*%
%LPD*%
G01*
G04 APERTURE LIST*
%ADD10C,0.100000*%
%ADD11C,0.150000*%
%ADD12C,0.254000*%
%ADD13C,0.120000*%
%ADD14C,0.200000*%
%ADD15C,0.508000*%
G04 APERTURE END LIST*
D10*
X126553884Y-91972419D02*
X126553884Y-90972419D01*
X126553884Y-90972419D02*
X126934836Y-90972419D01*
X126934836Y-90972419D02*
X127030074Y-91020038D01*
X127030074Y-91020038D02*
X127077693Y-91067657D01*
X127077693Y-91067657D02*
X127125312Y-91162895D01*
X127125312Y-91162895D02*
X127125312Y-91305752D01*
X127125312Y-91305752D02*
X127077693Y-91400990D01*
X127077693Y-91400990D02*
X127030074Y-91448609D01*
X127030074Y-91448609D02*
X126934836Y-91496228D01*
X126934836Y-91496228D02*
X126553884Y-91496228D01*
X127696741Y-91972419D02*
X127601503Y-91924800D01*
X127601503Y-91924800D02*
X127553884Y-91877180D01*
X127553884Y-91877180D02*
X127506265Y-91781942D01*
X127506265Y-91781942D02*
X127506265Y-91496228D01*
X127506265Y-91496228D02*
X127553884Y-91400990D01*
X127553884Y-91400990D02*
X127601503Y-91353371D01*
X127601503Y-91353371D02*
X127696741Y-91305752D01*
X127696741Y-91305752D02*
X127839598Y-91305752D01*
X127839598Y-91305752D02*
X127934836Y-91353371D01*
X127934836Y-91353371D02*
X127982455Y-91400990D01*
X127982455Y-91400990D02*
X128030074Y-91496228D01*
X128030074Y-91496228D02*
X128030074Y-91781942D01*
X128030074Y-91781942D02*
X127982455Y-91877180D01*
X127982455Y-91877180D02*
X127934836Y-91924800D01*
X127934836Y-91924800D02*
X127839598Y-91972419D01*
X127839598Y-91972419D02*
X127696741Y-91972419D01*
X128363408Y-91305752D02*
X128553884Y-91972419D01*
X128553884Y-91972419D02*
X128744360Y-91496228D01*
X128744360Y-91496228D02*
X128934836Y-91972419D01*
X128934836Y-91972419D02*
X129125312Y-91305752D01*
X129887217Y-91924800D02*
X129791979Y-91972419D01*
X129791979Y-91972419D02*
X129601503Y-91972419D01*
X129601503Y-91972419D02*
X129506265Y-91924800D01*
X129506265Y-91924800D02*
X129458646Y-91829561D01*
X129458646Y-91829561D02*
X129458646Y-91448609D01*
X129458646Y-91448609D02*
X129506265Y-91353371D01*
X129506265Y-91353371D02*
X129601503Y-91305752D01*
X129601503Y-91305752D02*
X129791979Y-91305752D01*
X129791979Y-91305752D02*
X129887217Y-91353371D01*
X129887217Y-91353371D02*
X129934836Y-91448609D01*
X129934836Y-91448609D02*
X129934836Y-91543847D01*
X129934836Y-91543847D02*
X129458646Y-91639085D01*
X130363408Y-91972419D02*
X130363408Y-91305752D01*
X130363408Y-91496228D02*
X130411027Y-91400990D01*
X130411027Y-91400990D02*
X130458646Y-91353371D01*
X130458646Y-91353371D02*
X130553884Y-91305752D01*
X130553884Y-91305752D02*
X130649122Y-91305752D01*
X131744361Y-91972419D02*
X131744361Y-90972419D01*
X131744361Y-90972419D02*
X132125313Y-90972419D01*
X132125313Y-90972419D02*
X132220551Y-91020038D01*
X132220551Y-91020038D02*
X132268170Y-91067657D01*
X132268170Y-91067657D02*
X132315789Y-91162895D01*
X132315789Y-91162895D02*
X132315789Y-91305752D01*
X132315789Y-91305752D02*
X132268170Y-91400990D01*
X132268170Y-91400990D02*
X132220551Y-91448609D01*
X132220551Y-91448609D02*
X132125313Y-91496228D01*
X132125313Y-91496228D02*
X131744361Y-91496228D01*
X133315789Y-91877180D02*
X133268170Y-91924800D01*
X133268170Y-91924800D02*
X133125313Y-91972419D01*
X133125313Y-91972419D02*
X133030075Y-91972419D01*
X133030075Y-91972419D02*
X132887218Y-91924800D01*
X132887218Y-91924800D02*
X132791980Y-91829561D01*
X132791980Y-91829561D02*
X132744361Y-91734323D01*
X132744361Y-91734323D02*
X132696742Y-91543847D01*
X132696742Y-91543847D02*
X132696742Y-91400990D01*
X132696742Y-91400990D02*
X132744361Y-91210514D01*
X132744361Y-91210514D02*
X132791980Y-91115276D01*
X132791980Y-91115276D02*
X132887218Y-91020038D01*
X132887218Y-91020038D02*
X133030075Y-90972419D01*
X133030075Y-90972419D02*
X133125313Y-90972419D01*
X133125313Y-90972419D02*
X133268170Y-91020038D01*
X133268170Y-91020038D02*
X133315789Y-91067657D01*
X134077694Y-91448609D02*
X134220551Y-91496228D01*
X134220551Y-91496228D02*
X134268170Y-91543847D01*
X134268170Y-91543847D02*
X134315789Y-91639085D01*
X134315789Y-91639085D02*
X134315789Y-91781942D01*
X134315789Y-91781942D02*
X134268170Y-91877180D01*
X134268170Y-91877180D02*
X134220551Y-91924800D01*
X134220551Y-91924800D02*
X134125313Y-91972419D01*
X134125313Y-91972419D02*
X133744361Y-91972419D01*
X133744361Y-91972419D02*
X133744361Y-90972419D01*
X133744361Y-90972419D02*
X134077694Y-90972419D01*
X134077694Y-90972419D02*
X134172932Y-91020038D01*
X134172932Y-91020038D02*
X134220551Y-91067657D01*
X134220551Y-91067657D02*
X134268170Y-91162895D01*
X134268170Y-91162895D02*
X134268170Y-91258133D01*
X134268170Y-91258133D02*
X134220551Y-91353371D01*
X134220551Y-91353371D02*
X134172932Y-91400990D01*
X134172932Y-91400990D02*
X134077694Y-91448609D01*
X134077694Y-91448609D02*
X133744361Y-91448609D01*
X134649123Y-91305752D02*
X134887218Y-91972419D01*
X134887218Y-91972419D02*
X135125313Y-91305752D01*
X136030075Y-91972419D02*
X135458647Y-91972419D01*
X135744361Y-91972419D02*
X135744361Y-90972419D01*
X135744361Y-90972419D02*
X135649123Y-91115276D01*
X135649123Y-91115276D02*
X135553885Y-91210514D01*
X135553885Y-91210514D02*
X135458647Y-91258133D01*
X126553884Y-93058609D02*
X126887217Y-93058609D01*
X127030074Y-93582419D02*
X126553884Y-93582419D01*
X126553884Y-93582419D02*
X126553884Y-92582419D01*
X126553884Y-92582419D02*
X127030074Y-92582419D01*
X128030074Y-93487180D02*
X127982455Y-93534800D01*
X127982455Y-93534800D02*
X127839598Y-93582419D01*
X127839598Y-93582419D02*
X127744360Y-93582419D01*
X127744360Y-93582419D02*
X127601503Y-93534800D01*
X127601503Y-93534800D02*
X127506265Y-93439561D01*
X127506265Y-93439561D02*
X127458646Y-93344323D01*
X127458646Y-93344323D02*
X127411027Y-93153847D01*
X127411027Y-93153847D02*
X127411027Y-93010990D01*
X127411027Y-93010990D02*
X127458646Y-92820514D01*
X127458646Y-92820514D02*
X127506265Y-92725276D01*
X127506265Y-92725276D02*
X127601503Y-92630038D01*
X127601503Y-92630038D02*
X127744360Y-92582419D01*
X127744360Y-92582419D02*
X127839598Y-92582419D01*
X127839598Y-92582419D02*
X127982455Y-92630038D01*
X127982455Y-92630038D02*
X128030074Y-92677657D01*
X128458646Y-93058609D02*
X128791979Y-93058609D01*
X128934836Y-93582419D02*
X128458646Y-93582419D01*
X128458646Y-93582419D02*
X128458646Y-92582419D01*
X128458646Y-92582419D02*
X128934836Y-92582419D01*
X130553884Y-92915752D02*
X130553884Y-93582419D01*
X130315789Y-92534800D02*
X130077694Y-93249085D01*
X130077694Y-93249085D02*
X130696741Y-93249085D01*
X130982456Y-92582419D02*
X131649122Y-92582419D01*
X131649122Y-92582419D02*
X131220551Y-93582419D01*
X131934837Y-92582419D02*
X132601503Y-92582419D01*
X132601503Y-92582419D02*
X132172932Y-93582419D01*
X134268170Y-92630038D02*
X134172932Y-92582419D01*
X134172932Y-92582419D02*
X134030075Y-92582419D01*
X134030075Y-92582419D02*
X133887218Y-92630038D01*
X133887218Y-92630038D02*
X133791980Y-92725276D01*
X133791980Y-92725276D02*
X133744361Y-92820514D01*
X133744361Y-92820514D02*
X133696742Y-93010990D01*
X133696742Y-93010990D02*
X133696742Y-93153847D01*
X133696742Y-93153847D02*
X133744361Y-93344323D01*
X133744361Y-93344323D02*
X133791980Y-93439561D01*
X133791980Y-93439561D02*
X133887218Y-93534800D01*
X133887218Y-93534800D02*
X134030075Y-93582419D01*
X134030075Y-93582419D02*
X134125313Y-93582419D01*
X134125313Y-93582419D02*
X134268170Y-93534800D01*
X134268170Y-93534800D02*
X134315789Y-93487180D01*
X134315789Y-93487180D02*
X134315789Y-93153847D01*
X134315789Y-93153847D02*
X134125313Y-93153847D01*
X134744361Y-93582419D02*
X134744361Y-92915752D01*
X134744361Y-93106228D02*
X134791980Y-93010990D01*
X134791980Y-93010990D02*
X134839599Y-92963371D01*
X134839599Y-92963371D02*
X134934837Y-92915752D01*
X134934837Y-92915752D02*
X135030075Y-92915752D01*
X135363409Y-92915752D02*
X135363409Y-93915752D01*
X135363409Y-92963371D02*
X135458647Y-92915752D01*
X135458647Y-92915752D02*
X135649123Y-92915752D01*
X135649123Y-92915752D02*
X135744361Y-92963371D01*
X135744361Y-92963371D02*
X135791980Y-93010990D01*
X135791980Y-93010990D02*
X135839599Y-93106228D01*
X135839599Y-93106228D02*
X135839599Y-93391942D01*
X135839599Y-93391942D02*
X135791980Y-93487180D01*
X135791980Y-93487180D02*
X135744361Y-93534800D01*
X135744361Y-93534800D02*
X135649123Y-93582419D01*
X135649123Y-93582419D02*
X135458647Y-93582419D01*
X135458647Y-93582419D02*
X135363409Y-93534800D01*
X137553885Y-93582419D02*
X136982457Y-93582419D01*
X137268171Y-93582419D02*
X137268171Y-92582419D01*
X137268171Y-92582419D02*
X137172933Y-92725276D01*
X137172933Y-92725276D02*
X137077695Y-92820514D01*
X137077695Y-92820514D02*
X136982457Y-92868133D01*
X137887219Y-92582419D02*
X138553885Y-92582419D01*
X138553885Y-92582419D02*
X138125314Y-93582419D01*
X126553884Y-95192419D02*
X126553884Y-94192419D01*
X126553884Y-94668609D02*
X127125312Y-94668609D01*
X127125312Y-95192419D02*
X127125312Y-94192419D01*
X128030074Y-95192419D02*
X128030074Y-94668609D01*
X128030074Y-94668609D02*
X127982455Y-94573371D01*
X127982455Y-94573371D02*
X127887217Y-94525752D01*
X127887217Y-94525752D02*
X127696741Y-94525752D01*
X127696741Y-94525752D02*
X127601503Y-94573371D01*
X128030074Y-95144800D02*
X127934836Y-95192419D01*
X127934836Y-95192419D02*
X127696741Y-95192419D01*
X127696741Y-95192419D02*
X127601503Y-95144800D01*
X127601503Y-95144800D02*
X127553884Y-95049561D01*
X127553884Y-95049561D02*
X127553884Y-94954323D01*
X127553884Y-94954323D02*
X127601503Y-94859085D01*
X127601503Y-94859085D02*
X127696741Y-94811466D01*
X127696741Y-94811466D02*
X127934836Y-94811466D01*
X127934836Y-94811466D02*
X128030074Y-94763847D01*
X128411027Y-94525752D02*
X128649122Y-95192419D01*
X128887217Y-94525752D02*
X128649122Y-95192419D01*
X128649122Y-95192419D02*
X128553884Y-95430514D01*
X128553884Y-95430514D02*
X128506265Y-95478133D01*
X128506265Y-95478133D02*
X128411027Y-95525752D01*
X129696741Y-95192419D02*
X129696741Y-94668609D01*
X129696741Y-94668609D02*
X129649122Y-94573371D01*
X129649122Y-94573371D02*
X129553884Y-94525752D01*
X129553884Y-94525752D02*
X129363408Y-94525752D01*
X129363408Y-94525752D02*
X129268170Y-94573371D01*
X129696741Y-95144800D02*
X129601503Y-95192419D01*
X129601503Y-95192419D02*
X129363408Y-95192419D01*
X129363408Y-95192419D02*
X129268170Y-95144800D01*
X129268170Y-95144800D02*
X129220551Y-95049561D01*
X129220551Y-95049561D02*
X129220551Y-94954323D01*
X129220551Y-94954323D02*
X129268170Y-94859085D01*
X129268170Y-94859085D02*
X129363408Y-94811466D01*
X129363408Y-94811466D02*
X129601503Y-94811466D01*
X129601503Y-94811466D02*
X129696741Y-94763847D01*
X130601503Y-94525752D02*
X130601503Y-95335276D01*
X130601503Y-95335276D02*
X130553884Y-95430514D01*
X130553884Y-95430514D02*
X130506265Y-95478133D01*
X130506265Y-95478133D02*
X130411027Y-95525752D01*
X130411027Y-95525752D02*
X130268170Y-95525752D01*
X130268170Y-95525752D02*
X130172932Y-95478133D01*
X130601503Y-95144800D02*
X130506265Y-95192419D01*
X130506265Y-95192419D02*
X130315789Y-95192419D01*
X130315789Y-95192419D02*
X130220551Y-95144800D01*
X130220551Y-95144800D02*
X130172932Y-95097180D01*
X130172932Y-95097180D02*
X130125313Y-95001942D01*
X130125313Y-95001942D02*
X130125313Y-94716228D01*
X130125313Y-94716228D02*
X130172932Y-94620990D01*
X130172932Y-94620990D02*
X130220551Y-94573371D01*
X130220551Y-94573371D02*
X130315789Y-94525752D01*
X130315789Y-94525752D02*
X130506265Y-94525752D01*
X130506265Y-94525752D02*
X130601503Y-94573371D01*
X131077694Y-95192419D02*
X131077694Y-94525752D01*
X131077694Y-94716228D02*
X131125313Y-94620990D01*
X131125313Y-94620990D02*
X131172932Y-94573371D01*
X131172932Y-94573371D02*
X131268170Y-94525752D01*
X131268170Y-94525752D02*
X131363408Y-94525752D01*
X132077694Y-95144800D02*
X131982456Y-95192419D01*
X131982456Y-95192419D02*
X131791980Y-95192419D01*
X131791980Y-95192419D02*
X131696742Y-95144800D01*
X131696742Y-95144800D02*
X131649123Y-95049561D01*
X131649123Y-95049561D02*
X131649123Y-94668609D01*
X131649123Y-94668609D02*
X131696742Y-94573371D01*
X131696742Y-94573371D02*
X131791980Y-94525752D01*
X131791980Y-94525752D02*
X131982456Y-94525752D01*
X131982456Y-94525752D02*
X132077694Y-94573371D01*
X132077694Y-94573371D02*
X132125313Y-94668609D01*
X132125313Y-94668609D02*
X132125313Y-94763847D01*
X132125313Y-94763847D02*
X131649123Y-94859085D01*
X132934837Y-95144800D02*
X132839599Y-95192419D01*
X132839599Y-95192419D02*
X132649123Y-95192419D01*
X132649123Y-95192419D02*
X132553885Y-95144800D01*
X132553885Y-95144800D02*
X132506266Y-95049561D01*
X132506266Y-95049561D02*
X132506266Y-94668609D01*
X132506266Y-94668609D02*
X132553885Y-94573371D01*
X132553885Y-94573371D02*
X132649123Y-94525752D01*
X132649123Y-94525752D02*
X132839599Y-94525752D01*
X132839599Y-94525752D02*
X132934837Y-94573371D01*
X132934837Y-94573371D02*
X132982456Y-94668609D01*
X132982456Y-94668609D02*
X132982456Y-94763847D01*
X132982456Y-94763847D02*
X132506266Y-94859085D01*
X133315790Y-94525752D02*
X133553885Y-95192419D01*
X133553885Y-95192419D02*
X133791980Y-94525752D01*
X134220552Y-95144800D02*
X134220552Y-95192419D01*
X134220552Y-95192419D02*
X134172933Y-95287657D01*
X134172933Y-95287657D02*
X134125314Y-95335276D01*
X135411028Y-95192419D02*
X135411028Y-94192419D01*
X135411028Y-94192419D02*
X135744361Y-94906704D01*
X135744361Y-94906704D02*
X136077694Y-94192419D01*
X136077694Y-94192419D02*
X136077694Y-95192419D01*
X136982456Y-95192419D02*
X136982456Y-94668609D01*
X136982456Y-94668609D02*
X136934837Y-94573371D01*
X136934837Y-94573371D02*
X136839599Y-94525752D01*
X136839599Y-94525752D02*
X136649123Y-94525752D01*
X136649123Y-94525752D02*
X136553885Y-94573371D01*
X136982456Y-95144800D02*
X136887218Y-95192419D01*
X136887218Y-95192419D02*
X136649123Y-95192419D01*
X136649123Y-95192419D02*
X136553885Y-95144800D01*
X136553885Y-95144800D02*
X136506266Y-95049561D01*
X136506266Y-95049561D02*
X136506266Y-94954323D01*
X136506266Y-94954323D02*
X136553885Y-94859085D01*
X136553885Y-94859085D02*
X136649123Y-94811466D01*
X136649123Y-94811466D02*
X136887218Y-94811466D01*
X136887218Y-94811466D02*
X136982456Y-94763847D01*
X137458647Y-95192419D02*
X137458647Y-94192419D01*
X137887218Y-95192419D02*
X137887218Y-94668609D01*
X137887218Y-94668609D02*
X137839599Y-94573371D01*
X137839599Y-94573371D02*
X137744361Y-94525752D01*
X137744361Y-94525752D02*
X137601504Y-94525752D01*
X137601504Y-94525752D02*
X137506266Y-94573371D01*
X137506266Y-94573371D02*
X137458647Y-94620990D01*
X138791980Y-95192419D02*
X138791980Y-94668609D01*
X138791980Y-94668609D02*
X138744361Y-94573371D01*
X138744361Y-94573371D02*
X138649123Y-94525752D01*
X138649123Y-94525752D02*
X138458647Y-94525752D01*
X138458647Y-94525752D02*
X138363409Y-94573371D01*
X138791980Y-95144800D02*
X138696742Y-95192419D01*
X138696742Y-95192419D02*
X138458647Y-95192419D01*
X138458647Y-95192419D02*
X138363409Y-95144800D01*
X138363409Y-95144800D02*
X138315790Y-95049561D01*
X138315790Y-95049561D02*
X138315790Y-94954323D01*
X138315790Y-94954323D02*
X138363409Y-94859085D01*
X138363409Y-94859085D02*
X138458647Y-94811466D01*
X138458647Y-94811466D02*
X138696742Y-94811466D01*
X138696742Y-94811466D02*
X138791980Y-94763847D01*
X139268171Y-95192419D02*
X139268171Y-94525752D01*
X139268171Y-94620990D02*
X139315790Y-94573371D01*
X139315790Y-94573371D02*
X139411028Y-94525752D01*
X139411028Y-94525752D02*
X139553885Y-94525752D01*
X139553885Y-94525752D02*
X139649123Y-94573371D01*
X139649123Y-94573371D02*
X139696742Y-94668609D01*
X139696742Y-94668609D02*
X139696742Y-95192419D01*
X139696742Y-94668609D02*
X139744361Y-94573371D01*
X139744361Y-94573371D02*
X139839599Y-94525752D01*
X139839599Y-94525752D02*
X139982456Y-94525752D01*
X139982456Y-94525752D02*
X140077695Y-94573371D01*
X140077695Y-94573371D02*
X140125314Y-94668609D01*
X140125314Y-94668609D02*
X140125314Y-95192419D01*
X140649123Y-95144800D02*
X140649123Y-95192419D01*
X140649123Y-95192419D02*
X140601504Y-95287657D01*
X140601504Y-95287657D02*
X140553885Y-95335276D01*
X126553884Y-96802419D02*
X126553884Y-95802419D01*
X126553884Y-95802419D02*
X126934836Y-95802419D01*
X126934836Y-95802419D02*
X127030074Y-95850038D01*
X127030074Y-95850038D02*
X127077693Y-95897657D01*
X127077693Y-95897657D02*
X127125312Y-95992895D01*
X127125312Y-95992895D02*
X127125312Y-96135752D01*
X127125312Y-96135752D02*
X127077693Y-96230990D01*
X127077693Y-96230990D02*
X127030074Y-96278609D01*
X127030074Y-96278609D02*
X126934836Y-96326228D01*
X126934836Y-96326228D02*
X126553884Y-96326228D01*
X127982455Y-96802419D02*
X127982455Y-96278609D01*
X127982455Y-96278609D02*
X127934836Y-96183371D01*
X127934836Y-96183371D02*
X127839598Y-96135752D01*
X127839598Y-96135752D02*
X127649122Y-96135752D01*
X127649122Y-96135752D02*
X127553884Y-96183371D01*
X127982455Y-96754800D02*
X127887217Y-96802419D01*
X127887217Y-96802419D02*
X127649122Y-96802419D01*
X127649122Y-96802419D02*
X127553884Y-96754800D01*
X127553884Y-96754800D02*
X127506265Y-96659561D01*
X127506265Y-96659561D02*
X127506265Y-96564323D01*
X127506265Y-96564323D02*
X127553884Y-96469085D01*
X127553884Y-96469085D02*
X127649122Y-96421466D01*
X127649122Y-96421466D02*
X127887217Y-96421466D01*
X127887217Y-96421466D02*
X127982455Y-96373847D01*
X128315789Y-96135752D02*
X128696741Y-96135752D01*
X128458646Y-95802419D02*
X128458646Y-96659561D01*
X128458646Y-96659561D02*
X128506265Y-96754800D01*
X128506265Y-96754800D02*
X128601503Y-96802419D01*
X128601503Y-96802419D02*
X128696741Y-96802419D01*
X129030075Y-96802419D02*
X129030075Y-96135752D01*
X129030075Y-96326228D02*
X129077694Y-96230990D01*
X129077694Y-96230990D02*
X129125313Y-96183371D01*
X129125313Y-96183371D02*
X129220551Y-96135752D01*
X129220551Y-96135752D02*
X129315789Y-96135752D01*
X129649123Y-96802419D02*
X129649123Y-96135752D01*
X129649123Y-95802419D02*
X129601504Y-95850038D01*
X129601504Y-95850038D02*
X129649123Y-95897657D01*
X129649123Y-95897657D02*
X129696742Y-95850038D01*
X129696742Y-95850038D02*
X129649123Y-95802419D01*
X129649123Y-95802419D02*
X129649123Y-95897657D01*
X130553884Y-96754800D02*
X130458646Y-96802419D01*
X130458646Y-96802419D02*
X130268170Y-96802419D01*
X130268170Y-96802419D02*
X130172932Y-96754800D01*
X130172932Y-96754800D02*
X130125313Y-96707180D01*
X130125313Y-96707180D02*
X130077694Y-96611942D01*
X130077694Y-96611942D02*
X130077694Y-96326228D01*
X130077694Y-96326228D02*
X130125313Y-96230990D01*
X130125313Y-96230990D02*
X130172932Y-96183371D01*
X130172932Y-96183371D02*
X130268170Y-96135752D01*
X130268170Y-96135752D02*
X130458646Y-96135752D01*
X130458646Y-96135752D02*
X130553884Y-96183371D01*
X130982456Y-96802419D02*
X130982456Y-95802419D01*
X131077694Y-96421466D02*
X131363408Y-96802419D01*
X131363408Y-96135752D02*
X130982456Y-96516704D01*
X131839599Y-96754800D02*
X131839599Y-96802419D01*
X131839599Y-96802419D02*
X131791980Y-96897657D01*
X131791980Y-96897657D02*
X131744361Y-96945276D01*
X132982456Y-96754800D02*
X133125313Y-96802419D01*
X133125313Y-96802419D02*
X133363408Y-96802419D01*
X133363408Y-96802419D02*
X133458646Y-96754800D01*
X133458646Y-96754800D02*
X133506265Y-96707180D01*
X133506265Y-96707180D02*
X133553884Y-96611942D01*
X133553884Y-96611942D02*
X133553884Y-96516704D01*
X133553884Y-96516704D02*
X133506265Y-96421466D01*
X133506265Y-96421466D02*
X133458646Y-96373847D01*
X133458646Y-96373847D02*
X133363408Y-96326228D01*
X133363408Y-96326228D02*
X133172932Y-96278609D01*
X133172932Y-96278609D02*
X133077694Y-96230990D01*
X133077694Y-96230990D02*
X133030075Y-96183371D01*
X133030075Y-96183371D02*
X132982456Y-96088133D01*
X132982456Y-96088133D02*
X132982456Y-95992895D01*
X132982456Y-95992895D02*
X133030075Y-95897657D01*
X133030075Y-95897657D02*
X133077694Y-95850038D01*
X133077694Y-95850038D02*
X133172932Y-95802419D01*
X133172932Y-95802419D02*
X133411027Y-95802419D01*
X133411027Y-95802419D02*
X133553884Y-95850038D01*
X134411027Y-96802419D02*
X134411027Y-96278609D01*
X134411027Y-96278609D02*
X134363408Y-96183371D01*
X134363408Y-96183371D02*
X134268170Y-96135752D01*
X134268170Y-96135752D02*
X134077694Y-96135752D01*
X134077694Y-96135752D02*
X133982456Y-96183371D01*
X134411027Y-96754800D02*
X134315789Y-96802419D01*
X134315789Y-96802419D02*
X134077694Y-96802419D01*
X134077694Y-96802419D02*
X133982456Y-96754800D01*
X133982456Y-96754800D02*
X133934837Y-96659561D01*
X133934837Y-96659561D02*
X133934837Y-96564323D01*
X133934837Y-96564323D02*
X133982456Y-96469085D01*
X133982456Y-96469085D02*
X134077694Y-96421466D01*
X134077694Y-96421466D02*
X134315789Y-96421466D01*
X134315789Y-96421466D02*
X134411027Y-96373847D01*
X134887218Y-96802419D02*
X134887218Y-96135752D01*
X134887218Y-96230990D02*
X134934837Y-96183371D01*
X134934837Y-96183371D02*
X135030075Y-96135752D01*
X135030075Y-96135752D02*
X135172932Y-96135752D01*
X135172932Y-96135752D02*
X135268170Y-96183371D01*
X135268170Y-96183371D02*
X135315789Y-96278609D01*
X135315789Y-96278609D02*
X135315789Y-96802419D01*
X135315789Y-96278609D02*
X135363408Y-96183371D01*
X135363408Y-96183371D02*
X135458646Y-96135752D01*
X135458646Y-96135752D02*
X135601503Y-96135752D01*
X135601503Y-96135752D02*
X135696742Y-96183371D01*
X135696742Y-96183371D02*
X135744361Y-96278609D01*
X135744361Y-96278609D02*
X135744361Y-96802419D01*
X136649122Y-96802419D02*
X136649122Y-96278609D01*
X136649122Y-96278609D02*
X136601503Y-96183371D01*
X136601503Y-96183371D02*
X136506265Y-96135752D01*
X136506265Y-96135752D02*
X136315789Y-96135752D01*
X136315789Y-96135752D02*
X136220551Y-96183371D01*
X136649122Y-96754800D02*
X136553884Y-96802419D01*
X136553884Y-96802419D02*
X136315789Y-96802419D01*
X136315789Y-96802419D02*
X136220551Y-96754800D01*
X136220551Y-96754800D02*
X136172932Y-96659561D01*
X136172932Y-96659561D02*
X136172932Y-96564323D01*
X136172932Y-96564323D02*
X136220551Y-96469085D01*
X136220551Y-96469085D02*
X136315789Y-96421466D01*
X136315789Y-96421466D02*
X136553884Y-96421466D01*
X136553884Y-96421466D02*
X136649122Y-96373847D01*
X137125313Y-96135752D02*
X137125313Y-96802419D01*
X137125313Y-96230990D02*
X137172932Y-96183371D01*
X137172932Y-96183371D02*
X137268170Y-96135752D01*
X137268170Y-96135752D02*
X137411027Y-96135752D01*
X137411027Y-96135752D02*
X137506265Y-96183371D01*
X137506265Y-96183371D02*
X137553884Y-96278609D01*
X137553884Y-96278609D02*
X137553884Y-96802419D01*
X137887218Y-96135752D02*
X138268170Y-96135752D01*
X138030075Y-95802419D02*
X138030075Y-96659561D01*
X138030075Y-96659561D02*
X138077694Y-96754800D01*
X138077694Y-96754800D02*
X138172932Y-96802419D01*
X138172932Y-96802419D02*
X138268170Y-96802419D01*
X138601504Y-96802419D02*
X138601504Y-95802419D01*
X139030075Y-96802419D02*
X139030075Y-96278609D01*
X139030075Y-96278609D02*
X138982456Y-96183371D01*
X138982456Y-96183371D02*
X138887218Y-96135752D01*
X138887218Y-96135752D02*
X138744361Y-96135752D01*
X138744361Y-96135752D02*
X138649123Y-96183371D01*
X138649123Y-96183371D02*
X138601504Y-96230990D01*
X139934837Y-96802419D02*
X139934837Y-96278609D01*
X139934837Y-96278609D02*
X139887218Y-96183371D01*
X139887218Y-96183371D02*
X139791980Y-96135752D01*
X139791980Y-96135752D02*
X139601504Y-96135752D01*
X139601504Y-96135752D02*
X139506266Y-96183371D01*
X139934837Y-96754800D02*
X139839599Y-96802419D01*
X139839599Y-96802419D02*
X139601504Y-96802419D01*
X139601504Y-96802419D02*
X139506266Y-96754800D01*
X139506266Y-96754800D02*
X139458647Y-96659561D01*
X139458647Y-96659561D02*
X139458647Y-96564323D01*
X139458647Y-96564323D02*
X139506266Y-96469085D01*
X139506266Y-96469085D02*
X139601504Y-96421466D01*
X139601504Y-96421466D02*
X139839599Y-96421466D01*
X139839599Y-96421466D02*
X139934837Y-96373847D01*
D11*
X143666666Y-97254819D02*
X143666666Y-97969104D01*
X143666666Y-97969104D02*
X143619047Y-98111961D01*
X143619047Y-98111961D02*
X143523809Y-98207200D01*
X143523809Y-98207200D02*
X143380952Y-98254819D01*
X143380952Y-98254819D02*
X143285714Y-98254819D01*
X144095238Y-97350057D02*
X144142857Y-97302438D01*
X144142857Y-97302438D02*
X144238095Y-97254819D01*
X144238095Y-97254819D02*
X144476190Y-97254819D01*
X144476190Y-97254819D02*
X144571428Y-97302438D01*
X144571428Y-97302438D02*
X144619047Y-97350057D01*
X144619047Y-97350057D02*
X144666666Y-97445295D01*
X144666666Y-97445295D02*
X144666666Y-97540533D01*
X144666666Y-97540533D02*
X144619047Y-97683390D01*
X144619047Y-97683390D02*
X144047619Y-98254819D01*
X144047619Y-98254819D02*
X144666666Y-98254819D01*
X122166666Y-109514819D02*
X122166666Y-110229104D01*
X122166666Y-110229104D02*
X122119047Y-110371961D01*
X122119047Y-110371961D02*
X122023809Y-110467200D01*
X122023809Y-110467200D02*
X121880952Y-110514819D01*
X121880952Y-110514819D02*
X121785714Y-110514819D01*
X123166666Y-110514819D02*
X122595238Y-110514819D01*
X122880952Y-110514819D02*
X122880952Y-109514819D01*
X122880952Y-109514819D02*
X122785714Y-109657676D01*
X122785714Y-109657676D02*
X122690476Y-109752914D01*
X122690476Y-109752914D02*
X122595238Y-109800533D01*
X131238095Y-106884819D02*
X131238095Y-107694342D01*
X131238095Y-107694342D02*
X131285714Y-107789580D01*
X131285714Y-107789580D02*
X131333333Y-107837200D01*
X131333333Y-107837200D02*
X131428571Y-107884819D01*
X131428571Y-107884819D02*
X131619047Y-107884819D01*
X131619047Y-107884819D02*
X131714285Y-107837200D01*
X131714285Y-107837200D02*
X131761904Y-107789580D01*
X131761904Y-107789580D02*
X131809523Y-107694342D01*
X131809523Y-107694342D02*
X131809523Y-106884819D01*
X132809523Y-107884819D02*
X132238095Y-107884819D01*
X132523809Y-107884819D02*
X132523809Y-106884819D01*
X132523809Y-106884819D02*
X132428571Y-107027676D01*
X132428571Y-107027676D02*
X132333333Y-107122914D01*
X132333333Y-107122914D02*
X132238095Y-107170533D01*
X132833333Y-101039580D02*
X132785714Y-101087200D01*
X132785714Y-101087200D02*
X132642857Y-101134819D01*
X132642857Y-101134819D02*
X132547619Y-101134819D01*
X132547619Y-101134819D02*
X132404762Y-101087200D01*
X132404762Y-101087200D02*
X132309524Y-100991961D01*
X132309524Y-100991961D02*
X132261905Y-100896723D01*
X132261905Y-100896723D02*
X132214286Y-100706247D01*
X132214286Y-100706247D02*
X132214286Y-100563390D01*
X132214286Y-100563390D02*
X132261905Y-100372914D01*
X132261905Y-100372914D02*
X132309524Y-100277676D01*
X132309524Y-100277676D02*
X132404762Y-100182438D01*
X132404762Y-100182438D02*
X132547619Y-100134819D01*
X132547619Y-100134819D02*
X132642857Y-100134819D01*
X132642857Y-100134819D02*
X132785714Y-100182438D01*
X132785714Y-100182438D02*
X132833333Y-100230057D01*
X133785714Y-101134819D02*
X133214286Y-101134819D01*
X133500000Y-101134819D02*
X133500000Y-100134819D01*
X133500000Y-100134819D02*
X133404762Y-100277676D01*
X133404762Y-100277676D02*
X133309524Y-100372914D01*
X133309524Y-100372914D02*
X133214286Y-100420533D01*
D12*
X135788333Y-108254318D02*
X135183571Y-108254318D01*
X135183571Y-108254318D02*
X135183571Y-106984318D01*
X136876905Y-108254318D02*
X136151190Y-108254318D01*
X136514047Y-108254318D02*
X136514047Y-106984318D01*
X136514047Y-106984318D02*
X136393095Y-107165746D01*
X136393095Y-107165746D02*
X136272143Y-107286699D01*
X136272143Y-107286699D02*
X136151190Y-107347175D01*
D11*
X127859580Y-103096666D02*
X127907200Y-103144285D01*
X127907200Y-103144285D02*
X127954819Y-103287142D01*
X127954819Y-103287142D02*
X127954819Y-103382380D01*
X127954819Y-103382380D02*
X127907200Y-103525237D01*
X127907200Y-103525237D02*
X127811961Y-103620475D01*
X127811961Y-103620475D02*
X127716723Y-103668094D01*
X127716723Y-103668094D02*
X127526247Y-103715713D01*
X127526247Y-103715713D02*
X127383390Y-103715713D01*
X127383390Y-103715713D02*
X127192914Y-103668094D01*
X127192914Y-103668094D02*
X127097676Y-103620475D01*
X127097676Y-103620475D02*
X127002438Y-103525237D01*
X127002438Y-103525237D02*
X126954819Y-103382380D01*
X126954819Y-103382380D02*
X126954819Y-103287142D01*
X126954819Y-103287142D02*
X127002438Y-103144285D01*
X127002438Y-103144285D02*
X127050057Y-103096666D01*
X127050057Y-102715713D02*
X127002438Y-102668094D01*
X127002438Y-102668094D02*
X126954819Y-102572856D01*
X126954819Y-102572856D02*
X126954819Y-102334761D01*
X126954819Y-102334761D02*
X127002438Y-102239523D01*
X127002438Y-102239523D02*
X127050057Y-102191904D01*
X127050057Y-102191904D02*
X127145295Y-102144285D01*
X127145295Y-102144285D02*
X127240533Y-102144285D01*
X127240533Y-102144285D02*
X127383390Y-102191904D01*
X127383390Y-102191904D02*
X127954819Y-102763332D01*
X127954819Y-102763332D02*
X127954819Y-102144285D01*
D13*
%TO.C,J2*%
X142670000Y-98800000D02*
X144000000Y-98800000D01*
X142670000Y-100130000D02*
X142670000Y-98800000D01*
X142670000Y-101400000D02*
X142670000Y-109080000D01*
X142670000Y-101400000D02*
X145330000Y-101400000D01*
X142670000Y-109080000D02*
X145330000Y-109080000D01*
X145330000Y-101400000D02*
X145330000Y-109080000D01*
%TO.C,J1*%
X123830000Y-109060000D02*
X122500000Y-109060000D01*
X123830000Y-107730000D02*
X123830000Y-109060000D01*
X123830000Y-106460000D02*
X123830000Y-98780000D01*
X123830000Y-106460000D02*
X121170000Y-106460000D01*
X123830000Y-98780000D02*
X121170000Y-98780000D01*
X121170000Y-106460000D02*
X121170000Y-98780000D01*
D14*
%TO.C,U1*%
X130919999Y-103290000D02*
X131769999Y-103290000D01*
X130919999Y-105690000D02*
X131169998Y-105690000D01*
X132770000Y-103290000D02*
X133019999Y-103290000D01*
X132770000Y-105690000D02*
X133019999Y-105690000D01*
D13*
%TO.C,C1*%
X133087836Y-102790000D02*
X132872164Y-102790000D01*
X133087836Y-102070000D02*
X132872164Y-102070000D01*
D14*
%TO.C,L1*%
X136200000Y-104280000D02*
X134800000Y-104280000D01*
D13*
%TO.C,C2*%
X129140000Y-104017836D02*
X129140000Y-103802164D01*
X129860000Y-104017836D02*
X129860000Y-103802164D01*
D15*
%TO.C,B1*%
X131881000Y-116146000D02*
G75*
G03*
X131881000Y-116146000I-381000J0D01*
G01*
%TD*%
M02*
