%TF.GenerationSoftware,KiCad,Pcbnew,7.0.8*%
%TF.CreationDate,2023-11-02T17:05:13-04:00*%
%TF.ProjectId,BoostCircuit,426f6f73-7443-4697-9263-7569742e6b69,rev?*%
%TF.SameCoordinates,Original*%
%TF.FileFunction,Paste,Top*%
%TF.FilePolarity,Positive*%
%FSLAX46Y46*%
G04 Gerber Fmt 4.6, Leading zero omitted, Abs format (unit mm)*
G04 Created by KiCad (PCBNEW 7.0.8) date 2023-11-02 17:05:13*
%MOMM*%
%LPD*%
G01*
G04 APERTURE LIST*
G04 Aperture macros list*
%AMRoundRect*
0 Rectangle with rounded corners*
0 $1 Rounding radius*
0 $2 $3 $4 $5 $6 $7 $8 $9 X,Y pos of 4 corners*
0 Add a 4 corners polygon primitive as box body*
4,1,4,$2,$3,$4,$5,$6,$7,$8,$9,$2,$3,0*
0 Add four circle primitives for the rounded corners*
1,1,$1+$1,$2,$3*
1,1,$1+$1,$4,$5*
1,1,$1+$1,$6,$7*
1,1,$1+$1,$8,$9*
0 Add four rect primitives between the rounded corners*
20,1,$1+$1,$2,$3,$4,$5,0*
20,1,$1+$1,$4,$5,$6,$7,0*
20,1,$1+$1,$6,$7,$8,$9,0*
20,1,$1+$1,$8,$9,$2,$3,0*%
G04 Aperture macros list end*
%ADD10R,0.849999X0.399999*%
%ADD11R,0.849998X0.399998*%
%ADD12R,1.000000X1.599999*%
%ADD13RoundRect,0.250000X0.250000X0.475000X-0.250000X0.475000X-0.250000X-0.475000X0.250000X-0.475000X0*%
%ADD14R,1.800000X1.200000*%
%ADD15RoundRect,0.250000X0.650000X-0.325000X0.650000X0.325000X-0.650000X0.325000X-0.650000X-0.325000X0*%
G04 APERTURE END LIST*
%TO.C,U1*%
G36*
X132430559Y-103690941D02*
G01*
X132439752Y-103693730D01*
X132448223Y-103698259D01*
X132455647Y-103704353D01*
X132461740Y-103711777D01*
X132466269Y-103720248D01*
X132469058Y-103729440D01*
X132470001Y-103739001D01*
X132470001Y-104341001D01*
X132469058Y-104350562D01*
X132466269Y-104359754D01*
X132461740Y-104368225D01*
X132455647Y-104375649D01*
X132448223Y-104381743D01*
X132439752Y-104386271D01*
X132430559Y-104389060D01*
X132420999Y-104390003D01*
X131518999Y-104390003D01*
X131509439Y-104389060D01*
X131500246Y-104386271D01*
X131491775Y-104381743D01*
X131484351Y-104375649D01*
X131478258Y-104368225D01*
X131473729Y-104359754D01*
X131470940Y-104350562D01*
X131469997Y-104341001D01*
X131469997Y-103739001D01*
X131470940Y-103729440D01*
X131473729Y-103720248D01*
X131478258Y-103711777D01*
X131484351Y-103704353D01*
X131491775Y-103698259D01*
X131500246Y-103693730D01*
X131509439Y-103690941D01*
X131518999Y-103690002D01*
X132420999Y-103690002D01*
X132430559Y-103690941D01*
G37*
G36*
X132430559Y-104590940D02*
G01*
X132439752Y-104593729D01*
X132448223Y-104598257D01*
X132455647Y-104604351D01*
X132461740Y-104611775D01*
X132466269Y-104620246D01*
X132469058Y-104629438D01*
X132470001Y-104638999D01*
X132470001Y-105240999D01*
X132469058Y-105250560D01*
X132466269Y-105259752D01*
X132461740Y-105268223D01*
X132455647Y-105275647D01*
X132448223Y-105281741D01*
X132439752Y-105286270D01*
X132430559Y-105289059D01*
X132420999Y-105289998D01*
X131518999Y-105289998D01*
X131509439Y-105289059D01*
X131500246Y-105286270D01*
X131491775Y-105281741D01*
X131484351Y-105275647D01*
X131478258Y-105268223D01*
X131473729Y-105259752D01*
X131470940Y-105250560D01*
X131469997Y-105240999D01*
X131469997Y-104638999D01*
X131470940Y-104629438D01*
X131473729Y-104620246D01*
X131478258Y-104611775D01*
X131484351Y-104604351D01*
X131491775Y-104598257D01*
X131500246Y-104593729D01*
X131509439Y-104590940D01*
X131518999Y-104589997D01*
X132420999Y-104589997D01*
X132430559Y-104590940D01*
G37*
%TD*%
D10*
%TO.C,U1*%
X130795000Y-103839999D03*
X130795000Y-104490000D03*
X130795000Y-105139999D03*
X133144998Y-105139999D03*
X133144998Y-104490000D03*
D11*
X133144999Y-103839999D03*
D12*
X131969999Y-104490000D03*
%TD*%
D13*
%TO.C,C1*%
X134000000Y-101250000D03*
X132100000Y-101250000D03*
%TD*%
D14*
%TO.C,L1*%
X135500000Y-103430000D03*
X135500000Y-105130000D03*
%TD*%
D15*
%TO.C,C2*%
X128750000Y-105500000D03*
X128750000Y-102550000D03*
%TD*%
M02*
