%TF.GenerationSoftware,KiCad,Pcbnew,7.0.8*%
%TF.CreationDate,2023-10-23T16:10:47-04:00*%
%TF.ProjectId,BoostCircuit,426f6f73-7443-4697-9263-7569742e6b69,rev?*%
%TF.SameCoordinates,Original*%
%TF.FileFunction,Legend,Bot*%
%TF.FilePolarity,Positive*%
%FSLAX46Y46*%
G04 Gerber Fmt 4.6, Leading zero omitted, Abs format (unit mm)*
G04 Created by KiCad (PCBNEW 7.0.8) date 2023-10-23 16:10:47*
%MOMM*%
%LPD*%
G01*
G04 APERTURE LIST*
%ADD10C,0.150000*%
%ADD11C,0.152400*%
%ADD12C,0.508000*%
G04 APERTURE END LIST*
D10*
X131568990Y-102834761D02*
X131521371Y-102691904D01*
X131521371Y-102691904D02*
X131473752Y-102644285D01*
X131473752Y-102644285D02*
X131378514Y-102596666D01*
X131378514Y-102596666D02*
X131235657Y-102596666D01*
X131235657Y-102596666D02*
X131140419Y-102644285D01*
X131140419Y-102644285D02*
X131092800Y-102691904D01*
X131092800Y-102691904D02*
X131045180Y-102787142D01*
X131045180Y-102787142D02*
X131045180Y-103168094D01*
X131045180Y-103168094D02*
X132045180Y-103168094D01*
X132045180Y-103168094D02*
X132045180Y-102834761D01*
X132045180Y-102834761D02*
X131997561Y-102739523D01*
X131997561Y-102739523D02*
X131949942Y-102691904D01*
X131949942Y-102691904D02*
X131854704Y-102644285D01*
X131854704Y-102644285D02*
X131759466Y-102644285D01*
X131759466Y-102644285D02*
X131664228Y-102691904D01*
X131664228Y-102691904D02*
X131616609Y-102739523D01*
X131616609Y-102739523D02*
X131568990Y-102834761D01*
X131568990Y-102834761D02*
X131568990Y-103168094D01*
X131045180Y-101644285D02*
X131045180Y-102215713D01*
X131045180Y-101929999D02*
X132045180Y-101929999D01*
X132045180Y-101929999D02*
X131902323Y-102025237D01*
X131902323Y-102025237D02*
X131807085Y-102120475D01*
X131807085Y-102120475D02*
X131759466Y-102215713D01*
D11*
%TO.C,B1*%
X123981600Y-114368000D02*
X123981600Y-90492000D01*
X128860453Y-114368000D02*
X123981600Y-114368000D01*
X140364600Y-114368000D02*
X134139547Y-114368000D01*
X123981600Y-90492000D02*
X128860453Y-90492000D01*
X134139547Y-90492000D02*
X140364600Y-90492000D01*
X140364600Y-90492000D02*
X140364600Y-114368000D01*
D12*
X131881000Y-116146000D02*
G75*
G03*
X131881000Y-116146000I-381000J0D01*
G01*
%TD*%
M02*
