G04 #@! TF.GenerationSoftware,KiCad,Pcbnew,7.0.8*
G04 #@! TF.CreationDate,2023-10-23T16:08:40-04:00*
G04 #@! TF.ProjectId,MCU+IMU,4d43552b-494d-4552-9e6b-696361645f70,rev?*
G04 #@! TF.SameCoordinates,Original*
G04 #@! TF.FileFunction,Soldermask,Bot*
G04 #@! TF.FilePolarity,Negative*
%FSLAX46Y46*%
G04 Gerber Fmt 4.6, Leading zero omitted, Abs format (unit mm)*
G04 Created by KiCad (PCBNEW 7.0.8) date 2023-10-23 16:08:40*
%MOMM*%
%LPD*%
G01*
G04 APERTURE LIST*
G04 Aperture macros list*
%AMRoundRect*
0 Rectangle with rounded corners*
0 $1 Rounding radius*
0 $2 $3 $4 $5 $6 $7 $8 $9 X,Y pos of 4 corners*
0 Add a 4 corners polygon primitive as box body*
4,1,4,$2,$3,$4,$5,$6,$7,$8,$9,$2,$3,0*
0 Add four circle primitives for the rounded corners*
1,1,$1+$1,$2,$3*
1,1,$1+$1,$4,$5*
1,1,$1+$1,$6,$7*
1,1,$1+$1,$8,$9*
0 Add four rect primitives between the rounded corners*
20,1,$1+$1,$2,$3,$4,$5,0*
20,1,$1+$1,$4,$5,$6,$7,0*
20,1,$1+$1,$6,$7,$8,$9,0*
20,1,$1+$1,$8,$9,$2,$3,0*%
G04 Aperture macros list end*
%ADD10C,1.300000*%
%ADD11R,1.300000X1.300000*%
%ADD12RoundRect,0.250000X-0.250000X-0.475000X0.250000X-0.475000X0.250000X0.475000X-0.250000X0.475000X0*%
%ADD13RoundRect,0.100000X0.100000X-0.130000X0.100000X0.130000X-0.100000X0.130000X-0.100000X-0.130000X0*%
%ADD14RoundRect,0.250000X-0.475000X0.250000X-0.475000X-0.250000X0.475000X-0.250000X0.475000X0.250000X0*%
%ADD15R,1.533400X0.305480*%
%ADD16R,1.533400X0.304800*%
%ADD17R,0.350480X1.533400*%
%ADD18R,1.533400X0.305048*%
%ADD19R,0.305048X1.533400*%
%ADD20RoundRect,0.250000X0.262500X0.450000X-0.262500X0.450000X-0.262500X-0.450000X0.262500X-0.450000X0*%
%ADD21RoundRect,0.250000X0.475000X-0.250000X0.475000X0.250000X-0.475000X0.250000X-0.475000X-0.250000X0*%
%ADD22RoundRect,0.250000X0.250000X0.475000X-0.250000X0.475000X-0.250000X-0.475000X0.250000X-0.475000X0*%
%ADD23R,0.700000X1.800000*%
%ADD24R,1.800000X0.700000*%
%ADD25RoundRect,0.250000X-0.262500X-0.450000X0.262500X-0.450000X0.262500X0.450000X-0.262500X0.450000X0*%
%ADD26C,0.800000*%
G04 APERTURE END LIST*
D10*
G04 #@! TO.C,J2*
X135750000Y-113500000D03*
X133750000Y-113500000D03*
X131750000Y-113500000D03*
D11*
X129750000Y-113500000D03*
G04 #@! TD*
G04 #@! TO.C,J1*
X135750000Y-92000000D03*
D10*
X133750000Y-92000000D03*
X131750000Y-92000000D03*
X129750000Y-92000000D03*
G04 #@! TD*
D12*
G04 #@! TO.C,C2*
X133750000Y-99000000D03*
X135650000Y-99000000D03*
G04 #@! TD*
D13*
G04 #@! TO.C,D1*
X126910700Y-105735789D03*
X126910700Y-105095789D03*
G04 #@! TD*
D14*
G04 #@! TO.C,C8*
X143160700Y-110185789D03*
X143160700Y-108285789D03*
G04 #@! TD*
D15*
G04 #@! TO.C,U1*
X141091800Y-110537700D03*
X141091800Y-111037826D03*
X141091800Y-111537952D03*
D16*
X141091800Y-112038078D03*
D17*
X139910826Y-112814989D03*
X139410700Y-112814989D03*
X138910574Y-112814989D03*
D18*
X137729600Y-112038078D03*
X137729600Y-111537952D03*
X137729600Y-111037826D03*
X137729600Y-110537700D03*
D19*
X138910574Y-109760789D03*
X139410700Y-109760789D03*
X139910826Y-109760789D03*
G04 #@! TD*
D20*
G04 #@! TO.C,R1*
X129750000Y-110750000D03*
X127925000Y-110750000D03*
G04 #@! TD*
D12*
G04 #@! TO.C,C5*
X135650000Y-97000000D03*
X133750000Y-97000000D03*
G04 #@! TD*
G04 #@! TO.C,C11*
X123685700Y-105760789D03*
X125585700Y-105760789D03*
G04 #@! TD*
D21*
G04 #@! TO.C,C1*
X134750000Y-102750000D03*
X134750000Y-100850000D03*
G04 #@! TD*
D12*
G04 #@! TO.C,C9*
X139100000Y-104500000D03*
X141000000Y-104500000D03*
G04 #@! TD*
D22*
G04 #@! TO.C,C10*
X136925000Y-116000000D03*
X135025000Y-116000000D03*
G04 #@! TD*
D14*
G04 #@! TO.C,C3*
X141000000Y-98850000D03*
X141000000Y-100750000D03*
G04 #@! TD*
D23*
G04 #@! TO.C,U3*
X121225700Y-94610789D03*
X122425700Y-94610789D03*
X123625700Y-94610789D03*
X124825700Y-94610789D03*
X126025700Y-94610789D03*
D24*
X127725700Y-96160789D03*
X127725700Y-97360789D03*
X127725700Y-98560789D03*
X127725700Y-99760789D03*
X127725700Y-100960789D03*
X127725700Y-102160789D03*
D23*
X126025700Y-103710789D03*
X124825700Y-103710789D03*
X123625700Y-103710789D03*
X122375700Y-103710789D03*
X121225700Y-103710789D03*
G04 #@! TD*
D22*
G04 #@! TO.C,C6*
X136250000Y-104500000D03*
X134350000Y-104500000D03*
G04 #@! TD*
D12*
G04 #@! TO.C,C4*
X128025000Y-108500000D03*
X129925000Y-108500000D03*
G04 #@! TD*
D25*
G04 #@! TO.C,R2*
X137910700Y-92260789D03*
X139735700Y-92260789D03*
G04 #@! TD*
D26*
X136000000Y-110000000D03*
X118500000Y-104500000D03*
X145250000Y-106000000D03*
X145732370Y-105060011D03*
X146000000Y-104149006D03*
X146000000Y-103199503D03*
X146000000Y-102250000D03*
X146039068Y-101166609D03*
X145822298Y-100242181D03*
X145550690Y-99332355D03*
X145052984Y-98523749D03*
X131000000Y-110250000D03*
X137250000Y-97250000D03*
X136000000Y-102000000D03*
X139500000Y-102500000D03*
X133311667Y-101390899D03*
X133374492Y-100328298D03*
X132500000Y-107000000D03*
X132750000Y-96000000D03*
X137750000Y-104000000D03*
X143250000Y-107250000D03*
X141750000Y-97000000D03*
X132148056Y-110148056D03*
X138660700Y-108510789D03*
X129410700Y-103260789D03*
X127000000Y-108000000D03*
X126750000Y-111750000D03*
X139801004Y-108395084D03*
X140720749Y-108786333D03*
X137660700Y-108510789D03*
X141160700Y-93760789D03*
X142910700Y-95510789D03*
X138410700Y-91260789D03*
M02*
