%TF.GenerationSoftware,KiCad,Pcbnew,7.0.8*%
%TF.CreationDate,2023-10-11T10:23:23-04:00*%
%TF.ProjectId,MCU+IMU,4d43552b-494d-4552-9e6b-696361645f70,rev?*%
%TF.SameCoordinates,Original*%
%TF.FileFunction,Legend,Bot*%
%TF.FilePolarity,Positive*%
%FSLAX46Y46*%
G04 Gerber Fmt 4.6, Leading zero omitted, Abs format (unit mm)*
G04 Created by KiCad (PCBNEW 7.0.8) date 2023-10-11 10:23:23*
%MOMM*%
%LPD*%
G01*
G04 APERTURE LIST*
%ADD10C,0.150000*%
%ADD11C,0.100000*%
%ADD12C,0.120000*%
%ADD13C,0.152400*%
G04 APERTURE END LIST*
D10*
X155393094Y-80754819D02*
X155393094Y-79754819D01*
X155393094Y-79754819D02*
X155154999Y-79754819D01*
X155154999Y-79754819D02*
X155012142Y-79802438D01*
X155012142Y-79802438D02*
X154916904Y-79897676D01*
X154916904Y-79897676D02*
X154869285Y-79992914D01*
X154869285Y-79992914D02*
X154821666Y-80183390D01*
X154821666Y-80183390D02*
X154821666Y-80326247D01*
X154821666Y-80326247D02*
X154869285Y-80516723D01*
X154869285Y-80516723D02*
X154916904Y-80611961D01*
X154916904Y-80611961D02*
X155012142Y-80707200D01*
X155012142Y-80707200D02*
X155154999Y-80754819D01*
X155154999Y-80754819D02*
X155393094Y-80754819D01*
X153869285Y-80754819D02*
X154440713Y-80754819D01*
X154154999Y-80754819D02*
X154154999Y-79754819D01*
X154154999Y-79754819D02*
X154250237Y-79897676D01*
X154250237Y-79897676D02*
X154345475Y-79992914D01*
X154345475Y-79992914D02*
X154440713Y-80040533D01*
X165704819Y-87203095D02*
X166514342Y-87203095D01*
X166514342Y-87203095D02*
X166609580Y-87250714D01*
X166609580Y-87250714D02*
X166657200Y-87298333D01*
X166657200Y-87298333D02*
X166704819Y-87393571D01*
X166704819Y-87393571D02*
X166704819Y-87584047D01*
X166704819Y-87584047D02*
X166657200Y-87679285D01*
X166657200Y-87679285D02*
X166609580Y-87726904D01*
X166609580Y-87726904D02*
X166514342Y-87774523D01*
X166514342Y-87774523D02*
X165704819Y-87774523D01*
X165704819Y-88155476D02*
X165704819Y-88774523D01*
X165704819Y-88774523D02*
X166085771Y-88441190D01*
X166085771Y-88441190D02*
X166085771Y-88584047D01*
X166085771Y-88584047D02*
X166133390Y-88679285D01*
X166133390Y-88679285D02*
X166181009Y-88726904D01*
X166181009Y-88726904D02*
X166276247Y-88774523D01*
X166276247Y-88774523D02*
X166514342Y-88774523D01*
X166514342Y-88774523D02*
X166609580Y-88726904D01*
X166609580Y-88726904D02*
X166657200Y-88679285D01*
X166657200Y-88679285D02*
X166704819Y-88584047D01*
X166704819Y-88584047D02*
X166704819Y-88298333D01*
X166704819Y-88298333D02*
X166657200Y-88203095D01*
X166657200Y-88203095D02*
X166609580Y-88155476D01*
X157867857Y-80279580D02*
X157915476Y-80327200D01*
X157915476Y-80327200D02*
X158058333Y-80374819D01*
X158058333Y-80374819D02*
X158153571Y-80374819D01*
X158153571Y-80374819D02*
X158296428Y-80327200D01*
X158296428Y-80327200D02*
X158391666Y-80231961D01*
X158391666Y-80231961D02*
X158439285Y-80136723D01*
X158439285Y-80136723D02*
X158486904Y-79946247D01*
X158486904Y-79946247D02*
X158486904Y-79803390D01*
X158486904Y-79803390D02*
X158439285Y-79612914D01*
X158439285Y-79612914D02*
X158391666Y-79517676D01*
X158391666Y-79517676D02*
X158296428Y-79422438D01*
X158296428Y-79422438D02*
X158153571Y-79374819D01*
X158153571Y-79374819D02*
X158058333Y-79374819D01*
X158058333Y-79374819D02*
X157915476Y-79422438D01*
X157915476Y-79422438D02*
X157867857Y-79470057D01*
X156915476Y-80374819D02*
X157486904Y-80374819D01*
X157201190Y-80374819D02*
X157201190Y-79374819D01*
X157201190Y-79374819D02*
X157296428Y-79517676D01*
X157296428Y-79517676D02*
X157391666Y-79612914D01*
X157391666Y-79612914D02*
X157486904Y-79660533D01*
X155963095Y-80374819D02*
X156534523Y-80374819D01*
X156248809Y-80374819D02*
X156248809Y-79374819D01*
X156248809Y-79374819D02*
X156344047Y-79517676D01*
X156344047Y-79517676D02*
X156439285Y-79612914D01*
X156439285Y-79612914D02*
X156534523Y-79660533D01*
X143834804Y-90454819D02*
X143834804Y-91264342D01*
X143834804Y-91264342D02*
X143787185Y-91359580D01*
X143787185Y-91359580D02*
X143739566Y-91407200D01*
X143739566Y-91407200D02*
X143644328Y-91454819D01*
X143644328Y-91454819D02*
X143453852Y-91454819D01*
X143453852Y-91454819D02*
X143358614Y-91407200D01*
X143358614Y-91407200D02*
X143310995Y-91359580D01*
X143310995Y-91359580D02*
X143263376Y-91264342D01*
X143263376Y-91264342D02*
X143263376Y-90454819D01*
X142263376Y-91454819D02*
X142834804Y-91454819D01*
X142549090Y-91454819D02*
X142549090Y-90454819D01*
X142549090Y-90454819D02*
X142644328Y-90597676D01*
X142644328Y-90597676D02*
X142739566Y-90692914D01*
X142739566Y-90692914D02*
X142834804Y-90740533D01*
X143642857Y-86359580D02*
X143690476Y-86407200D01*
X143690476Y-86407200D02*
X143833333Y-86454819D01*
X143833333Y-86454819D02*
X143928571Y-86454819D01*
X143928571Y-86454819D02*
X144071428Y-86407200D01*
X144071428Y-86407200D02*
X144166666Y-86311961D01*
X144166666Y-86311961D02*
X144214285Y-86216723D01*
X144214285Y-86216723D02*
X144261904Y-86026247D01*
X144261904Y-86026247D02*
X144261904Y-85883390D01*
X144261904Y-85883390D02*
X144214285Y-85692914D01*
X144214285Y-85692914D02*
X144166666Y-85597676D01*
X144166666Y-85597676D02*
X144071428Y-85502438D01*
X144071428Y-85502438D02*
X143928571Y-85454819D01*
X143928571Y-85454819D02*
X143833333Y-85454819D01*
X143833333Y-85454819D02*
X143690476Y-85502438D01*
X143690476Y-85502438D02*
X143642857Y-85550057D01*
X142690476Y-86454819D02*
X143261904Y-86454819D01*
X142976190Y-86454819D02*
X142976190Y-85454819D01*
X142976190Y-85454819D02*
X143071428Y-85597676D01*
X143071428Y-85597676D02*
X143166666Y-85692914D01*
X143166666Y-85692914D02*
X143261904Y-85740533D01*
X142071428Y-85454819D02*
X141976190Y-85454819D01*
X141976190Y-85454819D02*
X141880952Y-85502438D01*
X141880952Y-85502438D02*
X141833333Y-85550057D01*
X141833333Y-85550057D02*
X141785714Y-85645295D01*
X141785714Y-85645295D02*
X141738095Y-85835771D01*
X141738095Y-85835771D02*
X141738095Y-86073866D01*
X141738095Y-86073866D02*
X141785714Y-86264342D01*
X141785714Y-86264342D02*
X141833333Y-86359580D01*
X141833333Y-86359580D02*
X141880952Y-86407200D01*
X141880952Y-86407200D02*
X141976190Y-86454819D01*
X141976190Y-86454819D02*
X142071428Y-86454819D01*
X142071428Y-86454819D02*
X142166666Y-86407200D01*
X142166666Y-86407200D02*
X142214285Y-86359580D01*
X142214285Y-86359580D02*
X142261904Y-86264342D01*
X142261904Y-86264342D02*
X142309523Y-86073866D01*
X142309523Y-86073866D02*
X142309523Y-85835771D01*
X142309523Y-85835771D02*
X142261904Y-85645295D01*
X142261904Y-85645295D02*
X142214285Y-85550057D01*
X142214285Y-85550057D02*
X142166666Y-85502438D01*
X142166666Y-85502438D02*
X142071428Y-85454819D01*
X139542669Y-88652233D02*
X139590289Y-88604614D01*
X139590289Y-88604614D02*
X139637908Y-88461757D01*
X139637908Y-88461757D02*
X139637908Y-88366519D01*
X139637908Y-88366519D02*
X139590289Y-88223662D01*
X139590289Y-88223662D02*
X139495050Y-88128424D01*
X139495050Y-88128424D02*
X139399812Y-88080805D01*
X139399812Y-88080805D02*
X139209336Y-88033186D01*
X139209336Y-88033186D02*
X139066479Y-88033186D01*
X139066479Y-88033186D02*
X138876003Y-88080805D01*
X138876003Y-88080805D02*
X138780765Y-88128424D01*
X138780765Y-88128424D02*
X138685527Y-88223662D01*
X138685527Y-88223662D02*
X138637908Y-88366519D01*
X138637908Y-88366519D02*
X138637908Y-88461757D01*
X138637908Y-88461757D02*
X138685527Y-88604614D01*
X138685527Y-88604614D02*
X138733146Y-88652233D01*
X138637908Y-88985567D02*
X138637908Y-89652233D01*
X138637908Y-89652233D02*
X139637908Y-89223662D01*
X139182669Y-91172233D02*
X139230289Y-91124614D01*
X139230289Y-91124614D02*
X139277908Y-90981757D01*
X139277908Y-90981757D02*
X139277908Y-90886519D01*
X139277908Y-90886519D02*
X139230289Y-90743662D01*
X139230289Y-90743662D02*
X139135050Y-90648424D01*
X139135050Y-90648424D02*
X139039812Y-90600805D01*
X139039812Y-90600805D02*
X138849336Y-90553186D01*
X138849336Y-90553186D02*
X138706479Y-90553186D01*
X138706479Y-90553186D02*
X138516003Y-90600805D01*
X138516003Y-90600805D02*
X138420765Y-90648424D01*
X138420765Y-90648424D02*
X138325527Y-90743662D01*
X138325527Y-90743662D02*
X138277908Y-90886519D01*
X138277908Y-90886519D02*
X138277908Y-90981757D01*
X138277908Y-90981757D02*
X138325527Y-91124614D01*
X138325527Y-91124614D02*
X138373146Y-91172233D01*
X138706479Y-91743662D02*
X138658860Y-91648424D01*
X138658860Y-91648424D02*
X138611241Y-91600805D01*
X138611241Y-91600805D02*
X138516003Y-91553186D01*
X138516003Y-91553186D02*
X138468384Y-91553186D01*
X138468384Y-91553186D02*
X138373146Y-91600805D01*
X138373146Y-91600805D02*
X138325527Y-91648424D01*
X138325527Y-91648424D02*
X138277908Y-91743662D01*
X138277908Y-91743662D02*
X138277908Y-91934138D01*
X138277908Y-91934138D02*
X138325527Y-92029376D01*
X138325527Y-92029376D02*
X138373146Y-92076995D01*
X138373146Y-92076995D02*
X138468384Y-92124614D01*
X138468384Y-92124614D02*
X138516003Y-92124614D01*
X138516003Y-92124614D02*
X138611241Y-92076995D01*
X138611241Y-92076995D02*
X138658860Y-92029376D01*
X138658860Y-92029376D02*
X138706479Y-91934138D01*
X138706479Y-91934138D02*
X138706479Y-91743662D01*
X138706479Y-91743662D02*
X138754098Y-91648424D01*
X138754098Y-91648424D02*
X138801717Y-91600805D01*
X138801717Y-91600805D02*
X138896955Y-91553186D01*
X138896955Y-91553186D02*
X139087431Y-91553186D01*
X139087431Y-91553186D02*
X139182669Y-91600805D01*
X139182669Y-91600805D02*
X139230289Y-91648424D01*
X139230289Y-91648424D02*
X139277908Y-91743662D01*
X139277908Y-91743662D02*
X139277908Y-91934138D01*
X139277908Y-91934138D02*
X139230289Y-92029376D01*
X139230289Y-92029376D02*
X139182669Y-92076995D01*
X139182669Y-92076995D02*
X139087431Y-92124614D01*
X139087431Y-92124614D02*
X138896955Y-92124614D01*
X138896955Y-92124614D02*
X138801717Y-92076995D01*
X138801717Y-92076995D02*
X138754098Y-92029376D01*
X138754098Y-92029376D02*
X138706479Y-91934138D01*
D11*
%TO.C,D1*%
X155565000Y-81350000D02*
G75*
G03*
X155565000Y-81350000I-50000J0D01*
G01*
D12*
%TO.C,U3*%
X161050000Y-93100000D02*
X161050000Y-92700000D01*
X161050000Y-92700000D02*
X161350000Y-92700000D01*
%TO.C,C11*%
X157365580Y-81860000D02*
X157084420Y-81860000D01*
X157365580Y-80840000D02*
X157084420Y-80840000D01*
D13*
%TO.C,U1*%
X141650500Y-92676400D02*
X141650500Y-91894307D01*
X141928530Y-92676400D02*
X141650500Y-92676400D01*
X144495300Y-92676400D02*
X144217270Y-92676400D01*
X144495300Y-91894307D02*
X144495300Y-92676400D01*
X141650500Y-90105693D02*
X141650500Y-89323600D01*
X141650500Y-89323600D02*
X141928530Y-89323600D01*
X144217270Y-89323600D02*
X144495300Y-89323600D01*
X144495300Y-89323600D02*
X144495300Y-90105693D01*
G36*
X143513463Y-89298200D02*
G01*
X143132463Y-89298200D01*
X143132463Y-89044200D01*
X143513463Y-89044200D01*
X143513463Y-89298200D01*
G37*
D12*
%TO.C,C10*%
X142682509Y-87308900D02*
X142963669Y-87308900D01*
X142682509Y-88328900D02*
X142963669Y-88328900D01*
%TO.C,C7*%
X140703089Y-88711064D02*
X140703089Y-88926736D01*
X139983089Y-88711064D02*
X139983089Y-88926736D01*
%TO.C,C8*%
X139983089Y-91446736D02*
X139983089Y-91231064D01*
X140703089Y-91446736D02*
X140703089Y-91231064D01*
%TD*%
M02*
