%TF.GenerationSoftware,KiCad,Pcbnew,7.0.8*%
%TF.CreationDate,2023-10-11T10:23:23-04:00*%
%TF.ProjectId,MCU+IMU,4d43552b-494d-4552-9e6b-696361645f70,rev?*%
%TF.SameCoordinates,Original*%
%TF.FileFunction,Legend,Top*%
%TF.FilePolarity,Positive*%
%FSLAX46Y46*%
G04 Gerber Fmt 4.6, Leading zero omitted, Abs format (unit mm)*
G04 Created by KiCad (PCBNEW 7.0.8) date 2023-10-11 10:23:23*
%MOMM*%
%LPD*%
G01*
G04 APERTURE LIST*
%ADD10C,0.150000*%
%ADD11C,0.254000*%
%ADD12C,0.120000*%
%ADD13C,0.200000*%
%ADD14C,0.100000*%
G04 APERTURE END LIST*
D10*
X160359580Y-84166666D02*
X160407200Y-84214285D01*
X160407200Y-84214285D02*
X160454819Y-84357142D01*
X160454819Y-84357142D02*
X160454819Y-84452380D01*
X160454819Y-84452380D02*
X160407200Y-84595237D01*
X160407200Y-84595237D02*
X160311961Y-84690475D01*
X160311961Y-84690475D02*
X160216723Y-84738094D01*
X160216723Y-84738094D02*
X160026247Y-84785713D01*
X160026247Y-84785713D02*
X159883390Y-84785713D01*
X159883390Y-84785713D02*
X159692914Y-84738094D01*
X159692914Y-84738094D02*
X159597676Y-84690475D01*
X159597676Y-84690475D02*
X159502438Y-84595237D01*
X159502438Y-84595237D02*
X159454819Y-84452380D01*
X159454819Y-84452380D02*
X159454819Y-84357142D01*
X159454819Y-84357142D02*
X159502438Y-84214285D01*
X159502438Y-84214285D02*
X159550057Y-84166666D01*
X159788152Y-83309523D02*
X160454819Y-83309523D01*
X159407200Y-83547618D02*
X160121485Y-83785713D01*
X160121485Y-83785713D02*
X160121485Y-83166666D01*
X137199580Y-74686666D02*
X137247200Y-74734285D01*
X137247200Y-74734285D02*
X137294819Y-74877142D01*
X137294819Y-74877142D02*
X137294819Y-74972380D01*
X137294819Y-74972380D02*
X137247200Y-75115237D01*
X137247200Y-75115237D02*
X137151961Y-75210475D01*
X137151961Y-75210475D02*
X137056723Y-75258094D01*
X137056723Y-75258094D02*
X136866247Y-75305713D01*
X136866247Y-75305713D02*
X136723390Y-75305713D01*
X136723390Y-75305713D02*
X136532914Y-75258094D01*
X136532914Y-75258094D02*
X136437676Y-75210475D01*
X136437676Y-75210475D02*
X136342438Y-75115237D01*
X136342438Y-75115237D02*
X136294819Y-74972380D01*
X136294819Y-74972380D02*
X136294819Y-74877142D01*
X136294819Y-74877142D02*
X136342438Y-74734285D01*
X136342438Y-74734285D02*
X136390057Y-74686666D01*
X137294819Y-74210475D02*
X137294819Y-74019999D01*
X137294819Y-74019999D02*
X137247200Y-73924761D01*
X137247200Y-73924761D02*
X137199580Y-73877142D01*
X137199580Y-73877142D02*
X137056723Y-73781904D01*
X137056723Y-73781904D02*
X136866247Y-73734285D01*
X136866247Y-73734285D02*
X136485295Y-73734285D01*
X136485295Y-73734285D02*
X136390057Y-73781904D01*
X136390057Y-73781904D02*
X136342438Y-73829523D01*
X136342438Y-73829523D02*
X136294819Y-73924761D01*
X136294819Y-73924761D02*
X136294819Y-74115237D01*
X136294819Y-74115237D02*
X136342438Y-74210475D01*
X136342438Y-74210475D02*
X136390057Y-74258094D01*
X136390057Y-74258094D02*
X136485295Y-74305713D01*
X136485295Y-74305713D02*
X136723390Y-74305713D01*
X136723390Y-74305713D02*
X136818628Y-74258094D01*
X136818628Y-74258094D02*
X136866247Y-74210475D01*
X136866247Y-74210475D02*
X136913866Y-74115237D01*
X136913866Y-74115237D02*
X136913866Y-73924761D01*
X136913866Y-73924761D02*
X136866247Y-73829523D01*
X136866247Y-73829523D02*
X136818628Y-73781904D01*
X136818628Y-73781904D02*
X136723390Y-73734285D01*
X137238095Y-87454819D02*
X137238095Y-88264342D01*
X137238095Y-88264342D02*
X137285714Y-88359580D01*
X137285714Y-88359580D02*
X137333333Y-88407200D01*
X137333333Y-88407200D02*
X137428571Y-88454819D01*
X137428571Y-88454819D02*
X137619047Y-88454819D01*
X137619047Y-88454819D02*
X137714285Y-88407200D01*
X137714285Y-88407200D02*
X137761904Y-88359580D01*
X137761904Y-88359580D02*
X137809523Y-88264342D01*
X137809523Y-88264342D02*
X137809523Y-87454819D01*
X138714285Y-87788152D02*
X138714285Y-88454819D01*
X138476190Y-87407200D02*
X138238095Y-88121485D01*
X138238095Y-88121485D02*
X138857142Y-88121485D01*
X149833333Y-90359580D02*
X149785714Y-90407200D01*
X149785714Y-90407200D02*
X149642857Y-90454819D01*
X149642857Y-90454819D02*
X149547619Y-90454819D01*
X149547619Y-90454819D02*
X149404762Y-90407200D01*
X149404762Y-90407200D02*
X149309524Y-90311961D01*
X149309524Y-90311961D02*
X149261905Y-90216723D01*
X149261905Y-90216723D02*
X149214286Y-90026247D01*
X149214286Y-90026247D02*
X149214286Y-89883390D01*
X149214286Y-89883390D02*
X149261905Y-89692914D01*
X149261905Y-89692914D02*
X149309524Y-89597676D01*
X149309524Y-89597676D02*
X149404762Y-89502438D01*
X149404762Y-89502438D02*
X149547619Y-89454819D01*
X149547619Y-89454819D02*
X149642857Y-89454819D01*
X149642857Y-89454819D02*
X149785714Y-89502438D01*
X149785714Y-89502438D02*
X149833333Y-89550057D01*
X150166667Y-89454819D02*
X150785714Y-89454819D01*
X150785714Y-89454819D02*
X150452381Y-89835771D01*
X150452381Y-89835771D02*
X150595238Y-89835771D01*
X150595238Y-89835771D02*
X150690476Y-89883390D01*
X150690476Y-89883390D02*
X150738095Y-89931009D01*
X150738095Y-89931009D02*
X150785714Y-90026247D01*
X150785714Y-90026247D02*
X150785714Y-90264342D01*
X150785714Y-90264342D02*
X150738095Y-90359580D01*
X150738095Y-90359580D02*
X150690476Y-90407200D01*
X150690476Y-90407200D02*
X150595238Y-90454819D01*
X150595238Y-90454819D02*
X150309524Y-90454819D01*
X150309524Y-90454819D02*
X150214286Y-90407200D01*
X150214286Y-90407200D02*
X150166667Y-90359580D01*
X137877142Y-92359580D02*
X137829523Y-92407200D01*
X137829523Y-92407200D02*
X137686666Y-92454819D01*
X137686666Y-92454819D02*
X137591428Y-92454819D01*
X137591428Y-92454819D02*
X137448571Y-92407200D01*
X137448571Y-92407200D02*
X137353333Y-92311961D01*
X137353333Y-92311961D02*
X137305714Y-92216723D01*
X137305714Y-92216723D02*
X137258095Y-92026247D01*
X137258095Y-92026247D02*
X137258095Y-91883390D01*
X137258095Y-91883390D02*
X137305714Y-91692914D01*
X137305714Y-91692914D02*
X137353333Y-91597676D01*
X137353333Y-91597676D02*
X137448571Y-91502438D01*
X137448571Y-91502438D02*
X137591428Y-91454819D01*
X137591428Y-91454819D02*
X137686666Y-91454819D01*
X137686666Y-91454819D02*
X137829523Y-91502438D01*
X137829523Y-91502438D02*
X137877142Y-91550057D01*
X138829523Y-92454819D02*
X138258095Y-92454819D01*
X138543809Y-92454819D02*
X138543809Y-91454819D01*
X138543809Y-91454819D02*
X138448571Y-91597676D01*
X138448571Y-91597676D02*
X138353333Y-91692914D01*
X138353333Y-91692914D02*
X138258095Y-91740533D01*
X139210476Y-91550057D02*
X139258095Y-91502438D01*
X139258095Y-91502438D02*
X139353333Y-91454819D01*
X139353333Y-91454819D02*
X139591428Y-91454819D01*
X139591428Y-91454819D02*
X139686666Y-91502438D01*
X139686666Y-91502438D02*
X139734285Y-91550057D01*
X139734285Y-91550057D02*
X139781904Y-91645295D01*
X139781904Y-91645295D02*
X139781904Y-91740533D01*
X139781904Y-91740533D02*
X139734285Y-91883390D01*
X139734285Y-91883390D02*
X139162857Y-92454819D01*
X139162857Y-92454819D02*
X139781904Y-92454819D01*
X145833333Y-71454819D02*
X145500000Y-70978628D01*
X145261905Y-71454819D02*
X145261905Y-70454819D01*
X145261905Y-70454819D02*
X145642857Y-70454819D01*
X145642857Y-70454819D02*
X145738095Y-70502438D01*
X145738095Y-70502438D02*
X145785714Y-70550057D01*
X145785714Y-70550057D02*
X145833333Y-70645295D01*
X145833333Y-70645295D02*
X145833333Y-70788152D01*
X145833333Y-70788152D02*
X145785714Y-70883390D01*
X145785714Y-70883390D02*
X145738095Y-70931009D01*
X145738095Y-70931009D02*
X145642857Y-70978628D01*
X145642857Y-70978628D02*
X145261905Y-70978628D01*
X146214286Y-70550057D02*
X146261905Y-70502438D01*
X146261905Y-70502438D02*
X146357143Y-70454819D01*
X146357143Y-70454819D02*
X146595238Y-70454819D01*
X146595238Y-70454819D02*
X146690476Y-70502438D01*
X146690476Y-70502438D02*
X146738095Y-70550057D01*
X146738095Y-70550057D02*
X146785714Y-70645295D01*
X146785714Y-70645295D02*
X146785714Y-70740533D01*
X146785714Y-70740533D02*
X146738095Y-70883390D01*
X146738095Y-70883390D02*
X146166667Y-71454819D01*
X146166667Y-71454819D02*
X146785714Y-71454819D01*
X155833333Y-71359580D02*
X155785714Y-71407200D01*
X155785714Y-71407200D02*
X155642857Y-71454819D01*
X155642857Y-71454819D02*
X155547619Y-71454819D01*
X155547619Y-71454819D02*
X155404762Y-71407200D01*
X155404762Y-71407200D02*
X155309524Y-71311961D01*
X155309524Y-71311961D02*
X155261905Y-71216723D01*
X155261905Y-71216723D02*
X155214286Y-71026247D01*
X155214286Y-71026247D02*
X155214286Y-70883390D01*
X155214286Y-70883390D02*
X155261905Y-70692914D01*
X155261905Y-70692914D02*
X155309524Y-70597676D01*
X155309524Y-70597676D02*
X155404762Y-70502438D01*
X155404762Y-70502438D02*
X155547619Y-70454819D01*
X155547619Y-70454819D02*
X155642857Y-70454819D01*
X155642857Y-70454819D02*
X155785714Y-70502438D01*
X155785714Y-70502438D02*
X155833333Y-70550057D01*
X156785714Y-71454819D02*
X156214286Y-71454819D01*
X156500000Y-71454819D02*
X156500000Y-70454819D01*
X156500000Y-70454819D02*
X156404762Y-70597676D01*
X156404762Y-70597676D02*
X156309524Y-70692914D01*
X156309524Y-70692914D02*
X156214286Y-70740533D01*
X154745833Y-81804819D02*
X154412500Y-81328628D01*
X154174405Y-81804819D02*
X154174405Y-80804819D01*
X154174405Y-80804819D02*
X154555357Y-80804819D01*
X154555357Y-80804819D02*
X154650595Y-80852438D01*
X154650595Y-80852438D02*
X154698214Y-80900057D01*
X154698214Y-80900057D02*
X154745833Y-80995295D01*
X154745833Y-80995295D02*
X154745833Y-81138152D01*
X154745833Y-81138152D02*
X154698214Y-81233390D01*
X154698214Y-81233390D02*
X154650595Y-81281009D01*
X154650595Y-81281009D02*
X154555357Y-81328628D01*
X154555357Y-81328628D02*
X154174405Y-81328628D01*
X155698214Y-81804819D02*
X155126786Y-81804819D01*
X155412500Y-81804819D02*
X155412500Y-80804819D01*
X155412500Y-80804819D02*
X155317262Y-80947676D01*
X155317262Y-80947676D02*
X155222024Y-81042914D01*
X155222024Y-81042914D02*
X155126786Y-81090533D01*
X139353333Y-71199580D02*
X139305714Y-71247200D01*
X139305714Y-71247200D02*
X139162857Y-71294819D01*
X139162857Y-71294819D02*
X139067619Y-71294819D01*
X139067619Y-71294819D02*
X138924762Y-71247200D01*
X138924762Y-71247200D02*
X138829524Y-71151961D01*
X138829524Y-71151961D02*
X138781905Y-71056723D01*
X138781905Y-71056723D02*
X138734286Y-70866247D01*
X138734286Y-70866247D02*
X138734286Y-70723390D01*
X138734286Y-70723390D02*
X138781905Y-70532914D01*
X138781905Y-70532914D02*
X138829524Y-70437676D01*
X138829524Y-70437676D02*
X138924762Y-70342438D01*
X138924762Y-70342438D02*
X139067619Y-70294819D01*
X139067619Y-70294819D02*
X139162857Y-70294819D01*
X139162857Y-70294819D02*
X139305714Y-70342438D01*
X139305714Y-70342438D02*
X139353333Y-70390057D01*
X139734286Y-70390057D02*
X139781905Y-70342438D01*
X139781905Y-70342438D02*
X139877143Y-70294819D01*
X139877143Y-70294819D02*
X140115238Y-70294819D01*
X140115238Y-70294819D02*
X140210476Y-70342438D01*
X140210476Y-70342438D02*
X140258095Y-70390057D01*
X140258095Y-70390057D02*
X140305714Y-70485295D01*
X140305714Y-70485295D02*
X140305714Y-70580533D01*
X140305714Y-70580533D02*
X140258095Y-70723390D01*
X140258095Y-70723390D02*
X139686667Y-71294819D01*
X139686667Y-71294819D02*
X140305714Y-71294819D01*
X159407200Y-91333332D02*
X159454819Y-91190475D01*
X159454819Y-91190475D02*
X159454819Y-90952380D01*
X159454819Y-90952380D02*
X159407200Y-90857142D01*
X159407200Y-90857142D02*
X159359580Y-90809523D01*
X159359580Y-90809523D02*
X159264342Y-90761904D01*
X159264342Y-90761904D02*
X159169104Y-90761904D01*
X159169104Y-90761904D02*
X159073866Y-90809523D01*
X159073866Y-90809523D02*
X159026247Y-90857142D01*
X159026247Y-90857142D02*
X158978628Y-90952380D01*
X158978628Y-90952380D02*
X158931009Y-91142856D01*
X158931009Y-91142856D02*
X158883390Y-91238094D01*
X158883390Y-91238094D02*
X158835771Y-91285713D01*
X158835771Y-91285713D02*
X158740533Y-91333332D01*
X158740533Y-91333332D02*
X158645295Y-91333332D01*
X158645295Y-91333332D02*
X158550057Y-91285713D01*
X158550057Y-91285713D02*
X158502438Y-91238094D01*
X158502438Y-91238094D02*
X158454819Y-91142856D01*
X158454819Y-91142856D02*
X158454819Y-90904761D01*
X158454819Y-90904761D02*
X158502438Y-90761904D01*
X158454819Y-90428570D02*
X159454819Y-90190475D01*
X159454819Y-90190475D02*
X158740533Y-89999999D01*
X158740533Y-89999999D02*
X159454819Y-89809523D01*
X159454819Y-89809523D02*
X158454819Y-89571428D01*
X159454819Y-88666666D02*
X159454819Y-89238094D01*
X159454819Y-88952380D02*
X158454819Y-88952380D01*
X158454819Y-88952380D02*
X158597676Y-89047618D01*
X158597676Y-89047618D02*
X158692914Y-89142856D01*
X158692914Y-89142856D02*
X158740533Y-89238094D01*
X142353333Y-88519580D02*
X142305714Y-88567200D01*
X142305714Y-88567200D02*
X142162857Y-88614819D01*
X142162857Y-88614819D02*
X142067619Y-88614819D01*
X142067619Y-88614819D02*
X141924762Y-88567200D01*
X141924762Y-88567200D02*
X141829524Y-88471961D01*
X141829524Y-88471961D02*
X141781905Y-88376723D01*
X141781905Y-88376723D02*
X141734286Y-88186247D01*
X141734286Y-88186247D02*
X141734286Y-88043390D01*
X141734286Y-88043390D02*
X141781905Y-87852914D01*
X141781905Y-87852914D02*
X141829524Y-87757676D01*
X141829524Y-87757676D02*
X141924762Y-87662438D01*
X141924762Y-87662438D02*
X142067619Y-87614819D01*
X142067619Y-87614819D02*
X142162857Y-87614819D01*
X142162857Y-87614819D02*
X142305714Y-87662438D01*
X142305714Y-87662438D02*
X142353333Y-87710057D01*
X143258095Y-87614819D02*
X142781905Y-87614819D01*
X142781905Y-87614819D02*
X142734286Y-88091009D01*
X142734286Y-88091009D02*
X142781905Y-88043390D01*
X142781905Y-88043390D02*
X142877143Y-87995771D01*
X142877143Y-87995771D02*
X143115238Y-87995771D01*
X143115238Y-87995771D02*
X143210476Y-88043390D01*
X143210476Y-88043390D02*
X143258095Y-88091009D01*
X143258095Y-88091009D02*
X143305714Y-88186247D01*
X143305714Y-88186247D02*
X143305714Y-88424342D01*
X143305714Y-88424342D02*
X143258095Y-88519580D01*
X143258095Y-88519580D02*
X143210476Y-88567200D01*
X143210476Y-88567200D02*
X143115238Y-88614819D01*
X143115238Y-88614819D02*
X142877143Y-88614819D01*
X142877143Y-88614819D02*
X142781905Y-88567200D01*
X142781905Y-88567200D02*
X142734286Y-88519580D01*
X137199580Y-80646666D02*
X137247200Y-80694285D01*
X137247200Y-80694285D02*
X137294819Y-80837142D01*
X137294819Y-80837142D02*
X137294819Y-80932380D01*
X137294819Y-80932380D02*
X137247200Y-81075237D01*
X137247200Y-81075237D02*
X137151961Y-81170475D01*
X137151961Y-81170475D02*
X137056723Y-81218094D01*
X137056723Y-81218094D02*
X136866247Y-81265713D01*
X136866247Y-81265713D02*
X136723390Y-81265713D01*
X136723390Y-81265713D02*
X136532914Y-81218094D01*
X136532914Y-81218094D02*
X136437676Y-81170475D01*
X136437676Y-81170475D02*
X136342438Y-81075237D01*
X136342438Y-81075237D02*
X136294819Y-80932380D01*
X136294819Y-80932380D02*
X136294819Y-80837142D01*
X136294819Y-80837142D02*
X136342438Y-80694285D01*
X136342438Y-80694285D02*
X136390057Y-80646666D01*
X136294819Y-79789523D02*
X136294819Y-79979999D01*
X136294819Y-79979999D02*
X136342438Y-80075237D01*
X136342438Y-80075237D02*
X136390057Y-80122856D01*
X136390057Y-80122856D02*
X136532914Y-80218094D01*
X136532914Y-80218094D02*
X136723390Y-80265713D01*
X136723390Y-80265713D02*
X137104342Y-80265713D01*
X137104342Y-80265713D02*
X137199580Y-80218094D01*
X137199580Y-80218094D02*
X137247200Y-80170475D01*
X137247200Y-80170475D02*
X137294819Y-80075237D01*
X137294819Y-80075237D02*
X137294819Y-79884761D01*
X137294819Y-79884761D02*
X137247200Y-79789523D01*
X137247200Y-79789523D02*
X137199580Y-79741904D01*
X137199580Y-79741904D02*
X137104342Y-79694285D01*
X137104342Y-79694285D02*
X136866247Y-79694285D01*
X136866247Y-79694285D02*
X136771009Y-79741904D01*
X136771009Y-79741904D02*
X136723390Y-79789523D01*
X136723390Y-79789523D02*
X136675771Y-79884761D01*
X136675771Y-79884761D02*
X136675771Y-80075237D01*
X136675771Y-80075237D02*
X136723390Y-80170475D01*
X136723390Y-80170475D02*
X136771009Y-80218094D01*
X136771009Y-80218094D02*
X136866247Y-80265713D01*
X149238095Y-71054819D02*
X149238095Y-71864342D01*
X149238095Y-71864342D02*
X149285714Y-71959580D01*
X149285714Y-71959580D02*
X149333333Y-72007200D01*
X149333333Y-72007200D02*
X149428571Y-72054819D01*
X149428571Y-72054819D02*
X149619047Y-72054819D01*
X149619047Y-72054819D02*
X149714285Y-72007200D01*
X149714285Y-72007200D02*
X149761904Y-71959580D01*
X149761904Y-71959580D02*
X149809523Y-71864342D01*
X149809523Y-71864342D02*
X149809523Y-71054819D01*
X150238095Y-71150057D02*
X150285714Y-71102438D01*
X150285714Y-71102438D02*
X150380952Y-71054819D01*
X150380952Y-71054819D02*
X150619047Y-71054819D01*
X150619047Y-71054819D02*
X150714285Y-71102438D01*
X150714285Y-71102438D02*
X150761904Y-71150057D01*
X150761904Y-71150057D02*
X150809523Y-71245295D01*
X150809523Y-71245295D02*
X150809523Y-71340533D01*
X150809523Y-71340533D02*
X150761904Y-71483390D01*
X150761904Y-71483390D02*
X150190476Y-72054819D01*
X150190476Y-72054819D02*
X150809523Y-72054819D01*
D11*
X157304318Y-76423332D02*
X158211461Y-76423332D01*
X158211461Y-76423332D02*
X158392889Y-76483809D01*
X158392889Y-76483809D02*
X158513842Y-76604761D01*
X158513842Y-76604761D02*
X158574318Y-76786190D01*
X158574318Y-76786190D02*
X158574318Y-76907142D01*
X158574318Y-75153332D02*
X158574318Y-75879047D01*
X158574318Y-75516190D02*
X157304318Y-75516190D01*
X157304318Y-75516190D02*
X157485746Y-75637142D01*
X157485746Y-75637142D02*
X157606699Y-75758094D01*
X157606699Y-75758094D02*
X157667175Y-75879047D01*
D12*
%TO.C,C4*%
X158412164Y-82640000D02*
X158627836Y-82640000D01*
X158412164Y-83360000D02*
X158627836Y-83360000D01*
%TO.C,C9*%
X137640000Y-74627836D02*
X137640000Y-74412164D01*
X138360000Y-74627836D02*
X138360000Y-74412164D01*
%TO.C,U4*%
X138680000Y-84840000D02*
X137270000Y-84840000D01*
X137270000Y-87160000D02*
X139300000Y-87160000D01*
X137270000Y-87160000D02*
X137270000Y-86500000D01*
X137270000Y-85500000D02*
X137270000Y-84840000D01*
%TO.C,C3*%
X150587836Y-87360000D02*
X150372164Y-87360000D01*
X150587836Y-86640000D02*
X150372164Y-86640000D01*
%TO.C,C12*%
X138627836Y-90360000D02*
X138412164Y-90360000D01*
X138627836Y-89640000D02*
X138412164Y-89640000D01*
%TO.C,R2*%
X143227064Y-71735000D02*
X142772936Y-71735000D01*
X143227064Y-70265000D02*
X142772936Y-70265000D01*
%TO.C,C1*%
X154510000Y-72084420D02*
X154510000Y-72365580D01*
X153490000Y-72084420D02*
X153490000Y-72365580D01*
%TO.C,R1*%
X154685436Y-82265000D02*
X155139564Y-82265000D01*
X154685436Y-83735000D02*
X155139564Y-83735000D01*
%TO.C,C2*%
X139412164Y-71640000D02*
X139627836Y-71640000D01*
X139412164Y-72360000D02*
X139627836Y-72360000D01*
%TO.C,SW1*%
X151700000Y-94100000D02*
X151700000Y-93100000D01*
X152700000Y-94100000D02*
X151700000Y-94100000D01*
X153700000Y-92100000D02*
X156300000Y-92100000D01*
X151750000Y-86100000D02*
X151750000Y-91900000D01*
X158250000Y-86000000D02*
X158250000Y-92000000D01*
X153700000Y-85900000D02*
X156300000Y-85900000D01*
%TO.C,C5*%
X142627836Y-87360000D02*
X142412164Y-87360000D01*
X142627836Y-86640000D02*
X142412164Y-86640000D01*
%TO.C,C6*%
X137640000Y-80587836D02*
X137640000Y-80372164D01*
X138360000Y-80587836D02*
X138360000Y-80372164D01*
%TO.C,U2*%
X140890000Y-73890000D02*
X140890000Y-74840000D01*
X140890000Y-74840000D02*
X139550000Y-74840000D01*
X140890000Y-84110000D02*
X140890000Y-83160000D01*
X141840000Y-73890000D02*
X140890000Y-73890000D01*
X141840000Y-84110000D02*
X140890000Y-84110000D01*
X150160000Y-73890000D02*
X151110000Y-73890000D01*
X150160000Y-84110000D02*
X151110000Y-84110000D01*
X151110000Y-73890000D02*
X151110000Y-74840000D01*
X151110000Y-84110000D02*
X151110000Y-83160000D01*
D13*
%TO.C,J1*%
X157000000Y-80000000D02*
X157000000Y-72000000D01*
X159000000Y-80000000D02*
X157000000Y-80000000D01*
X157000000Y-72000000D02*
X159000000Y-72000000D01*
X159000000Y-72000000D02*
X159000000Y-80000000D01*
D14*
X158000000Y-71500000D02*
X158000000Y-71500000D01*
X158000000Y-71400000D02*
X158000000Y-71400000D01*
X158000000Y-71400000D02*
G75*
G03*
X158000000Y-71500000I0J-50000D01*
G01*
X158000000Y-71500000D02*
G75*
G03*
X158000000Y-71400000I0J50000D01*
G01*
%TD*%
M02*
