M48
; DRILL file {KiCad 7.0.8} date 2023 October 23, Monday 16:08:49
; FORMAT={2:4/ absolute / inch / suppress leading zeros}
; #@! TF.CreationDate,2023-10-23T16:08:49-04:00
; #@! TF.GenerationSoftware,Kicad,Pcbnew,7.0.8
; #@! TF.FileFunction,Plated,1,2,PTH
FMAT,2
INCH,TZ
; #@! TA.AperFunction,Plated,PTH,ViaDrill
T1C0.0157
; #@! TA.AperFunction,Plated,PTH,ComponentDrill
T2C0.0315
%
G90
G05
T1
X46654Y-41142
X49902Y-43996
X50000Y-42520
X50949Y-40654
X51575Y-43406
X52027Y-43365
X52165Y-42126
X52264Y-37795
X52485Y-39918
X52510Y-39499
X53543Y-40157
X53543Y-43307
X54035Y-38287
X54197Y-42721
X54232Y-40945
X54492Y-35929
X54591Y-42721
X54921Y-40354
X55040Y-42675
X55402Y-42829
X55575Y-36914
X55807Y-38189
X56264Y-37603
X56398Y-42224
X57107Y-38789
X57185Y-41732
X57303Y-39107
X57375Y-41362
X57410Y-39465
X57480Y-40256
X57480Y-40630
X57480Y-41004
X57496Y-39829
T2
X51083Y-36220
X51083Y-44685
X51870Y-36220
X51870Y-44685
X52657Y-36220
X52657Y-44685
X53445Y-36220
X53445Y-44685
T0
M30
