G04 #@! TF.GenerationSoftware,KiCad,Pcbnew,7.0.8*
G04 #@! TF.CreationDate,2023-10-23T16:08:40-04:00*
G04 #@! TF.ProjectId,MCU+IMU,4d43552b-494d-4552-9e6b-696361645f70,rev?*
G04 #@! TF.SameCoordinates,Original*
G04 #@! TF.FileFunction,Legend,Bot*
G04 #@! TF.FilePolarity,Positive*
%FSLAX46Y46*%
G04 Gerber Fmt 4.6, Leading zero omitted, Abs format (unit mm)*
G04 Created by KiCad (PCBNEW 7.0.8) date 2023-10-23 16:08:40*
%MOMM*%
%LPD*%
G01*
G04 APERTURE LIST*
%ADD10C,0.150000*%
%ADD11C,0.120000*%
%ADD12C,0.100000*%
%ADD13C,0.152400*%
G04 APERTURE END LIST*
D10*
X132166666Y-97609580D02*
X132214285Y-97657200D01*
X132214285Y-97657200D02*
X132357142Y-97704819D01*
X132357142Y-97704819D02*
X132452380Y-97704819D01*
X132452380Y-97704819D02*
X132595237Y-97657200D01*
X132595237Y-97657200D02*
X132690475Y-97561961D01*
X132690475Y-97561961D02*
X132738094Y-97466723D01*
X132738094Y-97466723D02*
X132785713Y-97276247D01*
X132785713Y-97276247D02*
X132785713Y-97133390D01*
X132785713Y-97133390D02*
X132738094Y-96942914D01*
X132738094Y-96942914D02*
X132690475Y-96847676D01*
X132690475Y-96847676D02*
X132595237Y-96752438D01*
X132595237Y-96752438D02*
X132452380Y-96704819D01*
X132452380Y-96704819D02*
X132357142Y-96704819D01*
X132357142Y-96704819D02*
X132214285Y-96752438D01*
X132214285Y-96752438D02*
X132166666Y-96800057D01*
X131785713Y-96800057D02*
X131738094Y-96752438D01*
X131738094Y-96752438D02*
X131642856Y-96704819D01*
X131642856Y-96704819D02*
X131404761Y-96704819D01*
X131404761Y-96704819D02*
X131309523Y-96752438D01*
X131309523Y-96752438D02*
X131261904Y-96800057D01*
X131261904Y-96800057D02*
X131214285Y-96895295D01*
X131214285Y-96895295D02*
X131214285Y-96990533D01*
X131214285Y-96990533D02*
X131261904Y-97133390D01*
X131261904Y-97133390D02*
X131833332Y-97704819D01*
X131833332Y-97704819D02*
X131214285Y-97704819D01*
X129454819Y-104677694D02*
X128454819Y-104677694D01*
X128454819Y-104677694D02*
X128454819Y-104915789D01*
X128454819Y-104915789D02*
X128502438Y-105058646D01*
X128502438Y-105058646D02*
X128597676Y-105153884D01*
X128597676Y-105153884D02*
X128692914Y-105201503D01*
X128692914Y-105201503D02*
X128883390Y-105249122D01*
X128883390Y-105249122D02*
X129026247Y-105249122D01*
X129026247Y-105249122D02*
X129216723Y-105201503D01*
X129216723Y-105201503D02*
X129311961Y-105153884D01*
X129311961Y-105153884D02*
X129407200Y-105058646D01*
X129407200Y-105058646D02*
X129454819Y-104915789D01*
X129454819Y-104915789D02*
X129454819Y-104677694D01*
X129454819Y-106201503D02*
X129454819Y-105630075D01*
X129454819Y-105915789D02*
X128454819Y-105915789D01*
X128454819Y-105915789D02*
X128597676Y-105820551D01*
X128597676Y-105820551D02*
X128692914Y-105725313D01*
X128692914Y-105725313D02*
X128740533Y-105630075D01*
X142609580Y-106083333D02*
X142657200Y-106035714D01*
X142657200Y-106035714D02*
X142704819Y-105892857D01*
X142704819Y-105892857D02*
X142704819Y-105797619D01*
X142704819Y-105797619D02*
X142657200Y-105654762D01*
X142657200Y-105654762D02*
X142561961Y-105559524D01*
X142561961Y-105559524D02*
X142466723Y-105511905D01*
X142466723Y-105511905D02*
X142276247Y-105464286D01*
X142276247Y-105464286D02*
X142133390Y-105464286D01*
X142133390Y-105464286D02*
X141942914Y-105511905D01*
X141942914Y-105511905D02*
X141847676Y-105559524D01*
X141847676Y-105559524D02*
X141752438Y-105654762D01*
X141752438Y-105654762D02*
X141704819Y-105797619D01*
X141704819Y-105797619D02*
X141704819Y-105892857D01*
X141704819Y-105892857D02*
X141752438Y-106035714D01*
X141752438Y-106035714D02*
X141800057Y-106083333D01*
X142133390Y-106654762D02*
X142085771Y-106559524D01*
X142085771Y-106559524D02*
X142038152Y-106511905D01*
X142038152Y-106511905D02*
X141942914Y-106464286D01*
X141942914Y-106464286D02*
X141895295Y-106464286D01*
X141895295Y-106464286D02*
X141800057Y-106511905D01*
X141800057Y-106511905D02*
X141752438Y-106559524D01*
X141752438Y-106559524D02*
X141704819Y-106654762D01*
X141704819Y-106654762D02*
X141704819Y-106845238D01*
X141704819Y-106845238D02*
X141752438Y-106940476D01*
X141752438Y-106940476D02*
X141800057Y-106988095D01*
X141800057Y-106988095D02*
X141895295Y-107035714D01*
X141895295Y-107035714D02*
X141942914Y-107035714D01*
X141942914Y-107035714D02*
X142038152Y-106988095D01*
X142038152Y-106988095D02*
X142085771Y-106940476D01*
X142085771Y-106940476D02*
X142133390Y-106845238D01*
X142133390Y-106845238D02*
X142133390Y-106654762D01*
X142133390Y-106654762D02*
X142181009Y-106559524D01*
X142181009Y-106559524D02*
X142228628Y-106511905D01*
X142228628Y-106511905D02*
X142323866Y-106464286D01*
X142323866Y-106464286D02*
X142514342Y-106464286D01*
X142514342Y-106464286D02*
X142609580Y-106511905D01*
X142609580Y-106511905D02*
X142657200Y-106559524D01*
X142657200Y-106559524D02*
X142704819Y-106654762D01*
X142704819Y-106654762D02*
X142704819Y-106845238D01*
X142704819Y-106845238D02*
X142657200Y-106940476D01*
X142657200Y-106940476D02*
X142609580Y-106988095D01*
X142609580Y-106988095D02*
X142514342Y-107035714D01*
X142514342Y-107035714D02*
X142323866Y-107035714D01*
X142323866Y-107035714D02*
X142228628Y-106988095D01*
X142228628Y-106988095D02*
X142181009Y-106940476D01*
X142181009Y-106940476D02*
X142133390Y-106845238D01*
X140172604Y-110742708D02*
X140172604Y-111552231D01*
X140172604Y-111552231D02*
X140124985Y-111647469D01*
X140124985Y-111647469D02*
X140077366Y-111695089D01*
X140077366Y-111695089D02*
X139982128Y-111742708D01*
X139982128Y-111742708D02*
X139791652Y-111742708D01*
X139791652Y-111742708D02*
X139696414Y-111695089D01*
X139696414Y-111695089D02*
X139648795Y-111647469D01*
X139648795Y-111647469D02*
X139601176Y-111552231D01*
X139601176Y-111552231D02*
X139601176Y-110742708D01*
X138601176Y-111742708D02*
X139172604Y-111742708D01*
X138886890Y-111742708D02*
X138886890Y-110742708D01*
X138886890Y-110742708D02*
X138982128Y-110885565D01*
X138982128Y-110885565D02*
X139077366Y-110980803D01*
X139077366Y-110980803D02*
X139172604Y-111028422D01*
X127166666Y-113954819D02*
X127499999Y-113478628D01*
X127738094Y-113954819D02*
X127738094Y-112954819D01*
X127738094Y-112954819D02*
X127357142Y-112954819D01*
X127357142Y-112954819D02*
X127261904Y-113002438D01*
X127261904Y-113002438D02*
X127214285Y-113050057D01*
X127214285Y-113050057D02*
X127166666Y-113145295D01*
X127166666Y-113145295D02*
X127166666Y-113288152D01*
X127166666Y-113288152D02*
X127214285Y-113383390D01*
X127214285Y-113383390D02*
X127261904Y-113431009D01*
X127261904Y-113431009D02*
X127357142Y-113478628D01*
X127357142Y-113478628D02*
X127738094Y-113478628D01*
X126214285Y-113954819D02*
X126785713Y-113954819D01*
X126499999Y-113954819D02*
X126499999Y-112954819D01*
X126499999Y-112954819D02*
X126595237Y-113097676D01*
X126595237Y-113097676D02*
X126690475Y-113192914D01*
X126690475Y-113192914D02*
X126785713Y-113240533D01*
X137416666Y-96609580D02*
X137464285Y-96657200D01*
X137464285Y-96657200D02*
X137607142Y-96704819D01*
X137607142Y-96704819D02*
X137702380Y-96704819D01*
X137702380Y-96704819D02*
X137845237Y-96657200D01*
X137845237Y-96657200D02*
X137940475Y-96561961D01*
X137940475Y-96561961D02*
X137988094Y-96466723D01*
X137988094Y-96466723D02*
X138035713Y-96276247D01*
X138035713Y-96276247D02*
X138035713Y-96133390D01*
X138035713Y-96133390D02*
X137988094Y-95942914D01*
X137988094Y-95942914D02*
X137940475Y-95847676D01*
X137940475Y-95847676D02*
X137845237Y-95752438D01*
X137845237Y-95752438D02*
X137702380Y-95704819D01*
X137702380Y-95704819D02*
X137607142Y-95704819D01*
X137607142Y-95704819D02*
X137464285Y-95752438D01*
X137464285Y-95752438D02*
X137416666Y-95800057D01*
X136511904Y-95704819D02*
X136988094Y-95704819D01*
X136988094Y-95704819D02*
X137035713Y-96181009D01*
X137035713Y-96181009D02*
X136988094Y-96133390D01*
X136988094Y-96133390D02*
X136892856Y-96085771D01*
X136892856Y-96085771D02*
X136654761Y-96085771D01*
X136654761Y-96085771D02*
X136559523Y-96133390D01*
X136559523Y-96133390D02*
X136511904Y-96181009D01*
X136511904Y-96181009D02*
X136464285Y-96276247D01*
X136464285Y-96276247D02*
X136464285Y-96514342D01*
X136464285Y-96514342D02*
X136511904Y-96609580D01*
X136511904Y-96609580D02*
X136559523Y-96657200D01*
X136559523Y-96657200D02*
X136654761Y-96704819D01*
X136654761Y-96704819D02*
X136892856Y-96704819D01*
X136892856Y-96704819D02*
X136988094Y-96657200D01*
X136988094Y-96657200D02*
X137035713Y-96609580D01*
X125892857Y-107800369D02*
X125940476Y-107847989D01*
X125940476Y-107847989D02*
X126083333Y-107895608D01*
X126083333Y-107895608D02*
X126178571Y-107895608D01*
X126178571Y-107895608D02*
X126321428Y-107847989D01*
X126321428Y-107847989D02*
X126416666Y-107752750D01*
X126416666Y-107752750D02*
X126464285Y-107657512D01*
X126464285Y-107657512D02*
X126511904Y-107467036D01*
X126511904Y-107467036D02*
X126511904Y-107324179D01*
X126511904Y-107324179D02*
X126464285Y-107133703D01*
X126464285Y-107133703D02*
X126416666Y-107038465D01*
X126416666Y-107038465D02*
X126321428Y-106943227D01*
X126321428Y-106943227D02*
X126178571Y-106895608D01*
X126178571Y-106895608D02*
X126083333Y-106895608D01*
X126083333Y-106895608D02*
X125940476Y-106943227D01*
X125940476Y-106943227D02*
X125892857Y-106990846D01*
X124940476Y-107895608D02*
X125511904Y-107895608D01*
X125226190Y-107895608D02*
X125226190Y-106895608D01*
X125226190Y-106895608D02*
X125321428Y-107038465D01*
X125321428Y-107038465D02*
X125416666Y-107133703D01*
X125416666Y-107133703D02*
X125511904Y-107181322D01*
X123988095Y-107895608D02*
X124559523Y-107895608D01*
X124273809Y-107895608D02*
X124273809Y-106895608D01*
X124273809Y-106895608D02*
X124369047Y-107038465D01*
X124369047Y-107038465D02*
X124464285Y-107133703D01*
X124464285Y-107133703D02*
X124559523Y-107181322D01*
X137109580Y-100833333D02*
X137157200Y-100785714D01*
X137157200Y-100785714D02*
X137204819Y-100642857D01*
X137204819Y-100642857D02*
X137204819Y-100547619D01*
X137204819Y-100547619D02*
X137157200Y-100404762D01*
X137157200Y-100404762D02*
X137061961Y-100309524D01*
X137061961Y-100309524D02*
X136966723Y-100261905D01*
X136966723Y-100261905D02*
X136776247Y-100214286D01*
X136776247Y-100214286D02*
X136633390Y-100214286D01*
X136633390Y-100214286D02*
X136442914Y-100261905D01*
X136442914Y-100261905D02*
X136347676Y-100309524D01*
X136347676Y-100309524D02*
X136252438Y-100404762D01*
X136252438Y-100404762D02*
X136204819Y-100547619D01*
X136204819Y-100547619D02*
X136204819Y-100642857D01*
X136204819Y-100642857D02*
X136252438Y-100785714D01*
X136252438Y-100785714D02*
X136300057Y-100833333D01*
X137204819Y-101785714D02*
X137204819Y-101214286D01*
X137204819Y-101500000D02*
X136204819Y-101500000D01*
X136204819Y-101500000D02*
X136347676Y-101404762D01*
X136347676Y-101404762D02*
X136442914Y-101309524D01*
X136442914Y-101309524D02*
X136490533Y-101214286D01*
X140216666Y-106539580D02*
X140264285Y-106587200D01*
X140264285Y-106587200D02*
X140407142Y-106634819D01*
X140407142Y-106634819D02*
X140502380Y-106634819D01*
X140502380Y-106634819D02*
X140645237Y-106587200D01*
X140645237Y-106587200D02*
X140740475Y-106491961D01*
X140740475Y-106491961D02*
X140788094Y-106396723D01*
X140788094Y-106396723D02*
X140835713Y-106206247D01*
X140835713Y-106206247D02*
X140835713Y-106063390D01*
X140835713Y-106063390D02*
X140788094Y-105872914D01*
X140788094Y-105872914D02*
X140740475Y-105777676D01*
X140740475Y-105777676D02*
X140645237Y-105682438D01*
X140645237Y-105682438D02*
X140502380Y-105634819D01*
X140502380Y-105634819D02*
X140407142Y-105634819D01*
X140407142Y-105634819D02*
X140264285Y-105682438D01*
X140264285Y-105682438D02*
X140216666Y-105730057D01*
X139740475Y-106634819D02*
X139549999Y-106634819D01*
X139549999Y-106634819D02*
X139454761Y-106587200D01*
X139454761Y-106587200D02*
X139407142Y-106539580D01*
X139407142Y-106539580D02*
X139311904Y-106396723D01*
X139311904Y-106396723D02*
X139264285Y-106206247D01*
X139264285Y-106206247D02*
X139264285Y-105825295D01*
X139264285Y-105825295D02*
X139311904Y-105730057D01*
X139311904Y-105730057D02*
X139359523Y-105682438D01*
X139359523Y-105682438D02*
X139454761Y-105634819D01*
X139454761Y-105634819D02*
X139645237Y-105634819D01*
X139645237Y-105634819D02*
X139740475Y-105682438D01*
X139740475Y-105682438D02*
X139788094Y-105730057D01*
X139788094Y-105730057D02*
X139835713Y-105825295D01*
X139835713Y-105825295D02*
X139835713Y-106063390D01*
X139835713Y-106063390D02*
X139788094Y-106158628D01*
X139788094Y-106158628D02*
X139740475Y-106206247D01*
X139740475Y-106206247D02*
X139645237Y-106253866D01*
X139645237Y-106253866D02*
X139454761Y-106253866D01*
X139454761Y-106253866D02*
X139359523Y-106206247D01*
X139359523Y-106206247D02*
X139311904Y-106158628D01*
X139311904Y-106158628D02*
X139264285Y-106063390D01*
X133642857Y-117359580D02*
X133690476Y-117407200D01*
X133690476Y-117407200D02*
X133833333Y-117454819D01*
X133833333Y-117454819D02*
X133928571Y-117454819D01*
X133928571Y-117454819D02*
X134071428Y-117407200D01*
X134071428Y-117407200D02*
X134166666Y-117311961D01*
X134166666Y-117311961D02*
X134214285Y-117216723D01*
X134214285Y-117216723D02*
X134261904Y-117026247D01*
X134261904Y-117026247D02*
X134261904Y-116883390D01*
X134261904Y-116883390D02*
X134214285Y-116692914D01*
X134214285Y-116692914D02*
X134166666Y-116597676D01*
X134166666Y-116597676D02*
X134071428Y-116502438D01*
X134071428Y-116502438D02*
X133928571Y-116454819D01*
X133928571Y-116454819D02*
X133833333Y-116454819D01*
X133833333Y-116454819D02*
X133690476Y-116502438D01*
X133690476Y-116502438D02*
X133642857Y-116550057D01*
X132690476Y-117454819D02*
X133261904Y-117454819D01*
X132976190Y-117454819D02*
X132976190Y-116454819D01*
X132976190Y-116454819D02*
X133071428Y-116597676D01*
X133071428Y-116597676D02*
X133166666Y-116692914D01*
X133166666Y-116692914D02*
X133261904Y-116740533D01*
X132071428Y-116454819D02*
X131976190Y-116454819D01*
X131976190Y-116454819D02*
X131880952Y-116502438D01*
X131880952Y-116502438D02*
X131833333Y-116550057D01*
X131833333Y-116550057D02*
X131785714Y-116645295D01*
X131785714Y-116645295D02*
X131738095Y-116835771D01*
X131738095Y-116835771D02*
X131738095Y-117073866D01*
X131738095Y-117073866D02*
X131785714Y-117264342D01*
X131785714Y-117264342D02*
X131833333Y-117359580D01*
X131833333Y-117359580D02*
X131880952Y-117407200D01*
X131880952Y-117407200D02*
X131976190Y-117454819D01*
X131976190Y-117454819D02*
X132071428Y-117454819D01*
X132071428Y-117454819D02*
X132166666Y-117407200D01*
X132166666Y-117407200D02*
X132214285Y-117359580D01*
X132214285Y-117359580D02*
X132261904Y-117264342D01*
X132261904Y-117264342D02*
X132309523Y-117073866D01*
X132309523Y-117073866D02*
X132309523Y-116835771D01*
X132309523Y-116835771D02*
X132261904Y-116645295D01*
X132261904Y-116645295D02*
X132214285Y-116550057D01*
X132214285Y-116550057D02*
X132166666Y-116502438D01*
X132166666Y-116502438D02*
X132071428Y-116454819D01*
X139609580Y-98333333D02*
X139657200Y-98285714D01*
X139657200Y-98285714D02*
X139704819Y-98142857D01*
X139704819Y-98142857D02*
X139704819Y-98047619D01*
X139704819Y-98047619D02*
X139657200Y-97904762D01*
X139657200Y-97904762D02*
X139561961Y-97809524D01*
X139561961Y-97809524D02*
X139466723Y-97761905D01*
X139466723Y-97761905D02*
X139276247Y-97714286D01*
X139276247Y-97714286D02*
X139133390Y-97714286D01*
X139133390Y-97714286D02*
X138942914Y-97761905D01*
X138942914Y-97761905D02*
X138847676Y-97809524D01*
X138847676Y-97809524D02*
X138752438Y-97904762D01*
X138752438Y-97904762D02*
X138704819Y-98047619D01*
X138704819Y-98047619D02*
X138704819Y-98142857D01*
X138704819Y-98142857D02*
X138752438Y-98285714D01*
X138752438Y-98285714D02*
X138800057Y-98333333D01*
X138704819Y-98666667D02*
X138704819Y-99285714D01*
X138704819Y-99285714D02*
X139085771Y-98952381D01*
X139085771Y-98952381D02*
X139085771Y-99095238D01*
X139085771Y-99095238D02*
X139133390Y-99190476D01*
X139133390Y-99190476D02*
X139181009Y-99238095D01*
X139181009Y-99238095D02*
X139276247Y-99285714D01*
X139276247Y-99285714D02*
X139514342Y-99285714D01*
X139514342Y-99285714D02*
X139609580Y-99238095D01*
X139609580Y-99238095D02*
X139657200Y-99190476D01*
X139657200Y-99190476D02*
X139704819Y-99095238D01*
X139704819Y-99095238D02*
X139704819Y-98809524D01*
X139704819Y-98809524D02*
X139657200Y-98714286D01*
X139657200Y-98714286D02*
X139609580Y-98666667D01*
X127204819Y-93488095D02*
X128014342Y-93488095D01*
X128014342Y-93488095D02*
X128109580Y-93535714D01*
X128109580Y-93535714D02*
X128157200Y-93583333D01*
X128157200Y-93583333D02*
X128204819Y-93678571D01*
X128204819Y-93678571D02*
X128204819Y-93869047D01*
X128204819Y-93869047D02*
X128157200Y-93964285D01*
X128157200Y-93964285D02*
X128109580Y-94011904D01*
X128109580Y-94011904D02*
X128014342Y-94059523D01*
X128014342Y-94059523D02*
X127204819Y-94059523D01*
X127204819Y-94440476D02*
X127204819Y-95059523D01*
X127204819Y-95059523D02*
X127585771Y-94726190D01*
X127585771Y-94726190D02*
X127585771Y-94869047D01*
X127585771Y-94869047D02*
X127633390Y-94964285D01*
X127633390Y-94964285D02*
X127681009Y-95011904D01*
X127681009Y-95011904D02*
X127776247Y-95059523D01*
X127776247Y-95059523D02*
X128014342Y-95059523D01*
X128014342Y-95059523D02*
X128109580Y-95011904D01*
X128109580Y-95011904D02*
X128157200Y-94964285D01*
X128157200Y-94964285D02*
X128204819Y-94869047D01*
X128204819Y-94869047D02*
X128204819Y-94583333D01*
X128204819Y-94583333D02*
X128157200Y-94488095D01*
X128157200Y-94488095D02*
X128109580Y-94440476D01*
X132666666Y-102859580D02*
X132714285Y-102907200D01*
X132714285Y-102907200D02*
X132857142Y-102954819D01*
X132857142Y-102954819D02*
X132952380Y-102954819D01*
X132952380Y-102954819D02*
X133095237Y-102907200D01*
X133095237Y-102907200D02*
X133190475Y-102811961D01*
X133190475Y-102811961D02*
X133238094Y-102716723D01*
X133238094Y-102716723D02*
X133285713Y-102526247D01*
X133285713Y-102526247D02*
X133285713Y-102383390D01*
X133285713Y-102383390D02*
X133238094Y-102192914D01*
X133238094Y-102192914D02*
X133190475Y-102097676D01*
X133190475Y-102097676D02*
X133095237Y-102002438D01*
X133095237Y-102002438D02*
X132952380Y-101954819D01*
X132952380Y-101954819D02*
X132857142Y-101954819D01*
X132857142Y-101954819D02*
X132714285Y-102002438D01*
X132714285Y-102002438D02*
X132666666Y-102050057D01*
X131809523Y-101954819D02*
X131999999Y-101954819D01*
X131999999Y-101954819D02*
X132095237Y-102002438D01*
X132095237Y-102002438D02*
X132142856Y-102050057D01*
X132142856Y-102050057D02*
X132238094Y-102192914D01*
X132238094Y-102192914D02*
X132285713Y-102383390D01*
X132285713Y-102383390D02*
X132285713Y-102764342D01*
X132285713Y-102764342D02*
X132238094Y-102859580D01*
X132238094Y-102859580D02*
X132190475Y-102907200D01*
X132190475Y-102907200D02*
X132095237Y-102954819D01*
X132095237Y-102954819D02*
X131904761Y-102954819D01*
X131904761Y-102954819D02*
X131809523Y-102907200D01*
X131809523Y-102907200D02*
X131761904Y-102859580D01*
X131761904Y-102859580D02*
X131714285Y-102764342D01*
X131714285Y-102764342D02*
X131714285Y-102526247D01*
X131714285Y-102526247D02*
X131761904Y-102431009D01*
X131761904Y-102431009D02*
X131809523Y-102383390D01*
X131809523Y-102383390D02*
X131904761Y-102335771D01*
X131904761Y-102335771D02*
X132095237Y-102335771D01*
X132095237Y-102335771D02*
X132190475Y-102383390D01*
X132190475Y-102383390D02*
X132238094Y-102431009D01*
X132238094Y-102431009D02*
X132285713Y-102526247D01*
X130416666Y-107359580D02*
X130464285Y-107407200D01*
X130464285Y-107407200D02*
X130607142Y-107454819D01*
X130607142Y-107454819D02*
X130702380Y-107454819D01*
X130702380Y-107454819D02*
X130845237Y-107407200D01*
X130845237Y-107407200D02*
X130940475Y-107311961D01*
X130940475Y-107311961D02*
X130988094Y-107216723D01*
X130988094Y-107216723D02*
X131035713Y-107026247D01*
X131035713Y-107026247D02*
X131035713Y-106883390D01*
X131035713Y-106883390D02*
X130988094Y-106692914D01*
X130988094Y-106692914D02*
X130940475Y-106597676D01*
X130940475Y-106597676D02*
X130845237Y-106502438D01*
X130845237Y-106502438D02*
X130702380Y-106454819D01*
X130702380Y-106454819D02*
X130607142Y-106454819D01*
X130607142Y-106454819D02*
X130464285Y-106502438D01*
X130464285Y-106502438D02*
X130416666Y-106550057D01*
X129559523Y-106788152D02*
X129559523Y-107454819D01*
X129797618Y-106407200D02*
X130035713Y-107121485D01*
X130035713Y-107121485D02*
X129416666Y-107121485D01*
X137416666Y-90954819D02*
X137749999Y-90478628D01*
X137988094Y-90954819D02*
X137988094Y-89954819D01*
X137988094Y-89954819D02*
X137607142Y-89954819D01*
X137607142Y-89954819D02*
X137511904Y-90002438D01*
X137511904Y-90002438D02*
X137464285Y-90050057D01*
X137464285Y-90050057D02*
X137416666Y-90145295D01*
X137416666Y-90145295D02*
X137416666Y-90288152D01*
X137416666Y-90288152D02*
X137464285Y-90383390D01*
X137464285Y-90383390D02*
X137511904Y-90431009D01*
X137511904Y-90431009D02*
X137607142Y-90478628D01*
X137607142Y-90478628D02*
X137988094Y-90478628D01*
X137035713Y-90050057D02*
X136988094Y-90002438D01*
X136988094Y-90002438D02*
X136892856Y-89954819D01*
X136892856Y-89954819D02*
X136654761Y-89954819D01*
X136654761Y-89954819D02*
X136559523Y-90002438D01*
X136559523Y-90002438D02*
X136511904Y-90050057D01*
X136511904Y-90050057D02*
X136464285Y-90145295D01*
X136464285Y-90145295D02*
X136464285Y-90240533D01*
X136464285Y-90240533D02*
X136511904Y-90383390D01*
X136511904Y-90383390D02*
X137083332Y-90954819D01*
X137083332Y-90954819D02*
X136464285Y-90954819D01*
D11*
G04 #@! TO.C,C2*
X134438748Y-98265000D02*
X134961252Y-98265000D01*
X134438748Y-99735000D02*
X134961252Y-99735000D01*
D12*
G04 #@! TO.C,D1*
X126960700Y-106275789D02*
G75*
G03*
X126960700Y-106275789I-50000J0D01*
G01*
D11*
G04 #@! TO.C,C8*
X142425700Y-108974537D02*
X142425700Y-109497041D01*
X143895700Y-108974537D02*
X143895700Y-109497041D01*
D13*
G04 #@! TO.C,U1*
X141087100Y-112710289D02*
X140305007Y-112710289D01*
X141087100Y-112432259D02*
X141087100Y-112710289D01*
X141087100Y-109865489D02*
X141087100Y-110143519D01*
X140305007Y-109865489D02*
X141087100Y-109865489D01*
X138516393Y-112710289D02*
X137734300Y-112710289D01*
X137734300Y-112710289D02*
X137734300Y-112432259D01*
X137734300Y-110143519D02*
X137734300Y-109865489D01*
X137734300Y-109865489D02*
X138516393Y-109865489D01*
G36*
X137708900Y-111228326D02*
G01*
X137454900Y-111228326D01*
X137454900Y-110847326D01*
X137708900Y-110847326D01*
X137708900Y-111228326D01*
G37*
D11*
G04 #@! TO.C,R1*
X129064564Y-111485000D02*
X128610436Y-111485000D01*
X129064564Y-110015000D02*
X128610436Y-110015000D01*
G04 #@! TO.C,C5*
X134438748Y-97735000D02*
X134961252Y-97735000D01*
X134438748Y-96265000D02*
X134961252Y-96265000D01*
G04 #@! TO.C,C11*
X124374448Y-105025789D02*
X124896952Y-105025789D01*
X124374448Y-106495789D02*
X124896952Y-106495789D01*
G04 #@! TO.C,C1*
X134015000Y-102061252D02*
X134015000Y-101538748D01*
X135485000Y-102061252D02*
X135485000Y-101538748D01*
G04 #@! TO.C,C9*
X139788748Y-103765000D02*
X140311252Y-103765000D01*
X139788748Y-105235000D02*
X140311252Y-105235000D01*
G04 #@! TO.C,C10*
X136236252Y-116735000D02*
X135713748Y-116735000D01*
X136236252Y-115265000D02*
X135713748Y-115265000D01*
G04 #@! TO.C,C3*
X141735000Y-99538748D02*
X141735000Y-100061252D01*
X140265000Y-99538748D02*
X140265000Y-100061252D01*
G04 #@! TO.C,U3*
X120575700Y-94060789D02*
X120575700Y-94460789D01*
X120575700Y-94460789D02*
X120275700Y-94460789D01*
G04 #@! TO.C,C6*
X135561252Y-105235000D02*
X135038748Y-105235000D01*
X135561252Y-103765000D02*
X135038748Y-103765000D01*
G04 #@! TO.C,C4*
X128713748Y-107765000D02*
X129236252Y-107765000D01*
X128713748Y-109235000D02*
X129236252Y-109235000D01*
G04 #@! TO.C,R2*
X138596136Y-91525789D02*
X139050264Y-91525789D01*
X138596136Y-92995789D02*
X139050264Y-92995789D01*
G04 #@! TD*
M02*
