%TF.GenerationSoftware,KiCad,Pcbnew,7.0.8*%
%TF.CreationDate,2023-10-11T10:23:23-04:00*%
%TF.ProjectId,MCU+IMU,4d43552b-494d-4552-9e6b-696361645f70,rev?*%
%TF.SameCoordinates,Original*%
%TF.FileFunction,Copper,L3,Inr*%
%TF.FilePolarity,Positive*%
%FSLAX46Y46*%
G04 Gerber Fmt 4.6, Leading zero omitted, Abs format (unit mm)*
G04 Created by KiCad (PCBNEW 7.0.8) date 2023-10-11 10:23:23*
%MOMM*%
%LPD*%
G01*
G04 APERTURE LIST*
%TA.AperFunction,ComponentPad*%
%ADD10R,1.300000X1.300000*%
%TD*%
%TA.AperFunction,ComponentPad*%
%ADD11C,1.300000*%
%TD*%
%TA.AperFunction,ViaPad*%
%ADD12C,0.800000*%
%TD*%
G04 APERTURE END LIST*
D10*
%TO.N,GND*%
%TO.C,J1*%
X158000000Y-73000000D03*
D11*
%TO.N,/SWDIO*%
X158000000Y-75000000D03*
%TO.N,/SWCLK*%
X158000000Y-77000000D03*
%TO.N,unconnected-(J1-Pin_4-Pad4)*%
X158000000Y-79000000D03*
%TD*%
D12*
%TO.N,GND*%
X142885179Y-92885116D03*
X150000000Y-89000000D03*
X142000000Y-80000000D03*
X144987701Y-86987701D03*
X156000000Y-78000000D03*
X141000000Y-85000000D03*
X138000000Y-92000000D03*
X156000000Y-72000000D03*
X150000000Y-93000000D03*
X141000000Y-70000000D03*
X138000000Y-73000000D03*
%TO.N,/USART1_RX*%
X150000000Y-79000000D03*
%TO.N,/USART1_TX*%
X154000000Y-78000000D03*
%TO.N,VDD*%
X149000000Y-83000000D03*
X137000000Y-76000000D03*
X160000000Y-79000000D03*
X141000000Y-87000000D03*
X152000000Y-72000000D03*
X139000000Y-71000000D03*
X153963878Y-80593474D03*
X140000000Y-93000000D03*
X142000000Y-82000000D03*
%TO.N,/MODE_SEL*%
X160000000Y-81000000D03*
%TO.N,/IMU_INT*%
X145950377Y-88975121D03*
%TO.N,/IMU Comm En*%
X146975048Y-88975048D03*
%TO.N,/NRST*%
X155012299Y-78987701D03*
X142000000Y-78000000D03*
%TO.N,/I2C2_SCL*%
X147000000Y-90000000D03*
%TO.N,/I2C2_SDA*%
X148000000Y-90000000D03*
%TO.N,/I2C_SA0*%
X145000000Y-93000000D03*
%TD*%
%TA.AperFunction,Conductor*%
%TO.N,VDD*%
G36*
X155516156Y-71019685D02*
G01*
X155561911Y-71072489D01*
X155571855Y-71141647D01*
X155542830Y-71205203D01*
X155522005Y-71224315D01*
X155449438Y-71277039D01*
X155388745Y-71321135D01*
X155260959Y-71463057D01*
X155165473Y-71628443D01*
X155165470Y-71628450D01*
X155106459Y-71810068D01*
X155106458Y-71810072D01*
X155086496Y-72000000D01*
X155106458Y-72189928D01*
X155106459Y-72189931D01*
X155165470Y-72371549D01*
X155165473Y-72371556D01*
X155260960Y-72536944D01*
X155388747Y-72678866D01*
X155543248Y-72791118D01*
X155717712Y-72868794D01*
X155904513Y-72908500D01*
X156095487Y-72908500D01*
X156282288Y-72868794D01*
X156456752Y-72791118D01*
X156611253Y-72678866D01*
X156625350Y-72663209D01*
X156684834Y-72626561D01*
X156754692Y-72627890D01*
X156812741Y-72666775D01*
X156840551Y-72730872D01*
X156841500Y-72746181D01*
X156841500Y-73698654D01*
X156848011Y-73759202D01*
X156848011Y-73759204D01*
X156888887Y-73868794D01*
X156899111Y-73896204D01*
X156986739Y-74013261D01*
X157066564Y-74073017D01*
X157082982Y-74085308D01*
X157124853Y-74141242D01*
X157129837Y-74210934D01*
X157107626Y-74259301D01*
X157010803Y-74387516D01*
X156915107Y-74579698D01*
X156915101Y-74579713D01*
X156856347Y-74786212D01*
X156856346Y-74786214D01*
X156836537Y-74999999D01*
X156836537Y-75000000D01*
X156856346Y-75213785D01*
X156856347Y-75213787D01*
X156915101Y-75420286D01*
X156915107Y-75420301D01*
X157010805Y-75612487D01*
X157140187Y-75783817D01*
X157140190Y-75783820D01*
X157276806Y-75908363D01*
X157313088Y-75968074D01*
X157311327Y-76037922D01*
X157276806Y-76091637D01*
X157140190Y-76216179D01*
X157140187Y-76216182D01*
X157010805Y-76387512D01*
X156915107Y-76579698D01*
X156915101Y-76579713D01*
X156856347Y-76786212D01*
X156856346Y-76786214D01*
X156836537Y-76999999D01*
X156836537Y-77000000D01*
X156856346Y-77213783D01*
X156867930Y-77254496D01*
X156867342Y-77324363D01*
X156829075Y-77382822D01*
X156765277Y-77411311D01*
X156696205Y-77400786D01*
X156656516Y-77371404D01*
X156611253Y-77321134D01*
X156456752Y-77208882D01*
X156282288Y-77131206D01*
X156282286Y-77131205D01*
X156095487Y-77091500D01*
X155904513Y-77091500D01*
X155717714Y-77131205D01*
X155543246Y-77208883D01*
X155388745Y-77321135D01*
X155260959Y-77463057D01*
X155165473Y-77628443D01*
X155165470Y-77628450D01*
X155117931Y-77774761D01*
X155078493Y-77832437D01*
X155014135Y-77859635D01*
X154945288Y-77847720D01*
X154893813Y-77800476D01*
X154882069Y-77774761D01*
X154834529Y-77628450D01*
X154834528Y-77628449D01*
X154834527Y-77628444D01*
X154739040Y-77463056D01*
X154611253Y-77321134D01*
X154456752Y-77208882D01*
X154282288Y-77131206D01*
X154282286Y-77131205D01*
X154095487Y-77091500D01*
X153904513Y-77091500D01*
X153717714Y-77131205D01*
X153543246Y-77208883D01*
X153388745Y-77321135D01*
X153260959Y-77463057D01*
X153165473Y-77628443D01*
X153165470Y-77628450D01*
X153109576Y-77800476D01*
X153106458Y-77810072D01*
X153086496Y-78000000D01*
X153106458Y-78189928D01*
X153106459Y-78189931D01*
X153165470Y-78371549D01*
X153165473Y-78371556D01*
X153260960Y-78536944D01*
X153388747Y-78678866D01*
X153543248Y-78791118D01*
X153717712Y-78868794D01*
X153904513Y-78908500D01*
X153978821Y-78908500D01*
X154045860Y-78928185D01*
X154091615Y-78980989D01*
X154102140Y-79019534D01*
X154118757Y-79177629D01*
X154118758Y-79177632D01*
X154177769Y-79359250D01*
X154177772Y-79359257D01*
X154273259Y-79524645D01*
X154401046Y-79666567D01*
X154555547Y-79778819D01*
X154730011Y-79856495D01*
X154916812Y-79896201D01*
X155107786Y-79896201D01*
X155294587Y-79856495D01*
X155469051Y-79778819D01*
X155623552Y-79666567D01*
X155751339Y-79524645D01*
X155846826Y-79359257D01*
X155905841Y-79177629D01*
X155922456Y-79019536D01*
X155949040Y-78954924D01*
X156006338Y-78914939D01*
X156045777Y-78908500D01*
X156095487Y-78908500D01*
X156282288Y-78868794D01*
X156456752Y-78791118D01*
X156611253Y-78678866D01*
X156656515Y-78628596D01*
X156715998Y-78591950D01*
X156785855Y-78593279D01*
X156843904Y-78632165D01*
X156871714Y-78696261D01*
X156867930Y-78745502D01*
X156856346Y-78786215D01*
X156836537Y-78999999D01*
X156836537Y-79000000D01*
X156856346Y-79213785D01*
X156856347Y-79213787D01*
X156915101Y-79420286D01*
X156915107Y-79420301D01*
X157010805Y-79612487D01*
X157140187Y-79783817D01*
X157140189Y-79783820D01*
X157298856Y-79928463D01*
X157298858Y-79928465D01*
X157367216Y-79970790D01*
X157481400Y-80041489D01*
X157681603Y-80119049D01*
X157892649Y-80158500D01*
X157892651Y-80158500D01*
X158107349Y-80158500D01*
X158107351Y-80158500D01*
X158318397Y-80119049D01*
X158518600Y-80041489D01*
X158701143Y-79928464D01*
X158859810Y-79783820D01*
X158977144Y-79628444D01*
X158989194Y-79612487D01*
X158989194Y-79612485D01*
X158989196Y-79612484D01*
X159084897Y-79420291D01*
X159143653Y-79213786D01*
X159163463Y-79000000D01*
X159143653Y-78786214D01*
X159084897Y-78579709D01*
X158989196Y-78387516D01*
X158989195Y-78387515D01*
X158989194Y-78387512D01*
X158859813Y-78216184D01*
X158859810Y-78216180D01*
X158723189Y-78091634D01*
X158686911Y-78031926D01*
X158688671Y-77962079D01*
X158723189Y-77908366D01*
X158859810Y-77783820D01*
X158977144Y-77628444D01*
X158989194Y-77612487D01*
X158989194Y-77612485D01*
X158989196Y-77612484D01*
X159084897Y-77420291D01*
X159143653Y-77213786D01*
X159163463Y-77000000D01*
X159143653Y-76786214D01*
X159084897Y-76579709D01*
X159032640Y-76474764D01*
X158989194Y-76387512D01*
X158859813Y-76216184D01*
X158859810Y-76216180D01*
X158723189Y-76091634D01*
X158686911Y-76031926D01*
X158688671Y-75962079D01*
X158723189Y-75908366D01*
X158859810Y-75783820D01*
X158989196Y-75612484D01*
X159084897Y-75420291D01*
X159143653Y-75213786D01*
X159163463Y-75000000D01*
X159162331Y-74987789D01*
X159143653Y-74786214D01*
X159143652Y-74786212D01*
X159084898Y-74579713D01*
X159084897Y-74579709D01*
X158989196Y-74387516D01*
X158989195Y-74387515D01*
X158989194Y-74387512D01*
X158892374Y-74259301D01*
X158867682Y-74193940D01*
X158882247Y-74125605D01*
X158917015Y-74085309D01*
X159013261Y-74013261D01*
X159100889Y-73896204D01*
X159151989Y-73759201D01*
X159155591Y-73725692D01*
X159158499Y-73698654D01*
X159158500Y-73698637D01*
X159158500Y-72301362D01*
X159158499Y-72301345D01*
X159155157Y-72270270D01*
X159151989Y-72240799D01*
X159140084Y-72208882D01*
X159129522Y-72180564D01*
X159100889Y-72103796D01*
X159013261Y-71986739D01*
X158896204Y-71899111D01*
X158759203Y-71848011D01*
X158698654Y-71841500D01*
X158698638Y-71841500D01*
X157301362Y-71841500D01*
X157301345Y-71841500D01*
X157240797Y-71848011D01*
X157240795Y-71848011D01*
X157103793Y-71899111D01*
X157103790Y-71899113D01*
X157092356Y-71907673D01*
X157026891Y-71932088D01*
X156958619Y-71917234D01*
X156909215Y-71867828D01*
X156894729Y-71821367D01*
X156893542Y-71810072D01*
X156834527Y-71628444D01*
X156739040Y-71463056D01*
X156611253Y-71321134D01*
X156477996Y-71224316D01*
X156435332Y-71168988D01*
X156429353Y-71099375D01*
X156461959Y-71037580D01*
X156522798Y-71003222D01*
X156550883Y-71000000D01*
X159876000Y-71000000D01*
X159943039Y-71019685D01*
X159988794Y-71072489D01*
X160000000Y-71124000D01*
X160000000Y-79970790D01*
X159980315Y-80037829D01*
X159927511Y-80083584D01*
X159901781Y-80092080D01*
X159717714Y-80131205D01*
X159543246Y-80208883D01*
X159388745Y-80321135D01*
X159260959Y-80463057D01*
X159165473Y-80628443D01*
X159165470Y-80628450D01*
X159106459Y-80810068D01*
X159106458Y-80810072D01*
X159086496Y-81000000D01*
X159106458Y-81189928D01*
X159106459Y-81189931D01*
X159165470Y-81371549D01*
X159165473Y-81371556D01*
X159260960Y-81536944D01*
X159388747Y-81678866D01*
X159543248Y-81791118D01*
X159717712Y-81868794D01*
X159901781Y-81907919D01*
X159963263Y-81941111D01*
X159997039Y-82002274D01*
X160000000Y-82029209D01*
X160000000Y-93876000D01*
X159980315Y-93943039D01*
X159927511Y-93988794D01*
X159876000Y-94000000D01*
X150550883Y-94000000D01*
X150483844Y-93980315D01*
X150438089Y-93927511D01*
X150428145Y-93858353D01*
X150457170Y-93794797D01*
X150477994Y-93775684D01*
X150611253Y-93678866D01*
X150739040Y-93536944D01*
X150834527Y-93371556D01*
X150893542Y-93189928D01*
X150913504Y-93000000D01*
X150893542Y-92810072D01*
X150834527Y-92628444D01*
X150739040Y-92463056D01*
X150611253Y-92321134D01*
X150456752Y-92208882D01*
X150282288Y-92131206D01*
X150282286Y-92131205D01*
X150095487Y-92091500D01*
X149904513Y-92091500D01*
X149717714Y-92131205D01*
X149717712Y-92131206D01*
X149549158Y-92206251D01*
X149543246Y-92208883D01*
X149388745Y-92321135D01*
X149260959Y-92463057D01*
X149165473Y-92628443D01*
X149165470Y-92628450D01*
X149106459Y-92810068D01*
X149106458Y-92810072D01*
X149086496Y-93000000D01*
X149106458Y-93189928D01*
X149106459Y-93189931D01*
X149165470Y-93371549D01*
X149165473Y-93371556D01*
X149260960Y-93536944D01*
X149388747Y-93678866D01*
X149522003Y-93775683D01*
X149564668Y-93831012D01*
X149570647Y-93900625D01*
X149538041Y-93962420D01*
X149477202Y-93996778D01*
X149449117Y-94000000D01*
X145550883Y-94000000D01*
X145483844Y-93980315D01*
X145438089Y-93927511D01*
X145428145Y-93858353D01*
X145457170Y-93794797D01*
X145477994Y-93775684D01*
X145611253Y-93678866D01*
X145739040Y-93536944D01*
X145834527Y-93371556D01*
X145893542Y-93189928D01*
X145913504Y-93000000D01*
X145893542Y-92810072D01*
X145834527Y-92628444D01*
X145739040Y-92463056D01*
X145611253Y-92321134D01*
X145456752Y-92208882D01*
X145282288Y-92131206D01*
X145282286Y-92131205D01*
X145095487Y-92091500D01*
X144904513Y-92091500D01*
X144717714Y-92131205D01*
X144717712Y-92131206D01*
X144549158Y-92206251D01*
X144543246Y-92208883D01*
X144388745Y-92321135D01*
X144260959Y-92463057D01*
X144165473Y-92628443D01*
X144165470Y-92628450D01*
X144106459Y-92810068D01*
X144106458Y-92810072D01*
X144086496Y-93000000D01*
X144106458Y-93189928D01*
X144106459Y-93189931D01*
X144165470Y-93371549D01*
X144165473Y-93371556D01*
X144260960Y-93536944D01*
X144388747Y-93678866D01*
X144522003Y-93775683D01*
X144564668Y-93831012D01*
X144570647Y-93900625D01*
X144538041Y-93962420D01*
X144477202Y-93996778D01*
X144449117Y-94000000D01*
X143189485Y-94000000D01*
X143122446Y-93980315D01*
X143076691Y-93927511D01*
X143066747Y-93858353D01*
X143095772Y-93794797D01*
X143154550Y-93757023D01*
X143163705Y-93754710D01*
X143167463Y-93753911D01*
X143167463Y-93753910D01*
X143167467Y-93753910D01*
X143341931Y-93676234D01*
X143496432Y-93563982D01*
X143624219Y-93422060D01*
X143719706Y-93256672D01*
X143778721Y-93075044D01*
X143798683Y-92885116D01*
X143778721Y-92695188D01*
X143719706Y-92513560D01*
X143624219Y-92348172D01*
X143496432Y-92206250D01*
X143341931Y-92093998D01*
X143167467Y-92016322D01*
X143167465Y-92016321D01*
X142980666Y-91976616D01*
X142789692Y-91976616D01*
X142602893Y-92016321D01*
X142428425Y-92093999D01*
X142273924Y-92206251D01*
X142146138Y-92348173D01*
X142050652Y-92513559D01*
X142050649Y-92513566D01*
X141996941Y-92678864D01*
X141991637Y-92695188D01*
X141971675Y-92885116D01*
X141991637Y-93075044D01*
X141991638Y-93075047D01*
X142050649Y-93256665D01*
X142050652Y-93256672D01*
X142146139Y-93422060D01*
X142273926Y-93563982D01*
X142428427Y-93676234D01*
X142602891Y-93753910D01*
X142602893Y-93753910D01*
X142602894Y-93753911D01*
X142606653Y-93754710D01*
X142608617Y-93755770D01*
X142609071Y-93755918D01*
X142609044Y-93756000D01*
X142668135Y-93787902D01*
X142701912Y-93849065D01*
X142697260Y-93918779D01*
X142655656Y-93974912D01*
X142590309Y-93999640D01*
X142580873Y-94000000D01*
X138474532Y-94000000D01*
X138407493Y-93980315D01*
X138389029Y-93965807D01*
X138002823Y-93598109D01*
X138000671Y-93595957D01*
X137447694Y-93015146D01*
X137445652Y-93012893D01*
X137445303Y-93012488D01*
X137436277Y-93002024D01*
X137407392Y-92938408D01*
X137417486Y-92869271D01*
X137463357Y-92816567D01*
X137530439Y-92797029D01*
X137580601Y-92807748D01*
X137717712Y-92868794D01*
X137904513Y-92908500D01*
X138095487Y-92908500D01*
X138282288Y-92868794D01*
X138456752Y-92791118D01*
X138611253Y-92678866D01*
X138739040Y-92536944D01*
X138834527Y-92371556D01*
X138893542Y-92189928D01*
X138913504Y-92000000D01*
X138893542Y-91810072D01*
X138834527Y-91628444D01*
X138739040Y-91463056D01*
X138611253Y-91321134D01*
X138456752Y-91208882D01*
X138282288Y-91131206D01*
X138282286Y-91131205D01*
X138095487Y-91091500D01*
X137904513Y-91091500D01*
X137717714Y-91131205D01*
X137543246Y-91208883D01*
X137388745Y-91321135D01*
X137260958Y-91463057D01*
X137231387Y-91514277D01*
X137180820Y-91562493D01*
X137112213Y-91575715D01*
X137047348Y-91549747D01*
X137006820Y-91492833D01*
X137000000Y-91452277D01*
X137000000Y-88975121D01*
X145036873Y-88975121D01*
X145056835Y-89165049D01*
X145056836Y-89165052D01*
X145115847Y-89346670D01*
X145115850Y-89346677D01*
X145211337Y-89512065D01*
X145339124Y-89653987D01*
X145493625Y-89766239D01*
X145668089Y-89843915D01*
X145854890Y-89883621D01*
X145962614Y-89883621D01*
X146029653Y-89903306D01*
X146075408Y-89956110D01*
X146085935Y-89994659D01*
X146086496Y-89999998D01*
X146086496Y-90000000D01*
X146106458Y-90189928D01*
X146106459Y-90189931D01*
X146165470Y-90371549D01*
X146165473Y-90371556D01*
X146260960Y-90536944D01*
X146388747Y-90678866D01*
X146543248Y-90791118D01*
X146717712Y-90868794D01*
X146904513Y-90908500D01*
X147095487Y-90908500D01*
X147282288Y-90868794D01*
X147449567Y-90794316D01*
X147518815Y-90785033D01*
X147550429Y-90794315D01*
X147717712Y-90868794D01*
X147904513Y-90908500D01*
X148095487Y-90908500D01*
X148282288Y-90868794D01*
X148456752Y-90791118D01*
X148611253Y-90678866D01*
X148739040Y-90536944D01*
X148834527Y-90371556D01*
X148893542Y-90189928D01*
X148913504Y-90000000D01*
X148893542Y-89810072D01*
X148834527Y-89628444D01*
X148739040Y-89463056D01*
X148611253Y-89321134D01*
X148456752Y-89208882D01*
X148282288Y-89131206D01*
X148282286Y-89131205D01*
X148095487Y-89091500D01*
X148012442Y-89091500D01*
X147945403Y-89071815D01*
X147899648Y-89019011D01*
X147894456Y-89000000D01*
X149086496Y-89000000D01*
X149106458Y-89189928D01*
X149106459Y-89189931D01*
X149165470Y-89371549D01*
X149165473Y-89371556D01*
X149260960Y-89536944D01*
X149388747Y-89678866D01*
X149543248Y-89791118D01*
X149717712Y-89868794D01*
X149904513Y-89908500D01*
X150095487Y-89908500D01*
X150282288Y-89868794D01*
X150456752Y-89791118D01*
X150611253Y-89678866D01*
X150739040Y-89536944D01*
X150834527Y-89371556D01*
X150893542Y-89189928D01*
X150913504Y-89000000D01*
X150893542Y-88810072D01*
X150834527Y-88628444D01*
X150739040Y-88463056D01*
X150611253Y-88321134D01*
X150456752Y-88208882D01*
X150282288Y-88131206D01*
X150282286Y-88131205D01*
X150095487Y-88091500D01*
X149904513Y-88091500D01*
X149717714Y-88131205D01*
X149717712Y-88131206D01*
X149599128Y-88184003D01*
X149543246Y-88208883D01*
X149388745Y-88321135D01*
X149260959Y-88463057D01*
X149165473Y-88628443D01*
X149165470Y-88628450D01*
X149106459Y-88810068D01*
X149106458Y-88810072D01*
X149086496Y-89000000D01*
X147894456Y-89000000D01*
X147889121Y-88980462D01*
X147888552Y-88975048D01*
X147868590Y-88785120D01*
X147809575Y-88603492D01*
X147714088Y-88438104D01*
X147586301Y-88296182D01*
X147431800Y-88183930D01*
X147257336Y-88106254D01*
X147257334Y-88106253D01*
X147070535Y-88066548D01*
X146879561Y-88066548D01*
X146692761Y-88106253D01*
X146692758Y-88106254D01*
X146513064Y-88186258D01*
X146443814Y-88195542D01*
X146412195Y-88186258D01*
X146288542Y-88131205D01*
X146232665Y-88106327D01*
X146232663Y-88106326D01*
X146045864Y-88066621D01*
X145854890Y-88066621D01*
X145668091Y-88106326D01*
X145493623Y-88184004D01*
X145339122Y-88296256D01*
X145211336Y-88438178D01*
X145115850Y-88603564D01*
X145115847Y-88603571D01*
X145056836Y-88785189D01*
X145056835Y-88785193D01*
X145036873Y-88975121D01*
X137000000Y-88975121D01*
X137000000Y-86987701D01*
X144074197Y-86987701D01*
X144094159Y-87177629D01*
X144094160Y-87177632D01*
X144153171Y-87359250D01*
X144153174Y-87359257D01*
X144248661Y-87524645D01*
X144376448Y-87666567D01*
X144530949Y-87778819D01*
X144705413Y-87856495D01*
X144892214Y-87896201D01*
X145083188Y-87896201D01*
X145269989Y-87856495D01*
X145444453Y-87778819D01*
X145598954Y-87666567D01*
X145726741Y-87524645D01*
X145822228Y-87359257D01*
X145881243Y-87177629D01*
X145901205Y-86987701D01*
X145881243Y-86797773D01*
X145822228Y-86616145D01*
X145726741Y-86450757D01*
X145598954Y-86308835D01*
X145444453Y-86196583D01*
X145269989Y-86118907D01*
X145269987Y-86118906D01*
X145083188Y-86079201D01*
X144892214Y-86079201D01*
X144705415Y-86118906D01*
X144530947Y-86196584D01*
X144376446Y-86308836D01*
X144248660Y-86450758D01*
X144153174Y-86616144D01*
X144153171Y-86616151D01*
X144094160Y-86797769D01*
X144094159Y-86797773D01*
X144074197Y-86987701D01*
X137000000Y-86987701D01*
X137000000Y-85000000D01*
X140086496Y-85000000D01*
X140106458Y-85189928D01*
X140106459Y-85189931D01*
X140165470Y-85371549D01*
X140165473Y-85371556D01*
X140260960Y-85536944D01*
X140388747Y-85678866D01*
X140543248Y-85791118D01*
X140717712Y-85868794D01*
X140904513Y-85908500D01*
X141095487Y-85908500D01*
X141282288Y-85868794D01*
X141456752Y-85791118D01*
X141611253Y-85678866D01*
X141739040Y-85536944D01*
X141834527Y-85371556D01*
X141893542Y-85189928D01*
X141913504Y-85000000D01*
X141893542Y-84810072D01*
X141834527Y-84628444D01*
X141739040Y-84463056D01*
X141611253Y-84321134D01*
X141456752Y-84208882D01*
X141282288Y-84131206D01*
X141282286Y-84131205D01*
X141095487Y-84091500D01*
X140904513Y-84091500D01*
X140717714Y-84131205D01*
X140543246Y-84208883D01*
X140388745Y-84321135D01*
X140260959Y-84463057D01*
X140165473Y-84628443D01*
X140165470Y-84628450D01*
X140106459Y-84810068D01*
X140106458Y-84810072D01*
X140086496Y-85000000D01*
X137000000Y-85000000D01*
X137000000Y-80000000D01*
X141086496Y-80000000D01*
X141106458Y-80189928D01*
X141106459Y-80189931D01*
X141165470Y-80371549D01*
X141165473Y-80371556D01*
X141260960Y-80536944D01*
X141388747Y-80678866D01*
X141543248Y-80791118D01*
X141717712Y-80868794D01*
X141904513Y-80908500D01*
X142095487Y-80908500D01*
X142282288Y-80868794D01*
X142456752Y-80791118D01*
X142611253Y-80678866D01*
X142739040Y-80536944D01*
X142834527Y-80371556D01*
X142893542Y-80189928D01*
X142913504Y-80000000D01*
X142893542Y-79810072D01*
X142834527Y-79628444D01*
X142739040Y-79463056D01*
X142611253Y-79321134D01*
X142456752Y-79208882D01*
X142282288Y-79131206D01*
X142282286Y-79131205D01*
X142235637Y-79121290D01*
X142174155Y-79088098D01*
X142140379Y-79026935D01*
X142142176Y-79000000D01*
X149086496Y-79000000D01*
X149106458Y-79189928D01*
X149106459Y-79189931D01*
X149165470Y-79371549D01*
X149165473Y-79371556D01*
X149260960Y-79536944D01*
X149388747Y-79678866D01*
X149543248Y-79791118D01*
X149717712Y-79868794D01*
X149904513Y-79908500D01*
X150095487Y-79908500D01*
X150282288Y-79868794D01*
X150456752Y-79791118D01*
X150611253Y-79678866D01*
X150739040Y-79536944D01*
X150834527Y-79371556D01*
X150893542Y-79189928D01*
X150913504Y-79000000D01*
X150893542Y-78810072D01*
X150834527Y-78628444D01*
X150739040Y-78463056D01*
X150611253Y-78321134D01*
X150456752Y-78208882D01*
X150282288Y-78131206D01*
X150282286Y-78131205D01*
X150095487Y-78091500D01*
X149904513Y-78091500D01*
X149717714Y-78131205D01*
X149543246Y-78208883D01*
X149388745Y-78321135D01*
X149260959Y-78463057D01*
X149165473Y-78628443D01*
X149165470Y-78628450D01*
X149106459Y-78810068D01*
X149106458Y-78810072D01*
X149086496Y-79000000D01*
X142142176Y-79000000D01*
X142145031Y-78957220D01*
X142186636Y-78901088D01*
X142235637Y-78878710D01*
X142282288Y-78868794D01*
X142456752Y-78791118D01*
X142611253Y-78678866D01*
X142739040Y-78536944D01*
X142834527Y-78371556D01*
X142893542Y-78189928D01*
X142913504Y-78000000D01*
X142893542Y-77810072D01*
X142834527Y-77628444D01*
X142739040Y-77463056D01*
X142611253Y-77321134D01*
X142456752Y-77208882D01*
X142282288Y-77131206D01*
X142282286Y-77131205D01*
X142095487Y-77091500D01*
X141904513Y-77091500D01*
X141717714Y-77131205D01*
X141543246Y-77208883D01*
X141388745Y-77321135D01*
X141260959Y-77463057D01*
X141165473Y-77628443D01*
X141165470Y-77628450D01*
X141109576Y-77800476D01*
X141106458Y-77810072D01*
X141086496Y-78000000D01*
X141106458Y-78189928D01*
X141106459Y-78189931D01*
X141165470Y-78371549D01*
X141165473Y-78371556D01*
X141260960Y-78536944D01*
X141388747Y-78678866D01*
X141543248Y-78791118D01*
X141717712Y-78868794D01*
X141742906Y-78874149D01*
X141764362Y-78878710D01*
X141825844Y-78911902D01*
X141859620Y-78973065D01*
X141854968Y-79042780D01*
X141813363Y-79098912D01*
X141764362Y-79121290D01*
X141717714Y-79131205D01*
X141543246Y-79208883D01*
X141388745Y-79321135D01*
X141260959Y-79463057D01*
X141165473Y-79628443D01*
X141165470Y-79628450D01*
X141106459Y-79810068D01*
X141106458Y-79810072D01*
X141086496Y-80000000D01*
X137000000Y-80000000D01*
X137000000Y-73547722D01*
X137019685Y-73480683D01*
X137072489Y-73434928D01*
X137141647Y-73424984D01*
X137205203Y-73454009D01*
X137231387Y-73485723D01*
X137260956Y-73536939D01*
X137260958Y-73536942D01*
X137289234Y-73568345D01*
X137388747Y-73678866D01*
X137543248Y-73791118D01*
X137717712Y-73868794D01*
X137904513Y-73908500D01*
X138095487Y-73908500D01*
X138282288Y-73868794D01*
X138456752Y-73791118D01*
X138611253Y-73678866D01*
X138739040Y-73536944D01*
X138834527Y-73371556D01*
X138893542Y-73189928D01*
X138913504Y-73000000D01*
X138893542Y-72810072D01*
X138834527Y-72628444D01*
X138739040Y-72463056D01*
X138611253Y-72321134D01*
X138456752Y-72208882D01*
X138282288Y-72131206D01*
X138282286Y-72131205D01*
X138095487Y-72091500D01*
X137904513Y-72091500D01*
X137717714Y-72131205D01*
X137543246Y-72208883D01*
X137388745Y-72321135D01*
X137260958Y-72463057D01*
X137231387Y-72514277D01*
X137180820Y-72562493D01*
X137112213Y-72575715D01*
X137047348Y-72549747D01*
X137006820Y-72492833D01*
X137000000Y-72452277D01*
X137000000Y-71549832D01*
X137019685Y-71482793D01*
X137030092Y-71468856D01*
X137397434Y-71043004D01*
X137456126Y-71005101D01*
X137491326Y-71000000D01*
X155449117Y-71000000D01*
X155516156Y-71019685D01*
G37*
%TD.AperFunction*%
%TD*%
M02*
