G04 #@! TF.GenerationSoftware,KiCad,Pcbnew,7.0.8*
G04 #@! TF.CreationDate,2023-10-23T16:08:40-04:00*
G04 #@! TF.ProjectId,MCU+IMU,4d43552b-494d-4552-9e6b-696361645f70,rev?*
G04 #@! TF.SameCoordinates,Original*
G04 #@! TF.FileFunction,Legend,Top*
G04 #@! TF.FilePolarity,Positive*
%FSLAX46Y46*%
G04 Gerber Fmt 4.6, Leading zero omitted, Abs format (unit mm)*
G04 Created by KiCad (PCBNEW 7.0.8) date 2023-10-23 16:08:40*
%MOMM*%
%LPD*%
G01*
G04 APERTURE LIST*
%ADD10C,0.254000*%
%ADD11C,0.150000*%
%ADD12C,0.200000*%
%ADD13C,0.100000*%
%ADD14C,0.120000*%
G04 APERTURE END LIST*
D10*
X131076667Y-115804318D02*
X131076667Y-116711461D01*
X131076667Y-116711461D02*
X131016190Y-116892889D01*
X131016190Y-116892889D02*
X130895238Y-117013842D01*
X130895238Y-117013842D02*
X130713809Y-117074318D01*
X130713809Y-117074318D02*
X130592857Y-117074318D01*
X131620952Y-115925270D02*
X131681428Y-115864794D01*
X131681428Y-115864794D02*
X131802381Y-115804318D01*
X131802381Y-115804318D02*
X132104762Y-115804318D01*
X132104762Y-115804318D02*
X132225714Y-115864794D01*
X132225714Y-115864794D02*
X132286190Y-115925270D01*
X132286190Y-115925270D02*
X132346667Y-116046222D01*
X132346667Y-116046222D02*
X132346667Y-116167175D01*
X132346667Y-116167175D02*
X132286190Y-116348603D01*
X132286190Y-116348603D02*
X131560476Y-117074318D01*
X131560476Y-117074318D02*
X132346667Y-117074318D01*
D11*
X138333333Y-115789580D02*
X138285714Y-115837200D01*
X138285714Y-115837200D02*
X138142857Y-115884819D01*
X138142857Y-115884819D02*
X138047619Y-115884819D01*
X138047619Y-115884819D02*
X137904762Y-115837200D01*
X137904762Y-115837200D02*
X137809524Y-115741961D01*
X137809524Y-115741961D02*
X137761905Y-115646723D01*
X137761905Y-115646723D02*
X137714286Y-115456247D01*
X137714286Y-115456247D02*
X137714286Y-115313390D01*
X137714286Y-115313390D02*
X137761905Y-115122914D01*
X137761905Y-115122914D02*
X137809524Y-115027676D01*
X137809524Y-115027676D02*
X137904762Y-114932438D01*
X137904762Y-114932438D02*
X138047619Y-114884819D01*
X138047619Y-114884819D02*
X138142857Y-114884819D01*
X138142857Y-114884819D02*
X138285714Y-114932438D01*
X138285714Y-114932438D02*
X138333333Y-114980057D01*
X138666667Y-114884819D02*
X139333333Y-114884819D01*
X139333333Y-114884819D02*
X138904762Y-115884819D01*
X134898795Y-89465608D02*
X134898795Y-90275131D01*
X134898795Y-90275131D02*
X134946414Y-90370369D01*
X134946414Y-90370369D02*
X134994033Y-90417989D01*
X134994033Y-90417989D02*
X135089271Y-90465608D01*
X135089271Y-90465608D02*
X135279747Y-90465608D01*
X135279747Y-90465608D02*
X135374985Y-90417989D01*
X135374985Y-90417989D02*
X135422604Y-90370369D01*
X135422604Y-90370369D02*
X135470223Y-90275131D01*
X135470223Y-90275131D02*
X135470223Y-89465608D01*
X135898795Y-89560846D02*
X135946414Y-89513227D01*
X135946414Y-89513227D02*
X136041652Y-89465608D01*
X136041652Y-89465608D02*
X136279747Y-89465608D01*
X136279747Y-89465608D02*
X136374985Y-89513227D01*
X136374985Y-89513227D02*
X136422604Y-89560846D01*
X136422604Y-89560846D02*
X136470223Y-89656084D01*
X136470223Y-89656084D02*
X136470223Y-89751322D01*
X136470223Y-89751322D02*
X136422604Y-89894179D01*
X136422604Y-89894179D02*
X135851176Y-90465608D01*
X135851176Y-90465608D02*
X136470223Y-90465608D01*
D10*
X130326667Y-93554318D02*
X130326667Y-94461461D01*
X130326667Y-94461461D02*
X130266190Y-94642889D01*
X130266190Y-94642889D02*
X130145238Y-94763842D01*
X130145238Y-94763842D02*
X129963809Y-94824318D01*
X129963809Y-94824318D02*
X129842857Y-94824318D01*
X131596667Y-94824318D02*
X130870952Y-94824318D01*
X131233809Y-94824318D02*
X131233809Y-93554318D01*
X131233809Y-93554318D02*
X131112857Y-93735746D01*
X131112857Y-93735746D02*
X130991905Y-93856699D01*
X130991905Y-93856699D02*
X130870952Y-93917175D01*
D11*
X120017900Y-107594121D02*
X120065519Y-107451264D01*
X120065519Y-107451264D02*
X120065519Y-107213169D01*
X120065519Y-107213169D02*
X120017900Y-107117931D01*
X120017900Y-107117931D02*
X119970280Y-107070312D01*
X119970280Y-107070312D02*
X119875042Y-107022693D01*
X119875042Y-107022693D02*
X119779804Y-107022693D01*
X119779804Y-107022693D02*
X119684566Y-107070312D01*
X119684566Y-107070312D02*
X119636947Y-107117931D01*
X119636947Y-107117931D02*
X119589328Y-107213169D01*
X119589328Y-107213169D02*
X119541709Y-107403645D01*
X119541709Y-107403645D02*
X119494090Y-107498883D01*
X119494090Y-107498883D02*
X119446471Y-107546502D01*
X119446471Y-107546502D02*
X119351233Y-107594121D01*
X119351233Y-107594121D02*
X119255995Y-107594121D01*
X119255995Y-107594121D02*
X119160757Y-107546502D01*
X119160757Y-107546502D02*
X119113138Y-107498883D01*
X119113138Y-107498883D02*
X119065519Y-107403645D01*
X119065519Y-107403645D02*
X119065519Y-107165550D01*
X119065519Y-107165550D02*
X119113138Y-107022693D01*
X119065519Y-106689359D02*
X120065519Y-106451264D01*
X120065519Y-106451264D02*
X119351233Y-106260788D01*
X119351233Y-106260788D02*
X120065519Y-106070312D01*
X120065519Y-106070312D02*
X119065519Y-105832217D01*
X120065519Y-104927455D02*
X120065519Y-105498883D01*
X120065519Y-105213169D02*
X119065519Y-105213169D01*
X119065519Y-105213169D02*
X119208376Y-105308407D01*
X119208376Y-105308407D02*
X119303614Y-105403645D01*
X119303614Y-105403645D02*
X119351233Y-105498883D01*
D12*
G04 #@! TO.C,J2*
X136750000Y-114500000D02*
X128750000Y-114500000D01*
X136750000Y-112500000D02*
X136750000Y-114500000D01*
X128750000Y-114500000D02*
X128750000Y-112500000D01*
X128750000Y-112500000D02*
X136750000Y-112500000D01*
D13*
X128250000Y-113500000D02*
X128250000Y-113500000D01*
X128150000Y-113500000D02*
X128150000Y-113500000D01*
X128150000Y-113500000D02*
G75*
G03*
X128250000Y-113500000I50000J0D01*
G01*
X128250000Y-113500000D02*
G75*
G03*
X128150000Y-113500000I-50000J0D01*
G01*
D14*
G04 #@! TO.C,C7*
X140211252Y-114485000D02*
X139688748Y-114485000D01*
X140211252Y-113015000D02*
X139688748Y-113015000D01*
G04 #@! TO.C,U2*
X142785000Y-106110000D02*
X142785000Y-105160000D01*
X142785000Y-95890000D02*
X142785000Y-96840000D01*
X141835000Y-106110000D02*
X142785000Y-106110000D01*
X141835000Y-95890000D02*
X142785000Y-95890000D01*
X133515000Y-106110000D02*
X132565000Y-106110000D01*
X133515000Y-95890000D02*
X132565000Y-95890000D01*
X132565000Y-106110000D02*
X132565000Y-105160000D01*
X132565000Y-96840000D02*
X131225000Y-96840000D01*
X132565000Y-95890000D02*
X132565000Y-96840000D01*
D12*
G04 #@! TO.C,J1*
X128750000Y-91000000D02*
X136750000Y-91000000D01*
X128750000Y-93000000D02*
X128750000Y-91000000D01*
X136750000Y-91000000D02*
X136750000Y-93000000D01*
X136750000Y-93000000D02*
X128750000Y-93000000D01*
D13*
X137250000Y-92000000D02*
X137250000Y-92000000D01*
X137350000Y-92000000D02*
X137350000Y-92000000D01*
X137350000Y-92000000D02*
G75*
G03*
X137250000Y-92000000I-50000J0D01*
G01*
X137250000Y-92000000D02*
G75*
G03*
X137350000Y-92000000I50000J0D01*
G01*
D14*
G04 #@! TO.C,SW1*
X120610700Y-111360789D02*
X120610700Y-110360789D01*
X121610700Y-111360789D02*
X120610700Y-111360789D01*
X122610700Y-109360789D02*
X125210700Y-109360789D01*
X120660700Y-103360789D02*
X120660700Y-109160789D01*
X127160700Y-103260789D02*
X127160700Y-109260789D01*
X122610700Y-103160789D02*
X125210700Y-103160789D01*
G04 #@! TD*
M02*
