%TF.GenerationSoftware,KiCad,Pcbnew,7.0.8*%
%TF.CreationDate,2023-10-11T10:23:23-04:00*%
%TF.ProjectId,MCU+IMU,4d43552b-494d-4552-9e6b-696361645f70,rev?*%
%TF.SameCoordinates,Original*%
%TF.FileFunction,Copper,L4,Bot*%
%TF.FilePolarity,Positive*%
%FSLAX46Y46*%
G04 Gerber Fmt 4.6, Leading zero omitted, Abs format (unit mm)*
G04 Created by KiCad (PCBNEW 7.0.8) date 2023-10-11 10:23:23*
%MOMM*%
%LPD*%
G01*
G04 APERTURE LIST*
G04 Aperture macros list*
%AMRoundRect*
0 Rectangle with rounded corners*
0 $1 Rounding radius*
0 $2 $3 $4 $5 $6 $7 $8 $9 X,Y pos of 4 corners*
0 Add a 4 corners polygon primitive as box body*
4,1,4,$2,$3,$4,$5,$6,$7,$8,$9,$2,$3,0*
0 Add four circle primitives for the rounded corners*
1,1,$1+$1,$2,$3*
1,1,$1+$1,$4,$5*
1,1,$1+$1,$6,$7*
1,1,$1+$1,$8,$9*
0 Add four rect primitives between the rounded corners*
20,1,$1+$1,$2,$3,$4,$5,0*
20,1,$1+$1,$4,$5,$6,$7,0*
20,1,$1+$1,$6,$7,$8,$9,0*
20,1,$1+$1,$8,$9,$2,$3,0*%
G04 Aperture macros list end*
%TA.AperFunction,ComponentPad*%
%ADD10R,1.300000X1.300000*%
%TD*%
%TA.AperFunction,ComponentPad*%
%ADD11C,1.300000*%
%TD*%
%TA.AperFunction,SMDPad,CuDef*%
%ADD12RoundRect,0.100000X0.130000X0.100000X-0.130000X0.100000X-0.130000X-0.100000X0.130000X-0.100000X0*%
%TD*%
%TA.AperFunction,SMDPad,CuDef*%
%ADD13R,0.700000X1.500000*%
%TD*%
%TA.AperFunction,SMDPad,CuDef*%
%ADD14R,1.500000X0.700000*%
%TD*%
%TA.AperFunction,SMDPad,CuDef*%
%ADD15RoundRect,0.225000X0.225000X0.250000X-0.225000X0.250000X-0.225000X-0.250000X0.225000X-0.250000X0*%
%TD*%
%TA.AperFunction,SMDPad,CuDef*%
%ADD16R,0.304800X0.533400*%
%TD*%
%TA.AperFunction,SMDPad,CuDef*%
%ADD17R,0.533400X0.304800*%
%TD*%
%TA.AperFunction,SMDPad,CuDef*%
%ADD18RoundRect,0.225000X-0.225000X-0.250000X0.225000X-0.250000X0.225000X0.250000X-0.225000X0.250000X0*%
%TD*%
%TA.AperFunction,SMDPad,CuDef*%
%ADD19RoundRect,0.140000X-0.170000X0.140000X-0.170000X-0.140000X0.170000X-0.140000X0.170000X0.140000X0*%
%TD*%
%TA.AperFunction,SMDPad,CuDef*%
%ADD20RoundRect,0.140000X0.170000X-0.140000X0.170000X0.140000X-0.170000X0.140000X-0.170000X-0.140000X0*%
%TD*%
%TA.AperFunction,ViaPad*%
%ADD21C,0.800000*%
%TD*%
%TA.AperFunction,Conductor*%
%ADD22C,0.250000*%
%TD*%
G04 APERTURE END LIST*
D10*
%TO.P,J1,1,Pin_1*%
%TO.N,GND*%
X158000000Y-73000000D03*
D11*
%TO.P,J1,2,Pin_2*%
%TO.N,/SWDIO*%
X158000000Y-75000000D03*
%TO.P,J1,3,Pin_3*%
%TO.N,/SWCLK*%
X158000000Y-77000000D03*
%TO.P,J1,4,Pin_4*%
%TO.N,unconnected-(J1-Pin_4-Pad4)*%
X158000000Y-79000000D03*
%TD*%
D12*
%TO.P,D1,1,K*%
%TO.N,GND*%
X154975000Y-81350000D03*
%TO.P,D1,2,A*%
%TO.N,Net-(D1-A)*%
X154335000Y-81350000D03*
%TD*%
D13*
%TO.P,U3,1,BT_RF*%
%TO.N,unconnected-(U3-BT_RF-Pad1)*%
X160400000Y-92350000D03*
%TO.P,U3,2,GND*%
%TO.N,GND*%
X159200000Y-92350000D03*
%TO.P,U3,3,P1_2*%
%TO.N,unconnected-(U3-P1_2-Pad3)*%
X158000000Y-92350000D03*
%TO.P,U3,4,P1_3*%
%TO.N,unconnected-(U3-P1_3-Pad4)*%
X156800000Y-92350000D03*
%TO.P,U3,5,P1_7*%
%TO.N,unconnected-(U3-P1_7-Pad5)*%
X155600000Y-92350000D03*
D14*
%TO.P,U3,6,P1_6*%
%TO.N,unconnected-(U3-P1_6-Pad6)*%
X153900000Y-91000000D03*
%TO.P,U3,7,UART_RX*%
%TO.N,/USART1_RX*%
X153900000Y-89800000D03*
%TO.P,U3,8,UART_TX*%
%TO.N,/USART1_TX*%
X153900000Y-88600000D03*
%TO.P,U3,9,P3_6*%
%TO.N,unconnected-(U3-P3_6-Pad9)*%
X153900000Y-87400000D03*
%TO.P,U3,10,RST*%
%TO.N,/NRST*%
X153900000Y-86200000D03*
%TO.P,U3,11,P0_0*%
%TO.N,unconnected-(U3-P0_0-Pad11)*%
X153900000Y-85000000D03*
D13*
%TO.P,U3,12,P0_2*%
%TO.N,Net-(D1-A)*%
X155600000Y-83650000D03*
%TO.P,U3,13,GND*%
%TO.N,GND*%
X156800000Y-83650000D03*
%TO.P,U3,14,VBAT*%
%TO.N,VDD*%
X158000000Y-83650000D03*
%TO.P,U3,15,P2_7*%
%TO.N,unconnected-(U3-P2_7-Pad15)*%
X159250000Y-83650000D03*
%TO.P,U3,16,P2_0*%
%TO.N,/MODE_SEL*%
X160400000Y-83650000D03*
%TD*%
D15*
%TO.P,C11,1*%
%TO.N,VDD*%
X158000000Y-81350000D03*
%TO.P,C11,2*%
%TO.N,GND*%
X156450000Y-81350000D03*
%TD*%
D16*
%TO.P,U1,1,SDO/SA0*%
%TO.N,/I2C_SA0*%
X143823089Y-92181100D03*
%TO.P,U1,2,SDx/AH1/QVAR1*%
%TO.N,GND*%
X143322963Y-92181100D03*
%TO.P,U1,3,SCx/AH2/QVAR2*%
X142822837Y-92181100D03*
%TO.P,U1,4,INT1*%
%TO.N,unconnected-(U1-INT1-Pad4)*%
X142322711Y-92181100D03*
D17*
%TO.P,U1,5,VDD_IO*%
%TO.N,VDD*%
X142145800Y-91500126D03*
%TO.P,U1,6,GND*%
%TO.N,GND*%
X142145800Y-91000000D03*
%TO.P,U1,7,GND*%
X142145800Y-90499874D03*
D16*
%TO.P,U1,8,VDD*%
%TO.N,VDD*%
X142322711Y-89818900D03*
%TO.P,U1,9,INT2*%
%TO.N,/IMU_INT*%
X142822837Y-89818900D03*
%TO.P,U1,10,OCS_AUX*%
%TO.N,unconnected-(U1-OCS_AUX-Pad10)*%
X143322963Y-89818900D03*
%TO.P,U1,11,SDO_AUX*%
%TO.N,unconnected-(U1-SDO_AUX-Pad11)*%
X143823089Y-89818900D03*
D17*
%TO.P,U1,12,CS*%
%TO.N,/IMU Comm En*%
X144000000Y-90499874D03*
%TO.P,U1,13,SCL*%
%TO.N,/I2C2_SCL*%
X144000000Y-91000000D03*
%TO.P,U1,14,SDA*%
%TO.N,/I2C2_SDA*%
X144000000Y-91500126D03*
%TD*%
D18*
%TO.P,C10,1*%
%TO.N,VDD*%
X142048089Y-87818900D03*
%TO.P,C10,2*%
%TO.N,GND*%
X143598089Y-87818900D03*
%TD*%
D19*
%TO.P,C7,1*%
%TO.N,VDD*%
X140343089Y-88338900D03*
%TO.P,C7,2*%
%TO.N,GND*%
X140343089Y-89298900D03*
%TD*%
D20*
%TO.P,C8,1*%
%TO.N,VDD*%
X140343089Y-91818900D03*
%TO.P,C8,2*%
%TO.N,GND*%
X140343089Y-90858900D03*
%TD*%
D21*
%TO.N,GND*%
X142885179Y-92885116D03*
X150000000Y-89000000D03*
X142000000Y-80000000D03*
X144987701Y-86987701D03*
X156000000Y-78000000D03*
X141000000Y-85000000D03*
X138000000Y-92000000D03*
X156000000Y-72000000D03*
X150000000Y-93000000D03*
X141000000Y-70000000D03*
X138000000Y-73000000D03*
%TO.N,/USART1_RX*%
X150000000Y-79000000D03*
%TO.N,/USART1_TX*%
X154000000Y-78000000D03*
%TO.N,VDD*%
X149000000Y-83000000D03*
X137000000Y-76000000D03*
X160000000Y-79000000D03*
X141000000Y-87000000D03*
X152000000Y-72000000D03*
X139000000Y-71000000D03*
X153963878Y-80593474D03*
X140000000Y-93000000D03*
X142000000Y-82000000D03*
%TO.N,/MODE_SEL*%
X160000000Y-81000000D03*
%TO.N,/IMU_INT*%
X145950377Y-88975121D03*
%TO.N,/IMU Comm En*%
X146975048Y-88975048D03*
%TO.N,/NRST*%
X155012299Y-78987701D03*
X142000000Y-78000000D03*
%TO.N,/I2C2_SCL*%
X147000000Y-90000000D03*
%TO.N,/I2C2_SDA*%
X148000000Y-90000000D03*
%TO.N,/I2C_SA0*%
X145000000Y-93000000D03*
%TD*%
D22*
%TO.N,GND*%
X142145800Y-90499874D02*
X141544063Y-90499874D01*
X159200000Y-92350000D02*
X159200000Y-93100000D01*
X140484189Y-91000000D02*
X140343089Y-90858900D01*
X159200000Y-93100000D02*
X158875000Y-93425000D01*
X141544063Y-90499874D02*
X140343089Y-89298900D01*
X142145800Y-91000000D02*
X140484189Y-91000000D01*
X142822837Y-92822774D02*
X142885179Y-92885116D01*
X140343089Y-90858900D02*
X140343089Y-89298900D01*
X154975000Y-81350000D02*
X156450000Y-81350000D01*
X144156502Y-87818900D02*
X144987701Y-86987701D01*
X143322963Y-92447332D02*
X142885179Y-92885116D01*
X143598089Y-87818900D02*
X144156502Y-87818900D01*
X140343089Y-90858900D02*
X139141100Y-90858900D01*
X142822837Y-92181100D02*
X142822837Y-92822774D01*
X143322963Y-92181100D02*
X143322963Y-92447332D01*
X158875000Y-93425000D02*
X150425000Y-93425000D01*
X156800000Y-81700000D02*
X156450000Y-81350000D01*
X139141100Y-90858900D02*
X138000000Y-92000000D01*
X150425000Y-93425000D02*
X150000000Y-93000000D01*
X156800000Y-83650000D02*
X156800000Y-81700000D01*
X156450000Y-81350000D02*
X156450000Y-78450000D01*
X156450000Y-78450000D02*
X156000000Y-78000000D01*
%TO.N,/USART1_RX*%
X150000000Y-86650000D02*
X150000000Y-79000000D01*
X153150000Y-89800000D02*
X150000000Y-86650000D01*
X153900000Y-89800000D02*
X153150000Y-89800000D01*
%TO.N,/USART1_TX*%
X153000000Y-79000000D02*
X154000000Y-78000000D01*
X151000000Y-86450000D02*
X151000000Y-79000000D01*
X153900000Y-88600000D02*
X153150000Y-88600000D01*
X153150000Y-88600000D02*
X151000000Y-86450000D01*
X151000000Y-79000000D02*
X153000000Y-79000000D01*
%TO.N,Net-(D1-A)*%
X154335000Y-82385000D02*
X155600000Y-83650000D01*
X154335000Y-81350000D02*
X154335000Y-82385000D01*
%TO.N,VDD*%
X140343089Y-91818900D02*
X140343089Y-92656911D01*
X141000000Y-87000000D02*
X141818900Y-87818900D01*
X140343089Y-88338900D02*
X140343089Y-88298900D01*
X142145800Y-91500126D02*
X140661863Y-91500126D01*
X158000000Y-81000000D02*
X160000000Y-79000000D01*
X158000000Y-81350000D02*
X158000000Y-81000000D01*
X141818900Y-87818900D02*
X142048089Y-87818900D01*
X142048089Y-89544278D02*
X142322711Y-89818900D01*
X142048089Y-87818900D02*
X142048089Y-89544278D01*
X140823089Y-87818900D02*
X142048089Y-87818900D01*
X158000000Y-83650000D02*
X158000000Y-81350000D01*
X140343089Y-92656911D02*
X140000000Y-93000000D01*
X140661863Y-91500126D02*
X140343089Y-91818900D01*
X140343089Y-88298900D02*
X140823089Y-87818900D01*
%TO.N,/MODE_SEL*%
X160400000Y-83650000D02*
X160400000Y-81400000D01*
X160400000Y-81400000D02*
X160000000Y-81000000D01*
%TO.N,/IMU_INT*%
X143263143Y-89000000D02*
X145975256Y-89000000D01*
X145975256Y-89000000D02*
X145950377Y-88975121D01*
X142822837Y-89440306D02*
X143263143Y-89000000D01*
X142822837Y-89818900D02*
X142822837Y-89440306D01*
%TO.N,/IMU Comm En*%
X145450222Y-90499874D02*
X146975048Y-88975048D01*
X144000000Y-90499874D02*
X145450222Y-90499874D01*
%TO.N,/NRST*%
X155012299Y-78987701D02*
X155012299Y-78544346D01*
X153900000Y-86200000D02*
X153150000Y-86200000D01*
X155012299Y-78544346D02*
X155000000Y-78532047D01*
X153150000Y-86200000D02*
X151450000Y-84500000D01*
X143000000Y-77000000D02*
X142000000Y-78000000D01*
X155000000Y-78532047D02*
X155000000Y-77000000D01*
X151450000Y-84500000D02*
X151450000Y-82082047D01*
X155000000Y-77000000D02*
X143000000Y-77000000D01*
X151450000Y-82082047D02*
X155000000Y-78532047D01*
%TO.N,/I2C2_SCL*%
X144000000Y-91000000D02*
X146000000Y-91000000D01*
X146000000Y-91000000D02*
X147000000Y-90000000D01*
%TO.N,/I2C2_SDA*%
X147499874Y-91500126D02*
X148000000Y-91000000D01*
X144000000Y-91500126D02*
X147499874Y-91500126D01*
X148000000Y-91000000D02*
X148000000Y-90000000D01*
%TO.N,/I2C_SA0*%
X144181100Y-92181100D02*
X145000000Y-93000000D01*
X143823089Y-92181100D02*
X144181100Y-92181100D01*
%TD*%
M02*
