%TF.GenerationSoftware,KiCad,Pcbnew,7.0.8*%
%TF.CreationDate,2023-10-11T10:23:23-04:00*%
%TF.ProjectId,MCU+IMU,4d43552b-494d-4552-9e6b-696361645f70,rev?*%
%TF.SameCoordinates,Original*%
%TF.FileFunction,Paste,Top*%
%TF.FilePolarity,Positive*%
%FSLAX46Y46*%
G04 Gerber Fmt 4.6, Leading zero omitted, Abs format (unit mm)*
G04 Created by KiCad (PCBNEW 7.0.8) date 2023-10-11 10:23:23*
%MOMM*%
%LPD*%
G01*
G04 APERTURE LIST*
G04 Aperture macros list*
%AMRoundRect*
0 Rectangle with rounded corners*
0 $1 Rounding radius*
0 $2 $3 $4 $5 $6 $7 $8 $9 X,Y pos of 4 corners*
0 Add a 4 corners polygon primitive as box body*
4,1,4,$2,$3,$4,$5,$6,$7,$8,$9,$2,$3,0*
0 Add four circle primitives for the rounded corners*
1,1,$1+$1,$2,$3*
1,1,$1+$1,$4,$5*
1,1,$1+$1,$6,$7*
1,1,$1+$1,$8,$9*
0 Add four rect primitives between the rounded corners*
20,1,$1+$1,$2,$3,$4,$5,0*
20,1,$1+$1,$4,$5,$6,$7,0*
20,1,$1+$1,$6,$7,$8,$9,0*
20,1,$1+$1,$8,$9,$2,$3,0*%
G04 Aperture macros list end*
%ADD10RoundRect,0.140000X-0.140000X-0.170000X0.140000X-0.170000X0.140000X0.170000X-0.140000X0.170000X0*%
%ADD11RoundRect,0.140000X0.170000X-0.140000X0.170000X0.140000X-0.170000X0.140000X-0.170000X-0.140000X0*%
%ADD12R,0.700000X0.450000*%
%ADD13RoundRect,0.140000X0.140000X0.170000X-0.140000X0.170000X-0.140000X-0.170000X0.140000X-0.170000X0*%
%ADD14RoundRect,0.250000X0.262500X0.450000X-0.262500X0.450000X-0.262500X-0.450000X0.262500X-0.450000X0*%
%ADD15RoundRect,0.225000X-0.250000X0.225000X-0.250000X-0.225000X0.250000X-0.225000X0.250000X0.225000X0*%
%ADD16RoundRect,0.250000X-0.262500X-0.450000X0.262500X-0.450000X0.262500X0.450000X-0.262500X0.450000X0*%
%ADD17R,1.400000X1.600000*%
%ADD18RoundRect,0.075000X-0.700000X-0.075000X0.700000X-0.075000X0.700000X0.075000X-0.700000X0.075000X0*%
%ADD19RoundRect,0.075000X-0.075000X-0.700000X0.075000X-0.700000X0.075000X0.700000X-0.075000X0.700000X0*%
G04 APERTURE END LIST*
D10*
%TO.C,C4*%
X158040000Y-83000000D03*
X159000000Y-83000000D03*
%TD*%
D11*
%TO.C,C9*%
X138000000Y-75000000D03*
X138000000Y-74040000D03*
%TD*%
D12*
%TO.C,U4*%
X139000000Y-86650000D03*
X139000000Y-85350000D03*
X137000000Y-86000000D03*
%TD*%
D13*
%TO.C,C3*%
X150960000Y-87000000D03*
X150000000Y-87000000D03*
%TD*%
%TO.C,C12*%
X139000000Y-90000000D03*
X138040000Y-90000000D03*
%TD*%
D14*
%TO.C,R2*%
X143912500Y-71000000D03*
X142087500Y-71000000D03*
%TD*%
D15*
%TO.C,C1*%
X154000000Y-71450000D03*
X154000000Y-73000000D03*
%TD*%
D16*
%TO.C,R1*%
X154000000Y-83000000D03*
X155825000Y-83000000D03*
%TD*%
D10*
%TO.C,C2*%
X139040000Y-72000000D03*
X140000000Y-72000000D03*
%TD*%
D17*
%TO.C,SW1*%
X152750000Y-93000000D03*
X152750000Y-85000000D03*
X157250000Y-93000000D03*
X157250000Y-85000000D03*
%TD*%
D13*
%TO.C,C5*%
X143000000Y-87000000D03*
X142040000Y-87000000D03*
%TD*%
D11*
%TO.C,C6*%
X138000000Y-80960000D03*
X138000000Y-80000000D03*
%TD*%
D18*
%TO.C,U2*%
X140325000Y-75250000D03*
X140325000Y-75750000D03*
X140325000Y-76250000D03*
X140325000Y-76750000D03*
X140325000Y-77250000D03*
X140325000Y-77750000D03*
X140325000Y-78250000D03*
X140325000Y-78750000D03*
X140325000Y-79250000D03*
X140325000Y-79750000D03*
X140325000Y-80250000D03*
X140325000Y-80750000D03*
X140325000Y-81250000D03*
X140325000Y-81750000D03*
X140325000Y-82250000D03*
X140325000Y-82750000D03*
D19*
X142250000Y-84675000D03*
X142750000Y-84675000D03*
X143250000Y-84675000D03*
X143750000Y-84675000D03*
X144250000Y-84675000D03*
X144750000Y-84675000D03*
X145250000Y-84675000D03*
X145750000Y-84675000D03*
X146250000Y-84675000D03*
X146750000Y-84675000D03*
X147250000Y-84675000D03*
X147750000Y-84675000D03*
X148250000Y-84675000D03*
X148750000Y-84675000D03*
X149250000Y-84675000D03*
X149750000Y-84675000D03*
D18*
X151675000Y-82750000D03*
X151675000Y-82250000D03*
X151675000Y-81750000D03*
X151675000Y-81250000D03*
X151675000Y-80750000D03*
X151675000Y-80250000D03*
X151675000Y-79750000D03*
X151675000Y-79250000D03*
X151675000Y-78750000D03*
X151675000Y-78250000D03*
X151675000Y-77750000D03*
X151675000Y-77250000D03*
X151675000Y-76750000D03*
X151675000Y-76250000D03*
X151675000Y-75750000D03*
X151675000Y-75250000D03*
D19*
X149750000Y-73325000D03*
X149250000Y-73325000D03*
X148750000Y-73325000D03*
X148250000Y-73325000D03*
X147750000Y-73325000D03*
X147250000Y-73325000D03*
X146750000Y-73325000D03*
X146250000Y-73325000D03*
X145750000Y-73325000D03*
X145250000Y-73325000D03*
X144750000Y-73325000D03*
X144250000Y-73325000D03*
X143750000Y-73325000D03*
X143250000Y-73325000D03*
X142750000Y-73325000D03*
X142250000Y-73325000D03*
%TD*%
M02*
