M48
; DRILL file {KiCad 7.0.8} date 2023 October 11, Wednesday 10:23:57
; FORMAT={-:-/ absolute / inch / decimal}
; #@! TF.CreationDate,2023-10-11T10:23:57-04:00
; #@! TF.GenerationSoftware,Kicad,Pcbnew,7.0.8
; #@! TF.FileFunction,Plated,1,4,PTH
FMAT,2
INCH
; #@! TA.AperFunction,Plated,PTH,ViaDrill
T1C0.0157
; #@! TA.AperFunction,Plated,PTH,ComponentDrill
T2C0.0315
%
G90
G05
T1
X5.3937Y-2.9921
X5.4331Y-2.874
X5.4331Y-3.622
X5.4724Y-2.7953
X5.5118Y-3.6614
X5.5512Y-2.7559
X5.5512Y-3.3465
X5.5512Y-3.4252
X5.5906Y-3.0709
X5.5906Y-3.1496
X5.5906Y-3.2283
X5.6254Y-3.6569
X5.7082Y-3.4247
X5.7087Y-3.6614
X5.7461Y-3.503
X5.7864Y-3.503
X5.7874Y-3.5433
X5.8268Y-3.5433
X5.8661Y-3.2677
X5.9055Y-3.1102
X5.9055Y-3.5039
X5.9055Y-3.6614
X5.9843Y-2.8346
X6.0616Y-3.173
X6.063Y-3.0709
X6.1028Y-3.1098
X6.1417Y-2.8346
X6.1417Y-3.0709
X6.2992Y-3.1102
X6.2992Y-3.189
T2
X6.2205Y-2.874
X6.2205Y-2.9528
X6.2205Y-3.0315
X6.2205Y-3.1102
T0
M30
