G04 #@! TF.GenerationSoftware,KiCad,Pcbnew,7.0.8*
G04 #@! TF.CreationDate,2023-11-02T17:05:36-04:00*
G04 #@! TF.ProjectId,MCU+IMU,4d43552b-494d-4552-9e6b-696361645f70,rev?*
G04 #@! TF.SameCoordinates,Original*
G04 #@! TF.FileFunction,Copper,L1,Top*
G04 #@! TF.FilePolarity,Positive*
%FSLAX46Y46*%
G04 Gerber Fmt 4.6, Leading zero omitted, Abs format (unit mm)*
G04 Created by KiCad (PCBNEW 7.0.8) date 2023-11-02 17:05:36*
%MOMM*%
%LPD*%
G01*
G04 APERTURE LIST*
G04 Aperture macros list*
%AMRoundRect*
0 Rectangle with rounded corners*
0 $1 Rounding radius*
0 $2 $3 $4 $5 $6 $7 $8 $9 X,Y pos of 4 corners*
0 Add a 4 corners polygon primitive as box body*
4,1,4,$2,$3,$4,$5,$6,$7,$8,$9,$2,$3,0*
0 Add four circle primitives for the rounded corners*
1,1,$1+$1,$2,$3*
1,1,$1+$1,$4,$5*
1,1,$1+$1,$6,$7*
1,1,$1+$1,$8,$9*
0 Add four rect primitives between the rounded corners*
20,1,$1+$1,$2,$3,$4,$5,0*
20,1,$1+$1,$4,$5,$6,$7,0*
20,1,$1+$1,$6,$7,$8,$9,0*
20,1,$1+$1,$8,$9,$2,$3,0*%
G04 Aperture macros list end*
G04 #@! TA.AperFunction,SMDPad,CuDef*
%ADD10RoundRect,0.250000X0.250000X0.475000X-0.250000X0.475000X-0.250000X-0.475000X0.250000X-0.475000X0*%
G04 #@! TD*
G04 #@! TA.AperFunction,SMDPad,CuDef*
%ADD11RoundRect,0.075000X-0.700000X-0.075000X0.700000X-0.075000X0.700000X0.075000X-0.700000X0.075000X0*%
G04 #@! TD*
G04 #@! TA.AperFunction,SMDPad,CuDef*
%ADD12RoundRect,0.075000X-0.075000X-0.700000X0.075000X-0.700000X0.075000X0.700000X-0.075000X0.700000X0*%
G04 #@! TD*
G04 #@! TA.AperFunction,ComponentPad*
%ADD13R,1.700000X1.700000*%
G04 #@! TD*
G04 #@! TA.AperFunction,ComponentPad*
%ADD14O,1.700000X1.700000*%
G04 #@! TD*
G04 #@! TA.AperFunction,SMDPad,CuDef*
%ADD15R,1.400000X1.600000*%
G04 #@! TD*
G04 #@! TA.AperFunction,ViaPad*
%ADD16C,0.800000*%
G04 #@! TD*
G04 #@! TA.AperFunction,Conductor*
%ADD17C,0.250000*%
G04 #@! TD*
G04 APERTURE END LIST*
D10*
G04 #@! TO.P,C7,1*
G04 #@! TO.N,VDD*
X140900000Y-113750000D03*
G04 #@! TO.P,C7,2*
G04 #@! TO.N,GND*
X139000000Y-113750000D03*
G04 #@! TD*
D11*
G04 #@! TO.P,U2,1,VBAT*
G04 #@! TO.N,VDD*
X132000000Y-97250000D03*
G04 #@! TO.P,U2,2,PC13*
G04 #@! TO.N,unconnected-(U2-PC13-Pad2)*
X132000000Y-97750000D03*
G04 #@! TO.P,U2,3,PC14*
G04 #@! TO.N,unconnected-(U2-PC14-Pad3)*
X132000000Y-98250000D03*
G04 #@! TO.P,U2,4,PC15*
G04 #@! TO.N,unconnected-(U2-PC15-Pad4)*
X132000000Y-98750000D03*
G04 #@! TO.P,U2,5,PF0*
G04 #@! TO.N,unconnected-(U2-PF0-Pad5)*
X132000000Y-99250000D03*
G04 #@! TO.P,U2,6,PF1*
G04 #@! TO.N,unconnected-(U2-PF1-Pad6)*
X132000000Y-99750000D03*
G04 #@! TO.P,U2,7,NRST*
G04 #@! TO.N,/NRST*
X132000000Y-100250000D03*
G04 #@! TO.P,U2,8,PC0*
G04 #@! TO.N,/USART1_TX*
X132000000Y-100750000D03*
G04 #@! TO.P,U2,9,PC1*
G04 #@! TO.N,/USART1_RX*
X132000000Y-101250000D03*
G04 #@! TO.P,U2,10,PC2*
G04 #@! TO.N,unconnected-(U2-PC2-Pad10)*
X132000000Y-101750000D03*
G04 #@! TO.P,U2,11,PC3*
G04 #@! TO.N,unconnected-(U2-PC3-Pad11)*
X132000000Y-102250000D03*
G04 #@! TO.P,U2,12,VSSA*
G04 #@! TO.N,GND*
X132000000Y-102750000D03*
G04 #@! TO.P,U2,13,VDDA*
G04 #@! TO.N,VDD*
X132000000Y-103250000D03*
G04 #@! TO.P,U2,14,PA0*
G04 #@! TO.N,unconnected-(U2-PA0-Pad14)*
X132000000Y-103750000D03*
G04 #@! TO.P,U2,15,PA1*
G04 #@! TO.N,unconnected-(U2-PA1-Pad15)*
X132000000Y-104250000D03*
G04 #@! TO.P,U2,16,PA2*
G04 #@! TO.N,unconnected-(U2-PA2-Pad16)*
X132000000Y-104750000D03*
D12*
G04 #@! TO.P,U2,17,PA3*
G04 #@! TO.N,unconnected-(U2-PA3-Pad17)*
X133925000Y-106675000D03*
G04 #@! TO.P,U2,18,VSS*
G04 #@! TO.N,GND*
X134425000Y-106675000D03*
G04 #@! TO.P,U2,19,VDD*
G04 #@! TO.N,VDD*
X134925000Y-106675000D03*
G04 #@! TO.P,U2,20,PA4*
G04 #@! TO.N,unconnected-(U2-PA4-Pad20)*
X135425000Y-106675000D03*
G04 #@! TO.P,U2,21,PA5*
G04 #@! TO.N,unconnected-(U2-PA5-Pad21)*
X135925000Y-106675000D03*
G04 #@! TO.P,U2,22,PA6*
G04 #@! TO.N,unconnected-(U2-PA6-Pad22)*
X136425000Y-106675000D03*
G04 #@! TO.P,U2,23,PA7*
G04 #@! TO.N,unconnected-(U2-PA7-Pad23)*
X136925000Y-106675000D03*
G04 #@! TO.P,U2,24,PC4*
G04 #@! TO.N,unconnected-(U2-PC4-Pad24)*
X137425000Y-106675000D03*
G04 #@! TO.P,U2,25,PC5*
G04 #@! TO.N,unconnected-(U2-PC5-Pad25)*
X137925000Y-106675000D03*
G04 #@! TO.P,U2,26,PB0*
G04 #@! TO.N,/I2C_SA0*
X138425000Y-106675000D03*
G04 #@! TO.P,U2,27,PB1*
G04 #@! TO.N,unconnected-(U2-PB1-Pad27)*
X138925000Y-106675000D03*
G04 #@! TO.P,U2,28,PB2*
G04 #@! TO.N,/IMU Comm En*
X139425000Y-106675000D03*
G04 #@! TO.P,U2,29,PB10*
G04 #@! TO.N,/I2C2_SCL*
X139925000Y-106675000D03*
G04 #@! TO.P,U2,30,PB11*
G04 #@! TO.N,/I2C2_SDA*
X140425000Y-106675000D03*
G04 #@! TO.P,U2,31,VSS*
G04 #@! TO.N,GND*
X140925000Y-106675000D03*
G04 #@! TO.P,U2,32,VDD*
G04 #@! TO.N,VDD*
X141425000Y-106675000D03*
D11*
G04 #@! TO.P,U2,33,PB12*
G04 #@! TO.N,/PB12*
X143350000Y-104750000D03*
G04 #@! TO.P,U2,34,PB13*
G04 #@! TO.N,/PB13*
X143350000Y-104250000D03*
G04 #@! TO.P,U2,35,PB14*
G04 #@! TO.N,unconnected-(U2-PB14-Pad35)*
X143350000Y-103750000D03*
G04 #@! TO.P,U2,36,PB15*
G04 #@! TO.N,/PB15*
X143350000Y-103250000D03*
G04 #@! TO.P,U2,37,PC6*
G04 #@! TO.N,unconnected-(U2-PC6-Pad37)*
X143350000Y-102750000D03*
G04 #@! TO.P,U2,38,PC7*
G04 #@! TO.N,unconnected-(U2-PC7-Pad38)*
X143350000Y-102250000D03*
G04 #@! TO.P,U2,39,PC8*
G04 #@! TO.N,unconnected-(U2-PC8-Pad39)*
X143350000Y-101750000D03*
G04 #@! TO.P,U2,40,PC9*
G04 #@! TO.N,unconnected-(U2-PC9-Pad40)*
X143350000Y-101250000D03*
G04 #@! TO.P,U2,41,PA8*
G04 #@! TO.N,/PA8*
X143350000Y-100750000D03*
G04 #@! TO.P,U2,42,PA9*
G04 #@! TO.N,/PA9*
X143350000Y-100250000D03*
G04 #@! TO.P,U2,43,PA10*
G04 #@! TO.N,/PA10*
X143350000Y-99750000D03*
G04 #@! TO.P,U2,44,PA11*
G04 #@! TO.N,/PA11*
X143350000Y-99250000D03*
G04 #@! TO.P,U2,45,PA12*
G04 #@! TO.N,/PA12*
X143350000Y-98750000D03*
G04 #@! TO.P,U2,46,PA13*
G04 #@! TO.N,/SWCLK*
X143350000Y-98250000D03*
G04 #@! TO.P,U2,47,VSS*
G04 #@! TO.N,GND*
X143350000Y-97750000D03*
G04 #@! TO.P,U2,48,VDDIO2*
G04 #@! TO.N,VDD*
X143350000Y-97250000D03*
D12*
G04 #@! TO.P,U2,49,PA14*
G04 #@! TO.N,/SWDIO*
X141425000Y-95325000D03*
G04 #@! TO.P,U2,50,PA15*
G04 #@! TO.N,unconnected-(U2-PA15-Pad50)*
X140925000Y-95325000D03*
G04 #@! TO.P,U2,51,PC10*
G04 #@! TO.N,unconnected-(U2-PC10-Pad51)*
X140425000Y-95325000D03*
G04 #@! TO.P,U2,52,PC11*
G04 #@! TO.N,unconnected-(U2-PC11-Pad52)*
X139925000Y-95325000D03*
G04 #@! TO.P,U2,53,PC12*
G04 #@! TO.N,unconnected-(U2-PC12-Pad53)*
X139425000Y-95325000D03*
G04 #@! TO.P,U2,54,PD2*
G04 #@! TO.N,unconnected-(U2-PD2-Pad54)*
X138925000Y-95325000D03*
G04 #@! TO.P,U2,55,PB3*
G04 #@! TO.N,unconnected-(U2-PB3-Pad55)*
X138425000Y-95325000D03*
G04 #@! TO.P,U2,56,PB4*
G04 #@! TO.N,unconnected-(U2-PB4-Pad56)*
X137925000Y-95325000D03*
G04 #@! TO.P,U2,57,PB5*
G04 #@! TO.N,unconnected-(U2-PB5-Pad57)*
X137425000Y-95325000D03*
G04 #@! TO.P,U2,58,PB6*
G04 #@! TO.N,unconnected-(U2-PB6-Pad58)*
X136925000Y-95325000D03*
G04 #@! TO.P,U2,59,PB7*
G04 #@! TO.N,unconnected-(U2-PB7-Pad59)*
X136425000Y-95325000D03*
G04 #@! TO.P,U2,60,PF11*
G04 #@! TO.N,/BOOT0*
X135925000Y-95325000D03*
G04 #@! TO.P,U2,61,PB8*
G04 #@! TO.N,unconnected-(U2-PB8-Pad61)*
X135425000Y-95325000D03*
G04 #@! TO.P,U2,62,PB9*
G04 #@! TO.N,unconnected-(U2-PB9-Pad62)*
X134925000Y-95325000D03*
G04 #@! TO.P,U2,63,VSS*
G04 #@! TO.N,GND*
X134425000Y-95325000D03*
G04 #@! TO.P,U2,64,VDD*
G04 #@! TO.N,VDD*
X133925000Y-95325000D03*
G04 #@! TD*
D13*
G04 #@! TO.P,J2,1,Pin_1*
G04 #@! TO.N,GND*
X128750000Y-113500000D03*
D14*
G04 #@! TO.P,J2,2,Pin_2*
G04 #@! TO.N,VDD*
X131290000Y-113500000D03*
G04 #@! TO.P,J2,3,Pin_3*
X133830000Y-113500000D03*
G04 #@! TO.P,J2,4,Pin_4*
G04 #@! TO.N,GND*
X136370000Y-113500000D03*
G04 #@! TD*
D13*
G04 #@! TO.P,J1,1,Pin_1*
G04 #@! TO.N,GND*
X135750000Y-92000000D03*
D14*
G04 #@! TO.P,J1,2,Pin_2*
G04 #@! TO.N,/SWDIO*
X133210000Y-92000000D03*
G04 #@! TO.P,J1,3,Pin_3*
G04 #@! TO.N,/SWCLK*
X130670000Y-92000000D03*
G04 #@! TO.P,J1,4,Pin_4*
G04 #@! TO.N,unconnected-(J1-Pin_4-Pad4)*
X128130000Y-92000000D03*
G04 #@! TD*
D15*
G04 #@! TO.P,SW1,1,1*
G04 #@! TO.N,GND*
X121660700Y-110260789D03*
X121660700Y-102260789D03*
G04 #@! TO.P,SW1,2,2*
G04 #@! TO.N,/NRST*
X126160700Y-110260789D03*
X126160700Y-102260789D03*
G04 #@! TD*
D16*
G04 #@! TO.N,GND*
X131000000Y-110250000D03*
X137250000Y-97250000D03*
X136000000Y-102000000D03*
X139500000Y-102500000D03*
G04 #@! TO.N,/USART1_RX*
X133311667Y-101390899D03*
G04 #@! TO.N,/USART1_TX*
X133374492Y-100328298D03*
G04 #@! TO.N,VDD*
X132500000Y-107000000D03*
X132750000Y-96000000D03*
X137750000Y-104000000D03*
X143250000Y-107250000D03*
X141750000Y-97000000D03*
X132148056Y-110148056D03*
G04 #@! TO.N,/PB12*
X145250000Y-106000000D03*
G04 #@! TO.N,/IMU Comm En*
X138660700Y-108510789D03*
G04 #@! TO.N,/NRST*
X129410700Y-103260789D03*
X127000000Y-108000000D03*
X126750000Y-111750000D03*
G04 #@! TO.N,/PB13*
X145732370Y-105060011D03*
G04 #@! TO.N,unconnected-(U2-PB14-Pad35)*
X146000000Y-104149006D03*
G04 #@! TO.N,/I2C2_SCL*
X139801004Y-108395084D03*
G04 #@! TO.N,/I2C2_SDA*
X140720749Y-108786333D03*
G04 #@! TO.N,/I2C_SA0*
X137660700Y-108510789D03*
G04 #@! TO.N,/PB15*
X146000000Y-103199503D03*
G04 #@! TO.N,/PA8*
X146000000Y-102250000D03*
G04 #@! TO.N,/PA9*
X146039068Y-101166609D03*
G04 #@! TO.N,/PA10*
X145822298Y-100242181D03*
G04 #@! TO.N,/SWDIO*
X141160700Y-93760789D03*
G04 #@! TO.N,/SWCLK*
X142910700Y-95510789D03*
G04 #@! TO.N,/BOOT0*
X138410700Y-91260789D03*
G04 #@! TO.N,/PA11*
X145550690Y-99332355D03*
G04 #@! TO.N,/PA12*
X145052984Y-98523749D03*
G04 #@! TO.N,unconnected-(U3-P2_0-Pad16)*
X118500000Y-104500000D03*
G04 #@! TO.N,unconnected-(U1-INT2-Pad9)*
X136000000Y-110000000D03*
G04 #@! TD*
D17*
G04 #@! TO.N,GND*
X122735700Y-109185789D02*
X128750000Y-109185789D01*
X140925000Y-105905024D02*
X140925000Y-106675000D01*
X134620000Y-115250000D02*
X136370000Y-113500000D01*
X138435700Y-113750000D02*
X138185700Y-113500000D01*
X134425000Y-93325000D02*
X135750000Y-92000000D01*
X134425000Y-95325000D02*
X134425000Y-93325000D01*
X133750000Y-102000000D02*
X136000000Y-102000000D01*
X130000000Y-111250000D02*
X129750000Y-111250000D01*
X135410700Y-92010789D02*
X135910700Y-92010789D01*
X129750000Y-110185789D02*
X129750000Y-111250000D01*
X121660700Y-110260789D02*
X122735700Y-109185789D01*
X131573056Y-110823056D02*
X131000000Y-110250000D01*
X121660700Y-102260789D02*
X121660700Y-110260789D01*
X134700000Y-105625000D02*
X140644976Y-105625000D01*
X136000000Y-102000000D02*
X139000000Y-102000000D01*
X132427651Y-110823056D02*
X131573056Y-110823056D01*
X139000000Y-102000000D02*
X139500000Y-102500000D01*
X128750000Y-112250000D02*
X128750000Y-113500000D01*
X137250000Y-97250000D02*
X137750000Y-97750000D01*
X134425000Y-106675000D02*
X134425000Y-108825707D01*
X129750000Y-111250000D02*
X128750000Y-112250000D01*
X137750000Y-97750000D02*
X143350000Y-97750000D01*
X134425000Y-95325000D02*
X134425000Y-96100000D01*
X134425000Y-108825707D02*
X132427651Y-110823056D01*
X137250000Y-100750000D02*
X136000000Y-102000000D01*
X132000000Y-102750000D02*
X133000000Y-102750000D01*
X139000000Y-113750000D02*
X138435700Y-113750000D01*
X134425000Y-106675000D02*
X134425000Y-105900000D01*
X135575000Y-97250000D02*
X137250000Y-97250000D01*
X134425000Y-106675000D02*
X134425000Y-103575000D01*
X140644976Y-105625000D02*
X140925000Y-105905024D01*
X138185700Y-113500000D02*
X135750000Y-113500000D01*
X137250000Y-97250000D02*
X137250000Y-100750000D01*
X128750000Y-109185789D02*
X129750000Y-110185789D01*
X130500000Y-115250000D02*
X134620000Y-115250000D01*
X134425000Y-96100000D02*
X135575000Y-97250000D01*
X133000000Y-102750000D02*
X133750000Y-102000000D01*
X128750000Y-113500000D02*
X130500000Y-115250000D01*
X134425000Y-103575000D02*
X136000000Y-102000000D01*
X131000000Y-110250000D02*
X130000000Y-111250000D01*
X134425000Y-105900000D02*
X134700000Y-105625000D01*
G04 #@! TO.N,/USART1_RX*
X133170768Y-101250000D02*
X132000000Y-101250000D01*
X133311667Y-101390899D02*
X133170768Y-101250000D01*
G04 #@! TO.N,/USART1_TX*
X132952790Y-100750000D02*
X132000000Y-100750000D01*
X133374492Y-100328298D02*
X132952790Y-100750000D01*
G04 #@! TO.N,VDD*
X134989211Y-112260789D02*
X139410789Y-112260789D01*
X133925000Y-95325000D02*
X133925000Y-95746489D01*
X132750000Y-96000000D02*
X133250000Y-96000000D01*
X130950000Y-103525000D02*
X130950000Y-105450000D01*
X143250000Y-107250000D02*
X139532536Y-110967464D01*
X142675000Y-106675000D02*
X143250000Y-107250000D01*
X142250000Y-105850000D02*
X141425000Y-106675000D01*
X134465000Y-110325000D02*
X131290000Y-113500000D01*
X132000000Y-96750000D02*
X132750000Y-96000000D01*
X142000000Y-97250000D02*
X141750000Y-97000000D01*
X130950000Y-105450000D02*
X132500000Y-107000000D01*
X133750000Y-113500000D02*
X134989211Y-112260789D01*
X132500000Y-109796112D02*
X132148056Y-110148056D01*
X132500000Y-107000000D02*
X132500000Y-109796112D01*
X134925000Y-110325000D02*
X134925000Y-106675000D01*
X132000000Y-97250000D02*
X132421489Y-97250000D01*
X134925000Y-110325000D02*
X134465000Y-110325000D01*
X139532536Y-110967464D02*
X136282536Y-110967464D01*
X132000000Y-97250000D02*
X132000000Y-96750000D01*
X133250000Y-96000000D02*
X133925000Y-95325000D01*
X131225000Y-103250000D02*
X130950000Y-103525000D01*
X141425000Y-106675000D02*
X142675000Y-106675000D01*
X137750000Y-104000000D02*
X141250000Y-104000000D01*
X136282536Y-110967464D02*
X133750000Y-113500000D01*
X143350000Y-97250000D02*
X142000000Y-97250000D01*
X139410789Y-112260789D02*
X140900000Y-113750000D01*
X142250000Y-105000000D02*
X142250000Y-105850000D01*
X141250000Y-104000000D02*
X142250000Y-105000000D01*
X132000000Y-103250000D02*
X131225000Y-103250000D01*
G04 #@! TO.N,/PB12*
X144000000Y-104750000D02*
X145250000Y-106000000D01*
X143350000Y-104750000D02*
X144000000Y-104750000D01*
G04 #@! TO.N,/IMU Comm En*
X138660700Y-108510789D02*
X139425000Y-107746489D01*
X139425000Y-107746489D02*
X139425000Y-106675000D01*
G04 #@! TO.N,/NRST*
X127000000Y-105671489D02*
X129410700Y-103260789D01*
X128660700Y-102510789D02*
X129410700Y-103260789D01*
X130671489Y-100250000D02*
X132000000Y-100250000D01*
X126160700Y-111160700D02*
X126750000Y-111750000D01*
X127000000Y-108000000D02*
X127000000Y-105671489D01*
X128660700Y-102260789D02*
X128660700Y-102510789D01*
X126160700Y-102260789D02*
X128660700Y-102260789D01*
X126160700Y-110260789D02*
X126160700Y-111160700D01*
X128660700Y-102260789D02*
X130671489Y-100250000D01*
G04 #@! TO.N,/PB13*
X144922359Y-104250000D02*
X145732370Y-105060011D01*
X143350000Y-104250000D02*
X144922359Y-104250000D01*
G04 #@! TO.N,unconnected-(U2-PB14-Pad35)*
X145595902Y-103750000D02*
X145845902Y-104000000D01*
X145850994Y-104000000D02*
X146000000Y-104149006D01*
X145845902Y-104000000D02*
X145850994Y-104000000D01*
X143350000Y-103750000D02*
X145595902Y-103750000D01*
G04 #@! TO.N,/I2C2_SCL*
X139925000Y-108271088D02*
X139925000Y-106675000D01*
X139801004Y-108395084D02*
X139925000Y-108271088D01*
G04 #@! TO.N,/I2C2_SDA*
X140720749Y-108786333D02*
X140720749Y-107811435D01*
X140425000Y-107515686D02*
X140425000Y-106675000D01*
X140720749Y-107811435D02*
X140425000Y-107515686D01*
G04 #@! TO.N,/I2C_SA0*
X138165686Y-107775000D02*
X138425000Y-107515686D01*
X137660700Y-108510789D02*
X137660700Y-108260789D01*
X138425000Y-107515686D02*
X138425000Y-106675000D01*
X138146489Y-107775000D02*
X138165686Y-107775000D01*
X137660700Y-108260789D02*
X138146489Y-107775000D01*
G04 #@! TO.N,/PB15*
X145949503Y-103250000D02*
X146000000Y-103199503D01*
X143350000Y-103250000D02*
X145949503Y-103250000D01*
G04 #@! TO.N,/PA8*
X143350000Y-100750000D02*
X144254290Y-100750000D01*
X145754290Y-102250000D02*
X146000000Y-102250000D01*
X144254290Y-100750000D02*
X145754290Y-102250000D01*
G04 #@! TO.N,/PA9*
X143350000Y-100250000D02*
X144319976Y-100250000D01*
X145236585Y-101166609D02*
X146039068Y-101166609D01*
X144319976Y-100250000D02*
X145236585Y-101166609D01*
G04 #@! TO.N,/PA10*
X145505921Y-100242181D02*
X145822298Y-100242181D01*
X145013740Y-99750000D02*
X145505921Y-100242181D01*
X143350000Y-99750000D02*
X145013740Y-99750000D01*
G04 #@! TO.N,/SWDIO*
X141160700Y-93760789D02*
X141425000Y-94025089D01*
X141425000Y-94025089D02*
X141425000Y-95325000D01*
G04 #@! TO.N,/SWCLK*
X144143172Y-95510789D02*
X144450000Y-95817617D01*
X144421489Y-98250000D02*
X143350000Y-98250000D01*
X144450000Y-95817617D02*
X144450000Y-98221489D01*
X144450000Y-98221489D02*
X144421489Y-98250000D01*
X142910700Y-95510789D02*
X144143172Y-95510789D01*
G04 #@! TO.N,/BOOT0*
X137446489Y-94225000D02*
X135946489Y-94225000D01*
X135946489Y-94225000D02*
X135925000Y-94246489D01*
X138410700Y-91260789D02*
X138410700Y-93260789D01*
X135925000Y-94246489D02*
X135925000Y-95325000D01*
X138410700Y-93260789D02*
X137446489Y-94225000D01*
G04 #@! TO.N,/PA11*
X145468335Y-99250000D02*
X145550690Y-99332355D01*
X143350000Y-99250000D02*
X145468335Y-99250000D01*
G04 #@! TO.N,/PA12*
X143350000Y-98750000D02*
X144826733Y-98750000D01*
X144826733Y-98750000D02*
X145052984Y-98523749D01*
G04 #@! TD*
M02*
