G04 #@! TF.GenerationSoftware,KiCad,Pcbnew,7.0.8*
G04 #@! TF.CreationDate,2023-10-23T16:08:40-04:00*
G04 #@! TF.ProjectId,MCU+IMU,4d43552b-494d-4552-9e6b-696361645f70,rev?*
G04 #@! TF.SameCoordinates,Original*
G04 #@! TF.FileFunction,Soldermask,Top*
G04 #@! TF.FilePolarity,Negative*
%FSLAX46Y46*%
G04 Gerber Fmt 4.6, Leading zero omitted, Abs format (unit mm)*
G04 Created by KiCad (PCBNEW 7.0.8) date 2023-10-23 16:08:40*
%MOMM*%
%LPD*%
G01*
G04 APERTURE LIST*
G04 Aperture macros list*
%AMRoundRect*
0 Rectangle with rounded corners*
0 $1 Rounding radius*
0 $2 $3 $4 $5 $6 $7 $8 $9 X,Y pos of 4 corners*
0 Add a 4 corners polygon primitive as box body*
4,1,4,$2,$3,$4,$5,$6,$7,$8,$9,$2,$3,0*
0 Add four circle primitives for the rounded corners*
1,1,$1+$1,$2,$3*
1,1,$1+$1,$4,$5*
1,1,$1+$1,$6,$7*
1,1,$1+$1,$8,$9*
0 Add four rect primitives between the rounded corners*
20,1,$1+$1,$2,$3,$4,$5,0*
20,1,$1+$1,$4,$5,$6,$7,0*
20,1,$1+$1,$6,$7,$8,$9,0*
20,1,$1+$1,$8,$9,$2,$3,0*%
G04 Aperture macros list end*
%ADD10C,1.300000*%
%ADD11R,1.300000X1.300000*%
%ADD12RoundRect,0.250000X0.250000X0.475000X-0.250000X0.475000X-0.250000X-0.475000X0.250000X-0.475000X0*%
%ADD13RoundRect,0.075000X-0.075000X-0.700000X0.075000X-0.700000X0.075000X0.700000X-0.075000X0.700000X0*%
%ADD14RoundRect,0.075000X-0.700000X-0.075000X0.700000X-0.075000X0.700000X0.075000X-0.700000X0.075000X0*%
%ADD15R,1.400000X1.600000*%
%ADD16C,0.800000*%
G04 APERTURE END LIST*
D10*
G04 #@! TO.C,J2*
X135750000Y-113500000D03*
X133750000Y-113500000D03*
X131750000Y-113500000D03*
D11*
X129750000Y-113500000D03*
G04 #@! TD*
D12*
G04 #@! TO.C,C7*
X140900000Y-113750000D03*
X139000000Y-113750000D03*
G04 #@! TD*
D13*
G04 #@! TO.C,U2*
X133925000Y-95325000D03*
X134425000Y-95325000D03*
X134925000Y-95325000D03*
X135425000Y-95325000D03*
X135925000Y-95325000D03*
X136425000Y-95325000D03*
X136925000Y-95325000D03*
X137425000Y-95325000D03*
X137925000Y-95325000D03*
X138425000Y-95325000D03*
X138925000Y-95325000D03*
X139425000Y-95325000D03*
X139925000Y-95325000D03*
X140425000Y-95325000D03*
X140925000Y-95325000D03*
X141425000Y-95325000D03*
D14*
X143350000Y-97250000D03*
X143350000Y-97750000D03*
X143350000Y-98250000D03*
X143350000Y-98750000D03*
X143350000Y-99250000D03*
X143350000Y-99750000D03*
X143350000Y-100250000D03*
X143350000Y-100750000D03*
X143350000Y-101250000D03*
X143350000Y-101750000D03*
X143350000Y-102250000D03*
X143350000Y-102750000D03*
X143350000Y-103250000D03*
X143350000Y-103750000D03*
X143350000Y-104250000D03*
X143350000Y-104750000D03*
D13*
X141425000Y-106675000D03*
X140925000Y-106675000D03*
X140425000Y-106675000D03*
X139925000Y-106675000D03*
X139425000Y-106675000D03*
X138925000Y-106675000D03*
X138425000Y-106675000D03*
X137925000Y-106675000D03*
X137425000Y-106675000D03*
X136925000Y-106675000D03*
X136425000Y-106675000D03*
X135925000Y-106675000D03*
X135425000Y-106675000D03*
X134925000Y-106675000D03*
X134425000Y-106675000D03*
X133925000Y-106675000D03*
D14*
X132000000Y-104750000D03*
X132000000Y-104250000D03*
X132000000Y-103750000D03*
X132000000Y-103250000D03*
X132000000Y-102750000D03*
X132000000Y-102250000D03*
X132000000Y-101750000D03*
X132000000Y-101250000D03*
X132000000Y-100750000D03*
X132000000Y-100250000D03*
X132000000Y-99750000D03*
X132000000Y-99250000D03*
X132000000Y-98750000D03*
X132000000Y-98250000D03*
X132000000Y-97750000D03*
X132000000Y-97250000D03*
G04 #@! TD*
D11*
G04 #@! TO.C,J1*
X135750000Y-92000000D03*
D10*
X133750000Y-92000000D03*
X131750000Y-92000000D03*
X129750000Y-92000000D03*
G04 #@! TD*
D15*
G04 #@! TO.C,SW1*
X121660700Y-110260789D03*
X121660700Y-102260789D03*
X126160700Y-110260789D03*
X126160700Y-102260789D03*
G04 #@! TD*
D16*
X136000000Y-110000000D03*
X118500000Y-104500000D03*
X145250000Y-106000000D03*
X145732370Y-105060011D03*
X146000000Y-104149006D03*
X146000000Y-103199503D03*
X146000000Y-102250000D03*
X146039068Y-101166609D03*
X145822298Y-100242181D03*
X145550690Y-99332355D03*
X145052984Y-98523749D03*
X131000000Y-110250000D03*
X137250000Y-97250000D03*
X136000000Y-102000000D03*
X139500000Y-102500000D03*
X133311667Y-101390899D03*
X133374492Y-100328298D03*
X132500000Y-107000000D03*
X132750000Y-96000000D03*
X137750000Y-104000000D03*
X143250000Y-107250000D03*
X141750000Y-97000000D03*
X132148056Y-110148056D03*
X138660700Y-108510789D03*
X129410700Y-103260789D03*
X127000000Y-108000000D03*
X126750000Y-111750000D03*
X139801004Y-108395084D03*
X140720749Y-108786333D03*
X137660700Y-108510789D03*
X141160700Y-93760789D03*
X142910700Y-95510789D03*
X138410700Y-91260789D03*
M02*
