G04 #@! TF.GenerationSoftware,KiCad,Pcbnew,7.0.8*
G04 #@! TF.CreationDate,2023-10-23T16:08:40-04:00*
G04 #@! TF.ProjectId,MCU+IMU,4d43552b-494d-4552-9e6b-696361645f70,rev?*
G04 #@! TF.SameCoordinates,Original*
G04 #@! TF.FileFunction,Paste,Top*
G04 #@! TF.FilePolarity,Positive*
%FSLAX46Y46*%
G04 Gerber Fmt 4.6, Leading zero omitted, Abs format (unit mm)*
G04 Created by KiCad (PCBNEW 7.0.8) date 2023-10-23 16:08:40*
%MOMM*%
%LPD*%
G01*
G04 APERTURE LIST*
G04 Aperture macros list*
%AMRoundRect*
0 Rectangle with rounded corners*
0 $1 Rounding radius*
0 $2 $3 $4 $5 $6 $7 $8 $9 X,Y pos of 4 corners*
0 Add a 4 corners polygon primitive as box body*
4,1,4,$2,$3,$4,$5,$6,$7,$8,$9,$2,$3,0*
0 Add four circle primitives for the rounded corners*
1,1,$1+$1,$2,$3*
1,1,$1+$1,$4,$5*
1,1,$1+$1,$6,$7*
1,1,$1+$1,$8,$9*
0 Add four rect primitives between the rounded corners*
20,1,$1+$1,$2,$3,$4,$5,0*
20,1,$1+$1,$4,$5,$6,$7,0*
20,1,$1+$1,$6,$7,$8,$9,0*
20,1,$1+$1,$8,$9,$2,$3,0*%
G04 Aperture macros list end*
%ADD10RoundRect,0.250000X0.250000X0.475000X-0.250000X0.475000X-0.250000X-0.475000X0.250000X-0.475000X0*%
%ADD11RoundRect,0.075000X-0.075000X-0.700000X0.075000X-0.700000X0.075000X0.700000X-0.075000X0.700000X0*%
%ADD12RoundRect,0.075000X-0.700000X-0.075000X0.700000X-0.075000X0.700000X0.075000X-0.700000X0.075000X0*%
%ADD13R,1.400000X1.600000*%
G04 APERTURE END LIST*
D10*
G04 #@! TO.C,C7*
X140900000Y-113750000D03*
X139000000Y-113750000D03*
G04 #@! TD*
D11*
G04 #@! TO.C,U2*
X133925000Y-95325000D03*
X134425000Y-95325000D03*
X134925000Y-95325000D03*
X135425000Y-95325000D03*
X135925000Y-95325000D03*
X136425000Y-95325000D03*
X136925000Y-95325000D03*
X137425000Y-95325000D03*
X137925000Y-95325000D03*
X138425000Y-95325000D03*
X138925000Y-95325000D03*
X139425000Y-95325000D03*
X139925000Y-95325000D03*
X140425000Y-95325000D03*
X140925000Y-95325000D03*
X141425000Y-95325000D03*
D12*
X143350000Y-97250000D03*
X143350000Y-97750000D03*
X143350000Y-98250000D03*
X143350000Y-98750000D03*
X143350000Y-99250000D03*
X143350000Y-99750000D03*
X143350000Y-100250000D03*
X143350000Y-100750000D03*
X143350000Y-101250000D03*
X143350000Y-101750000D03*
X143350000Y-102250000D03*
X143350000Y-102750000D03*
X143350000Y-103250000D03*
X143350000Y-103750000D03*
X143350000Y-104250000D03*
X143350000Y-104750000D03*
D11*
X141425000Y-106675000D03*
X140925000Y-106675000D03*
X140425000Y-106675000D03*
X139925000Y-106675000D03*
X139425000Y-106675000D03*
X138925000Y-106675000D03*
X138425000Y-106675000D03*
X137925000Y-106675000D03*
X137425000Y-106675000D03*
X136925000Y-106675000D03*
X136425000Y-106675000D03*
X135925000Y-106675000D03*
X135425000Y-106675000D03*
X134925000Y-106675000D03*
X134425000Y-106675000D03*
X133925000Y-106675000D03*
D12*
X132000000Y-104750000D03*
X132000000Y-104250000D03*
X132000000Y-103750000D03*
X132000000Y-103250000D03*
X132000000Y-102750000D03*
X132000000Y-102250000D03*
X132000000Y-101750000D03*
X132000000Y-101250000D03*
X132000000Y-100750000D03*
X132000000Y-100250000D03*
X132000000Y-99750000D03*
X132000000Y-99250000D03*
X132000000Y-98750000D03*
X132000000Y-98250000D03*
X132000000Y-97750000D03*
X132000000Y-97250000D03*
G04 #@! TD*
D13*
G04 #@! TO.C,SW1*
X121660700Y-110260789D03*
X121660700Y-102260789D03*
X126160700Y-110260789D03*
X126160700Y-102260789D03*
G04 #@! TD*
M02*
