%TF.GenerationSoftware,KiCad,Pcbnew,7.0.8*%
%TF.CreationDate,2023-10-11T10:23:23-04:00*%
%TF.ProjectId,MCU+IMU,4d43552b-494d-4552-9e6b-696361645f70,rev?*%
%TF.SameCoordinates,Original*%
%TF.FileFunction,Copper,L2,Inr*%
%TF.FilePolarity,Positive*%
%FSLAX46Y46*%
G04 Gerber Fmt 4.6, Leading zero omitted, Abs format (unit mm)*
G04 Created by KiCad (PCBNEW 7.0.8) date 2023-10-11 10:23:23*
%MOMM*%
%LPD*%
G01*
G04 APERTURE LIST*
%TA.AperFunction,ComponentPad*%
%ADD10R,1.300000X1.300000*%
%TD*%
%TA.AperFunction,ComponentPad*%
%ADD11C,1.300000*%
%TD*%
%TA.AperFunction,ViaPad*%
%ADD12C,0.800000*%
%TD*%
G04 APERTURE END LIST*
D10*
%TO.N,GND*%
%TO.C,J1*%
X158000000Y-73000000D03*
D11*
%TO.N,/SWDIO*%
X158000000Y-75000000D03*
%TO.N,/SWCLK*%
X158000000Y-77000000D03*
%TO.N,unconnected-(J1-Pin_4-Pad4)*%
X158000000Y-79000000D03*
%TD*%
D12*
%TO.N,GND*%
X142885179Y-92885116D03*
X150000000Y-89000000D03*
X142000000Y-80000000D03*
X144987701Y-86987701D03*
X156000000Y-78000000D03*
X141000000Y-85000000D03*
X138000000Y-92000000D03*
X156000000Y-72000000D03*
X150000000Y-93000000D03*
X141000000Y-70000000D03*
X138000000Y-73000000D03*
%TO.N,/USART1_RX*%
X150000000Y-79000000D03*
%TO.N,/USART1_TX*%
X154000000Y-78000000D03*
%TO.N,VDD*%
X149000000Y-83000000D03*
X137000000Y-76000000D03*
X160000000Y-79000000D03*
X141000000Y-87000000D03*
X152000000Y-72000000D03*
X139000000Y-71000000D03*
X153963878Y-80593474D03*
X140000000Y-93000000D03*
X142000000Y-82000000D03*
%TO.N,/MODE_SEL*%
X160000000Y-81000000D03*
%TO.N,/IMU_INT*%
X145950377Y-88975121D03*
%TO.N,/IMU Comm En*%
X146975048Y-88975048D03*
%TO.N,/NRST*%
X155012299Y-78987701D03*
X142000000Y-78000000D03*
%TO.N,/I2C2_SCL*%
X147000000Y-90000000D03*
%TO.N,/I2C2_SDA*%
X148000000Y-90000000D03*
%TO.N,/I2C_SA0*%
X145000000Y-93000000D03*
%TD*%
%TA.AperFunction,Conductor*%
%TO.N,GND*%
G36*
X138041885Y-71019685D02*
G01*
X138087640Y-71072489D01*
X138098166Y-71111034D01*
X138106458Y-71189928D01*
X138106459Y-71189931D01*
X138165470Y-71371549D01*
X138165473Y-71371556D01*
X138260960Y-71536944D01*
X138388747Y-71678866D01*
X138543248Y-71791118D01*
X138717712Y-71868794D01*
X138904513Y-71908500D01*
X139095487Y-71908500D01*
X139282288Y-71868794D01*
X139456752Y-71791118D01*
X139611253Y-71678866D01*
X139739040Y-71536944D01*
X139834527Y-71371556D01*
X139893542Y-71189928D01*
X139901833Y-71111036D01*
X139928418Y-71046424D01*
X139985715Y-71006439D01*
X140025154Y-71000000D01*
X151449117Y-71000000D01*
X151516156Y-71019685D01*
X151561911Y-71072489D01*
X151571855Y-71141647D01*
X151542830Y-71205203D01*
X151522005Y-71224315D01*
X151449438Y-71277039D01*
X151388745Y-71321135D01*
X151260959Y-71463057D01*
X151165473Y-71628443D01*
X151165470Y-71628450D01*
X151106459Y-71810068D01*
X151106458Y-71810072D01*
X151086496Y-72000000D01*
X151106458Y-72189928D01*
X151106459Y-72189931D01*
X151165470Y-72371549D01*
X151165473Y-72371556D01*
X151260960Y-72536944D01*
X151388747Y-72678866D01*
X151543248Y-72791118D01*
X151717712Y-72868794D01*
X151904513Y-72908500D01*
X152095487Y-72908500D01*
X152282288Y-72868794D01*
X152456752Y-72791118D01*
X152611253Y-72678866D01*
X152739040Y-72536944D01*
X152834527Y-72371556D01*
X152893542Y-72189928D01*
X152913504Y-72000000D01*
X152893542Y-71810072D01*
X152834527Y-71628444D01*
X152739040Y-71463056D01*
X152611253Y-71321134D01*
X152477996Y-71224316D01*
X152435332Y-71168988D01*
X152429353Y-71099375D01*
X152461959Y-71037580D01*
X152522798Y-71003222D01*
X152550883Y-71000000D01*
X159876000Y-71000000D01*
X159943039Y-71019685D01*
X159988794Y-71072489D01*
X160000000Y-71124000D01*
X160000000Y-77970790D01*
X159980315Y-78037829D01*
X159927511Y-78083584D01*
X159901781Y-78092080D01*
X159717714Y-78131205D01*
X159543246Y-78208883D01*
X159388745Y-78321135D01*
X159260958Y-78463057D01*
X159260956Y-78463060D01*
X159250694Y-78480834D01*
X159200125Y-78529047D01*
X159131517Y-78542267D01*
X159066654Y-78516296D01*
X159032310Y-78474100D01*
X158989195Y-78387514D01*
X158989194Y-78387513D01*
X158859813Y-78216184D01*
X158859810Y-78216180D01*
X158723189Y-78091634D01*
X158686911Y-78031926D01*
X158688671Y-77962079D01*
X158723189Y-77908366D01*
X158859810Y-77783820D01*
X158977144Y-77628444D01*
X158989194Y-77612487D01*
X158989194Y-77612485D01*
X158989196Y-77612484D01*
X159084897Y-77420291D01*
X159143653Y-77213786D01*
X159163463Y-77000000D01*
X159143653Y-76786214D01*
X159084897Y-76579709D01*
X159032640Y-76474764D01*
X158989194Y-76387512D01*
X158859813Y-76216184D01*
X158859810Y-76216180D01*
X158723189Y-76091634D01*
X158686911Y-76031926D01*
X158688671Y-75962079D01*
X158723189Y-75908366D01*
X158859810Y-75783820D01*
X158977144Y-75628444D01*
X158989194Y-75612487D01*
X158989194Y-75612485D01*
X158989196Y-75612484D01*
X159084897Y-75420291D01*
X159143653Y-75213786D01*
X159163463Y-75000000D01*
X159162331Y-74987789D01*
X159143653Y-74786214D01*
X159143652Y-74786212D01*
X159084898Y-74579713D01*
X159084897Y-74579709D01*
X158989196Y-74387516D01*
X158887249Y-74252516D01*
X158862559Y-74187159D01*
X158877124Y-74118824D01*
X158911894Y-74078526D01*
X159007190Y-74007186D01*
X159093350Y-73892093D01*
X159093354Y-73892086D01*
X159143596Y-73757379D01*
X159143598Y-73757372D01*
X159149999Y-73697844D01*
X159150000Y-73697827D01*
X159150000Y-73250000D01*
X158315686Y-73250000D01*
X158327641Y-73238045D01*
X158385165Y-73125148D01*
X158404986Y-73000000D01*
X158385165Y-72874852D01*
X158327641Y-72761955D01*
X158315686Y-72750000D01*
X159150000Y-72750000D01*
X159150000Y-72302172D01*
X159149999Y-72302155D01*
X159143598Y-72242627D01*
X159143596Y-72242620D01*
X159093354Y-72107913D01*
X159093350Y-72107906D01*
X159007190Y-71992812D01*
X159007187Y-71992809D01*
X158892093Y-71906649D01*
X158892086Y-71906645D01*
X158757379Y-71856403D01*
X158757372Y-71856401D01*
X158697844Y-71850000D01*
X158250000Y-71850000D01*
X158250000Y-72684314D01*
X158238045Y-72672359D01*
X158125148Y-72614835D01*
X158031481Y-72600000D01*
X157968519Y-72600000D01*
X157874852Y-72614835D01*
X157761955Y-72672359D01*
X157750000Y-72684314D01*
X157750000Y-71850000D01*
X157302155Y-71850000D01*
X157242627Y-71856401D01*
X157242620Y-71856403D01*
X157107913Y-71906645D01*
X157107906Y-71906649D01*
X156992812Y-71992809D01*
X156992809Y-71992812D01*
X156906649Y-72107906D01*
X156906645Y-72107913D01*
X156856403Y-72242620D01*
X156856401Y-72242627D01*
X156850000Y-72302155D01*
X156850000Y-72750000D01*
X157684314Y-72750000D01*
X157672359Y-72761955D01*
X157614835Y-72874852D01*
X157595014Y-73000000D01*
X157614835Y-73125148D01*
X157672359Y-73238045D01*
X157684314Y-73250000D01*
X156850000Y-73250000D01*
X156850000Y-73697844D01*
X156856401Y-73757372D01*
X156856403Y-73757379D01*
X156906645Y-73892086D01*
X156906649Y-73892093D01*
X156992809Y-74007186D01*
X157088104Y-74078525D01*
X157129975Y-74134459D01*
X157134959Y-74204151D01*
X157112748Y-74252518D01*
X157010804Y-74387516D01*
X156915107Y-74579698D01*
X156915101Y-74579713D01*
X156856347Y-74786212D01*
X156856346Y-74786214D01*
X156836537Y-74999999D01*
X156836537Y-75000000D01*
X156856346Y-75213785D01*
X156856347Y-75213787D01*
X156915101Y-75420286D01*
X156915107Y-75420301D01*
X157010805Y-75612487D01*
X157140187Y-75783817D01*
X157140190Y-75783820D01*
X157276806Y-75908363D01*
X157313088Y-75968074D01*
X157311327Y-76037922D01*
X157276806Y-76091637D01*
X157140190Y-76216179D01*
X157140187Y-76216182D01*
X157010805Y-76387512D01*
X156915107Y-76579698D01*
X156915101Y-76579713D01*
X156856347Y-76786212D01*
X156856346Y-76786214D01*
X156836537Y-76999999D01*
X156836537Y-77000000D01*
X156856346Y-77213785D01*
X156856347Y-77213787D01*
X156915101Y-77420286D01*
X156915107Y-77420301D01*
X157010805Y-77612487D01*
X157140187Y-77783817D01*
X157140190Y-77783820D01*
X157276806Y-77908363D01*
X157313088Y-77968074D01*
X157311327Y-78037922D01*
X157276806Y-78091637D01*
X157140190Y-78216179D01*
X157140187Y-78216182D01*
X157010805Y-78387512D01*
X156915107Y-78579698D01*
X156915101Y-78579713D01*
X156856347Y-78786212D01*
X156856346Y-78786214D01*
X156836537Y-78999999D01*
X156836537Y-79000000D01*
X156856346Y-79213785D01*
X156856347Y-79213787D01*
X156915101Y-79420286D01*
X156915107Y-79420301D01*
X157010805Y-79612487D01*
X157140187Y-79783817D01*
X157140189Y-79783820D01*
X157298856Y-79928463D01*
X157298858Y-79928465D01*
X157370891Y-79973065D01*
X157481400Y-80041489D01*
X157681603Y-80119049D01*
X157892649Y-80158500D01*
X157892651Y-80158500D01*
X158107349Y-80158500D01*
X158107351Y-80158500D01*
X158318397Y-80119049D01*
X158518600Y-80041489D01*
X158701143Y-79928464D01*
X158859810Y-79783820D01*
X158989196Y-79612484D01*
X159032311Y-79525895D01*
X159079812Y-79474662D01*
X159147475Y-79457240D01*
X159213815Y-79479165D01*
X159250695Y-79519167D01*
X159260956Y-79536939D01*
X159260958Y-79536942D01*
X159311112Y-79592643D01*
X159388747Y-79678866D01*
X159543248Y-79791118D01*
X159717712Y-79868794D01*
X159742906Y-79874149D01*
X159764362Y-79878710D01*
X159825844Y-79911902D01*
X159859620Y-79973065D01*
X159854968Y-80042780D01*
X159813363Y-80098912D01*
X159764362Y-80121290D01*
X159717714Y-80131205D01*
X159543246Y-80208883D01*
X159388745Y-80321135D01*
X159260959Y-80463057D01*
X159165473Y-80628443D01*
X159165470Y-80628450D01*
X159106459Y-80810068D01*
X159106458Y-80810072D01*
X159086496Y-81000000D01*
X159106458Y-81189928D01*
X159106459Y-81189931D01*
X159165470Y-81371549D01*
X159165473Y-81371556D01*
X159260960Y-81536944D01*
X159388747Y-81678866D01*
X159543248Y-81791118D01*
X159717712Y-81868794D01*
X159901781Y-81907919D01*
X159963263Y-81941111D01*
X159997039Y-82002274D01*
X160000000Y-82029209D01*
X160000000Y-93876000D01*
X159980315Y-93943039D01*
X159927511Y-93988794D01*
X159876000Y-94000000D01*
X145550883Y-94000000D01*
X145483844Y-93980315D01*
X145438089Y-93927511D01*
X145428145Y-93858353D01*
X145457170Y-93794797D01*
X145477994Y-93775684D01*
X145611253Y-93678866D01*
X145739040Y-93536944D01*
X145834527Y-93371556D01*
X145893542Y-93189928D01*
X145913504Y-93000000D01*
X145893542Y-92810072D01*
X145834527Y-92628444D01*
X145739040Y-92463056D01*
X145611253Y-92321134D01*
X145456752Y-92208882D01*
X145282288Y-92131206D01*
X145282286Y-92131205D01*
X145095487Y-92091500D01*
X144904513Y-92091500D01*
X144717714Y-92131205D01*
X144543246Y-92208883D01*
X144388745Y-92321135D01*
X144260959Y-92463057D01*
X144165473Y-92628443D01*
X144165470Y-92628450D01*
X144106459Y-92810068D01*
X144106458Y-92810072D01*
X144086496Y-93000000D01*
X144106458Y-93189928D01*
X144106459Y-93189931D01*
X144165470Y-93371549D01*
X144165473Y-93371556D01*
X144260960Y-93536944D01*
X144388747Y-93678866D01*
X144522003Y-93775683D01*
X144564668Y-93831012D01*
X144570647Y-93900625D01*
X144538041Y-93962420D01*
X144477202Y-93996778D01*
X144449117Y-94000000D01*
X140550883Y-94000000D01*
X140483844Y-93980315D01*
X140438089Y-93927511D01*
X140428145Y-93858353D01*
X140457170Y-93794797D01*
X140477994Y-93775684D01*
X140611253Y-93678866D01*
X140739040Y-93536944D01*
X140834527Y-93371556D01*
X140893542Y-93189928D01*
X140913504Y-93000000D01*
X140893542Y-92810072D01*
X140834527Y-92628444D01*
X140739040Y-92463056D01*
X140611253Y-92321134D01*
X140456752Y-92208882D01*
X140282288Y-92131206D01*
X140282286Y-92131205D01*
X140095487Y-92091500D01*
X139904513Y-92091500D01*
X139717714Y-92131205D01*
X139543246Y-92208883D01*
X139388745Y-92321135D01*
X139260959Y-92463057D01*
X139165473Y-92628443D01*
X139165470Y-92628450D01*
X139106459Y-92810068D01*
X139106458Y-92810072D01*
X139086496Y-93000000D01*
X139106458Y-93189928D01*
X139106459Y-93189931D01*
X139165470Y-93371549D01*
X139165473Y-93371556D01*
X139260960Y-93536944D01*
X139388747Y-93678866D01*
X139522003Y-93775683D01*
X139564668Y-93831012D01*
X139570647Y-93900625D01*
X139538041Y-93962420D01*
X139477202Y-93996778D01*
X139449117Y-94000000D01*
X138474532Y-94000000D01*
X138407493Y-93980315D01*
X138389029Y-93965807D01*
X138002823Y-93598109D01*
X138000671Y-93595957D01*
X137447693Y-93015145D01*
X137445649Y-93012890D01*
X137030106Y-92531159D01*
X137001223Y-92467539D01*
X137000000Y-92450166D01*
X137000000Y-88975121D01*
X145036873Y-88975121D01*
X145056835Y-89165049D01*
X145056836Y-89165052D01*
X145115847Y-89346670D01*
X145115850Y-89346677D01*
X145211337Y-89512065D01*
X145339124Y-89653987D01*
X145493625Y-89766239D01*
X145668089Y-89843915D01*
X145854890Y-89883621D01*
X145962614Y-89883621D01*
X146029653Y-89903306D01*
X146075408Y-89956110D01*
X146085935Y-89994659D01*
X146086496Y-89999998D01*
X146086496Y-90000000D01*
X146106458Y-90189928D01*
X146106459Y-90189931D01*
X146165470Y-90371549D01*
X146165473Y-90371556D01*
X146260960Y-90536944D01*
X146388747Y-90678866D01*
X146543248Y-90791118D01*
X146717712Y-90868794D01*
X146904513Y-90908500D01*
X147095487Y-90908500D01*
X147282288Y-90868794D01*
X147449567Y-90794316D01*
X147518815Y-90785033D01*
X147550429Y-90794315D01*
X147717712Y-90868794D01*
X147904513Y-90908500D01*
X148095487Y-90908500D01*
X148282288Y-90868794D01*
X148456752Y-90791118D01*
X148611253Y-90678866D01*
X148739040Y-90536944D01*
X148834527Y-90371556D01*
X148893542Y-90189928D01*
X148913504Y-90000000D01*
X148893542Y-89810072D01*
X148834527Y-89628444D01*
X148739040Y-89463056D01*
X148611253Y-89321134D01*
X148456752Y-89208882D01*
X148282288Y-89131206D01*
X148282286Y-89131205D01*
X148095487Y-89091500D01*
X148012442Y-89091500D01*
X147945403Y-89071815D01*
X147899648Y-89019011D01*
X147889121Y-88980462D01*
X147888552Y-88975048D01*
X147868590Y-88785120D01*
X147809575Y-88603492D01*
X147714088Y-88438104D01*
X147586301Y-88296182D01*
X147431800Y-88183930D01*
X147257336Y-88106254D01*
X147257334Y-88106253D01*
X147070535Y-88066548D01*
X146879561Y-88066548D01*
X146692761Y-88106253D01*
X146692758Y-88106254D01*
X146513064Y-88186258D01*
X146443814Y-88195542D01*
X146412195Y-88186258D01*
X146303293Y-88137772D01*
X146232665Y-88106327D01*
X146232663Y-88106326D01*
X146045864Y-88066621D01*
X145854890Y-88066621D01*
X145668091Y-88106326D01*
X145493623Y-88184004D01*
X145339122Y-88296256D01*
X145211336Y-88438178D01*
X145115850Y-88603564D01*
X145115847Y-88603571D01*
X145056836Y-88785189D01*
X145056835Y-88785193D01*
X145036873Y-88975121D01*
X137000000Y-88975121D01*
X137000000Y-87000000D01*
X140086496Y-87000000D01*
X140106458Y-87189928D01*
X140106459Y-87189931D01*
X140165470Y-87371549D01*
X140165473Y-87371556D01*
X140260960Y-87536944D01*
X140388747Y-87678866D01*
X140543248Y-87791118D01*
X140717712Y-87868794D01*
X140904513Y-87908500D01*
X141095487Y-87908500D01*
X141282288Y-87868794D01*
X141456752Y-87791118D01*
X141611253Y-87678866D01*
X141739040Y-87536944D01*
X141834527Y-87371556D01*
X141893542Y-87189928D01*
X141913504Y-87000000D01*
X141893542Y-86810072D01*
X141834527Y-86628444D01*
X141739040Y-86463056D01*
X141611253Y-86321134D01*
X141456752Y-86208882D01*
X141282288Y-86131206D01*
X141282286Y-86131205D01*
X141095487Y-86091500D01*
X140904513Y-86091500D01*
X140717714Y-86131205D01*
X140543246Y-86208883D01*
X140388745Y-86321135D01*
X140260959Y-86463057D01*
X140165473Y-86628443D01*
X140165470Y-86628450D01*
X140121882Y-86762602D01*
X140106458Y-86810072D01*
X140086496Y-87000000D01*
X137000000Y-87000000D01*
X137000000Y-83000000D01*
X148086496Y-83000000D01*
X148106458Y-83189928D01*
X148106459Y-83189931D01*
X148165470Y-83371549D01*
X148165473Y-83371556D01*
X148260960Y-83536944D01*
X148388747Y-83678866D01*
X148543248Y-83791118D01*
X148717712Y-83868794D01*
X148904513Y-83908500D01*
X149095487Y-83908500D01*
X149282288Y-83868794D01*
X149456752Y-83791118D01*
X149611253Y-83678866D01*
X149739040Y-83536944D01*
X149834527Y-83371556D01*
X149893542Y-83189928D01*
X149913504Y-83000000D01*
X149893542Y-82810072D01*
X149834527Y-82628444D01*
X149739040Y-82463056D01*
X149611253Y-82321134D01*
X149456752Y-82208882D01*
X149282288Y-82131206D01*
X149282286Y-82131205D01*
X149095487Y-82091500D01*
X148904513Y-82091500D01*
X148717714Y-82131205D01*
X148543246Y-82208883D01*
X148388745Y-82321135D01*
X148260959Y-82463057D01*
X148165473Y-82628443D01*
X148165470Y-82628450D01*
X148108189Y-82804745D01*
X148106458Y-82810072D01*
X148086496Y-83000000D01*
X137000000Y-83000000D01*
X137000000Y-82000000D01*
X141086496Y-82000000D01*
X141106458Y-82189928D01*
X141106459Y-82189931D01*
X141165470Y-82371549D01*
X141165473Y-82371556D01*
X141260960Y-82536944D01*
X141388747Y-82678866D01*
X141543248Y-82791118D01*
X141717712Y-82868794D01*
X141904513Y-82908500D01*
X142095487Y-82908500D01*
X142282288Y-82868794D01*
X142456752Y-82791118D01*
X142611253Y-82678866D01*
X142739040Y-82536944D01*
X142834527Y-82371556D01*
X142893542Y-82189928D01*
X142913504Y-82000000D01*
X142893542Y-81810072D01*
X142834527Y-81628444D01*
X142739040Y-81463056D01*
X142611253Y-81321134D01*
X142456752Y-81208882D01*
X142282288Y-81131206D01*
X142282286Y-81131205D01*
X142095487Y-81091500D01*
X141904513Y-81091500D01*
X141717714Y-81131205D01*
X141543246Y-81208883D01*
X141388745Y-81321135D01*
X141260959Y-81463057D01*
X141165473Y-81628443D01*
X141165470Y-81628450D01*
X141106459Y-81810068D01*
X141106458Y-81810072D01*
X141086496Y-82000000D01*
X137000000Y-82000000D01*
X137000000Y-80593474D01*
X153050374Y-80593474D01*
X153070336Y-80783402D01*
X153070337Y-80783405D01*
X153129348Y-80965023D01*
X153129351Y-80965030D01*
X153224838Y-81130418D01*
X153352625Y-81272340D01*
X153507126Y-81384592D01*
X153681590Y-81462268D01*
X153868391Y-81501974D01*
X154059365Y-81501974D01*
X154246166Y-81462268D01*
X154420630Y-81384592D01*
X154575131Y-81272340D01*
X154702918Y-81130418D01*
X154798405Y-80965030D01*
X154857420Y-80783402D01*
X154877382Y-80593474D01*
X154857420Y-80403546D01*
X154798405Y-80221918D01*
X154706735Y-80063142D01*
X154690263Y-79995243D01*
X154713116Y-79929216D01*
X154768037Y-79886025D01*
X154837590Y-79879384D01*
X154839822Y-79879836D01*
X154916812Y-79896201D01*
X154916813Y-79896201D01*
X155107786Y-79896201D01*
X155294587Y-79856495D01*
X155469051Y-79778819D01*
X155623552Y-79666567D01*
X155751339Y-79524645D01*
X155846826Y-79359257D01*
X155905841Y-79177629D01*
X155925803Y-78987701D01*
X155905841Y-78797773D01*
X155846826Y-78616145D01*
X155751339Y-78450757D01*
X155623552Y-78308835D01*
X155469051Y-78196583D01*
X155294587Y-78118907D01*
X155294585Y-78118906D01*
X155107786Y-78079201D01*
X155033478Y-78079201D01*
X154966439Y-78059516D01*
X154920684Y-78006712D01*
X154910158Y-77968166D01*
X154893542Y-77810072D01*
X154834527Y-77628444D01*
X154739040Y-77463056D01*
X154611253Y-77321134D01*
X154456752Y-77208882D01*
X154282288Y-77131206D01*
X154282286Y-77131205D01*
X154095487Y-77091500D01*
X153904513Y-77091500D01*
X153717714Y-77131205D01*
X153543246Y-77208883D01*
X153388745Y-77321135D01*
X153260959Y-77463057D01*
X153165473Y-77628443D01*
X153165470Y-77628450D01*
X153106459Y-77810068D01*
X153106458Y-77810072D01*
X153086496Y-78000000D01*
X153106458Y-78189928D01*
X153106459Y-78189931D01*
X153165470Y-78371549D01*
X153165473Y-78371556D01*
X153260960Y-78536944D01*
X153388747Y-78678866D01*
X153543248Y-78791118D01*
X153717712Y-78868794D01*
X153904513Y-78908500D01*
X153978821Y-78908500D01*
X154045860Y-78928185D01*
X154091615Y-78980989D01*
X154102140Y-79019534D01*
X154118757Y-79177629D01*
X154118758Y-79177632D01*
X154177769Y-79359250D01*
X154177772Y-79359257D01*
X154269440Y-79518031D01*
X154285913Y-79585931D01*
X154263060Y-79651958D01*
X154208139Y-79695149D01*
X154138586Y-79701790D01*
X154136272Y-79701321D01*
X154059365Y-79684974D01*
X153868391Y-79684974D01*
X153681592Y-79724679D01*
X153681590Y-79724680D01*
X153548766Y-79783817D01*
X153507124Y-79802357D01*
X153352623Y-79914609D01*
X153224837Y-80056531D01*
X153129351Y-80221917D01*
X153129348Y-80221924D01*
X153097113Y-80321135D01*
X153070336Y-80403546D01*
X153050374Y-80593474D01*
X137000000Y-80593474D01*
X137000000Y-79000000D01*
X149086496Y-79000000D01*
X149106458Y-79189928D01*
X149106459Y-79189931D01*
X149165470Y-79371549D01*
X149165473Y-79371556D01*
X149260960Y-79536944D01*
X149388747Y-79678866D01*
X149543248Y-79791118D01*
X149717712Y-79868794D01*
X149904513Y-79908500D01*
X150095487Y-79908500D01*
X150282288Y-79868794D01*
X150456752Y-79791118D01*
X150611253Y-79678866D01*
X150739040Y-79536944D01*
X150834527Y-79371556D01*
X150893542Y-79189928D01*
X150913504Y-79000000D01*
X150893542Y-78810072D01*
X150834527Y-78628444D01*
X150739040Y-78463056D01*
X150611253Y-78321134D01*
X150456752Y-78208882D01*
X150282288Y-78131206D01*
X150282286Y-78131205D01*
X150095487Y-78091500D01*
X149904513Y-78091500D01*
X149717714Y-78131205D01*
X149543246Y-78208883D01*
X149388745Y-78321135D01*
X149260959Y-78463057D01*
X149165473Y-78628443D01*
X149165470Y-78628450D01*
X149106459Y-78810068D01*
X149106458Y-78810072D01*
X149086496Y-79000000D01*
X137000000Y-79000000D01*
X137000000Y-78000000D01*
X141086496Y-78000000D01*
X141106458Y-78189928D01*
X141106459Y-78189931D01*
X141165470Y-78371549D01*
X141165473Y-78371556D01*
X141260960Y-78536944D01*
X141388747Y-78678866D01*
X141543248Y-78791118D01*
X141717712Y-78868794D01*
X141904513Y-78908500D01*
X142095487Y-78908500D01*
X142282288Y-78868794D01*
X142456752Y-78791118D01*
X142611253Y-78678866D01*
X142739040Y-78536944D01*
X142834527Y-78371556D01*
X142893542Y-78189928D01*
X142913504Y-78000000D01*
X142893542Y-77810072D01*
X142834527Y-77628444D01*
X142739040Y-77463056D01*
X142611253Y-77321134D01*
X142456752Y-77208882D01*
X142282288Y-77131206D01*
X142282286Y-77131205D01*
X142095487Y-77091500D01*
X141904513Y-77091500D01*
X141717714Y-77131205D01*
X141543246Y-77208883D01*
X141388745Y-77321135D01*
X141260959Y-77463057D01*
X141165473Y-77628443D01*
X141165470Y-77628450D01*
X141106459Y-77810068D01*
X141106458Y-77810072D01*
X141086496Y-78000000D01*
X137000000Y-78000000D01*
X137000000Y-77029209D01*
X137019685Y-76962170D01*
X137072489Y-76916415D01*
X137098216Y-76907919D01*
X137282288Y-76868794D01*
X137456752Y-76791118D01*
X137611253Y-76678866D01*
X137739040Y-76536944D01*
X137834527Y-76371556D01*
X137893542Y-76189928D01*
X137913504Y-76000000D01*
X137893542Y-75810072D01*
X137834527Y-75628444D01*
X137739040Y-75463056D01*
X137611253Y-75321134D01*
X137456752Y-75208882D01*
X137282288Y-75131206D01*
X137282286Y-75131205D01*
X137282285Y-75131205D01*
X137098219Y-75092080D01*
X137036737Y-75058887D01*
X137002961Y-74997724D01*
X137000000Y-74970790D01*
X137000000Y-71549832D01*
X137019685Y-71482793D01*
X137030092Y-71468856D01*
X137397434Y-71043004D01*
X137456126Y-71005101D01*
X137491326Y-71000000D01*
X137974846Y-71000000D01*
X138041885Y-71019685D01*
G37*
%TD.AperFunction*%
%TD*%
M02*
